<svg version="1.1" xmlns="http://www.w3.org/2000/svg" viewBox="0 0 828.7007862469563 421.7702251676896" width="828.7007862469563" height="421.7702251676896">
  <!-- svg-source:excalidraw -->
  
  <defs>
    <style class="style-fonts">
      @font-face {
        font-family: "Virgil";
        src: url("https://excalidraw.com/Virgil.woff2");
      }
      @font-face {
        font-family: "Cascadia";
        src: url("https://excalidraw.com/Cascadia.woff2");
      }
      @font-face {
        font-family: "Assistant";
        src: url("https://excalidraw.com/Assistant-Regular.woff2");
      }
    </style>
    
  </defs>
  <rect x="0" y="0" width="828.7007862469563" height="421.7702251676896" fill="#ffffff"></rect><g transform="translate(26.239507503360983 29.297746861188557) rotate(0 70.3125 9.600000000000023)"><text x="70.3125" y="0" font-family="Cascadia, Segoe UI Emoji" font-size="16px" fill="#1e1e1e" text-anchor="middle" style="white-space: pre;" direction="ltr" dominant-baseline="text-before-edge">gRPCity: client</text></g><g stroke-linecap="round" transform="translate(30.5805985796065 135.9253280396929) rotate(0 52.222644885668544 17.237219846886205)"><path d="M-0.94 0.37 C25.77 0.28, 47.43 1.09, 102.72 1.5 M102.33 1.62 C102.38 13.89, 105.76 26.6, 107.74 31.77 M102.38 35.56 C73.1 32.72, 38.99 36.68, 2.8 36.48 M3.92 35.05 C-3.9 26.4, -2.63 11.77, 0.47 -3.86" stroke="#1e1e1e" stroke-width="1.5" fill="none" stroke-dasharray="8 9"></path></g><g transform="translate(45.80723363861489 146.2707650133624) rotate(0 36.996009826660156 6.891782873216698)"><text x="36.996009826660156" y="0" font-family="Cascadia, Segoe UI Emoji" font-size="11.486304788694467px" fill="#1e1e1e" text-anchor="middle" style="white-space: pre;" direction="ltr" dominant-baseline="text-before-edge">init client</text></g><g stroke-linecap="round" transform="translate(199.85312055226274 137.5412032838335) rotate(0 69.7392311893795 16.90735534493308)"><path d="M0 0 C0 0, 0 0, 0 0 M0 0 C0 0, 0 0, 0 0 M-0.18 7.51 C2.5 5.14, 4.19 2.29, 6.46 1.15 M0.11 6.16 C2.43 4.08, 4.41 1.95, 4.55 0.97 M-2.83 11.74 C5.43 10.98, 5.99 2.08, 8.81 2.58 M1.37 11.44 C4.97 9, 7.92 4.87, 11.96 -0.36 M-0.44 20.91 C6.75 17.22, 8.44 10.21, 15.94 -2.58 M-2.06 16.52 C5.51 14.44, 7.93 8.45, 16.78 -1.42 M-3.28 24.59 C3.47 20.22, 15.49 9.68, 24.33 0.11 M2.2 22.87 C6.45 14.27, 17.71 5.78, 21.71 1.74 M-2.18 26.81 C6.5 26.24, 14.31 17.29, 24.6 -2.69 M0.66 28.93 C5.95 22.64, 14.46 15.45, 28.02 0.84 M0.47 35.97 C9.5 24.18, 20.2 8.62, 29.82 3.19 M3.15 34.27 C11.62 21.8, 21.83 9.58, 32.19 -0.04 M3.98 37.39 C17.41 21.81, 22.62 16.35, 36.44 -2.47 M8.25 34.01 C16.32 23.63, 24.75 14.7, 36.65 0.83 M10.11 35.52 C18.37 26.84, 27.89 10.11, 40.16 -1.02 M13.06 32.98 C24.12 22.36, 31.82 8.42, 40.74 -1.87 M14.17 30.94 C20.38 26.48, 27.99 22.07, 45.31 2.55 M19.4 32.61 C29.56 20.93, 41.15 5.67, 47.16 0.78 M19.07 33.55 C31.9 26.28, 45.1 12.23, 56.73 -3.09 M24.88 36.15 C29.99 26.94, 39.82 16.47, 52.86 -0.75 M27.24 31.92 C37.3 23.38, 39.98 18.71, 57.13 -2.21 M29.94 35.86 C39.71 23.55, 46.39 14.84, 59.53 -1.09 M34 34.7 C37.68 29.67, 45.88 17.66, 62.98 1.36 M32.2 34.4 C41.68 26.79, 47.07 20.67, 64.5 -0.69 M35.4 31.96 C48.66 28.06, 49.32 17.43, 69.89 1.6 M37.45 32.12 C51.86 21.59, 62.8 6.95, 67.2 -0.49 M45.64 36.58 C57.55 24.43, 62.3 8.09, 76.44 -0.35 M46.08 36.37 C51.99 25.35, 58.13 18.06, 76.08 1.36 M48.91 37.62 C61.13 16.16, 70.99 6.18, 77.62 -2.75 M47.99 32.82 C60.58 22.54, 66.99 13.73, 79.07 -1.13 M56.79 33.71 C60.79 26.89, 70.45 24.18, 88.66 -1.97 M53.06 34.75 C67.14 22.51, 79.09 9.54, 86.5 1.46 M60.09 34.4 C72.18 23.77, 82.29 16.66, 90.44 0.97 M62.07 34.39 C67.13 25.84, 77.65 17.93, 89.52 -0.67 M62.29 37.57 C75.17 22.18, 76.75 20.21, 93.3 1.7 M65.14 36.24 C76.89 22.87, 84.5 9.59, 95.1 -1.29 M71.34 30.75 C78.63 29.95, 85.73 18.65, 98.5 1.92 M72.67 32.33 C76.69 27.17, 81.99 18.56, 100.4 -0.75 M77.08 32.57 C83.88 23.13, 87.66 16.22, 106.05 2.77 M77.78 35.58 C85.89 23.95, 91.98 15.23, 107.74 1.25 M83.1 30.05 C92.52 27.46, 96.26 14.55, 108.06 -1.8 M83.25 35.12 C91.23 24.03, 97.5 18.34, 111.02 -0.96 M84.13 36.05 C96.2 26.68, 103.26 15.35, 120.01 1.07 M87.93 33.55 C92.19 28.05, 99.41 18.24, 118.04 0.99 M89.23 35.36 C99.99 23.23, 109.59 16.6, 121.39 0.83 M93.07 35.06 C102.86 21.93, 112.66 7.73, 120.16 -0.89 M94.48 30.31 C110.97 25.73, 114.45 8.19, 128.33 -2.9 M96 34.95 C108.27 19.79, 121.5 8.95, 128.08 0.61 M99.62 34.43 C112.85 29.59, 115.5 24.45, 132.85 -2.21 M101.85 35.22 C109.99 23.24, 119.13 14.41, 132.08 1.93 M111.25 30.55 C112.67 27.44, 125.01 12.74, 140.24 0.54 M107.86 34.61 C115.53 24.8, 126.75 13.45, 138.45 0.1 M116.25 32.2 C122.54 25.6, 123.56 19.98, 137.59 1.77 M111.78 35.94 C124.13 23.55, 133.67 12.44, 139.21 1.77 M117.6 32.95 C122.37 25.93, 135.4 16.35, 139.8 8.34 M116.86 35.4 C129.2 25.87, 134.22 14.68, 140.98 8.77 M123.81 35.81 C127.23 29.3, 132.95 26.25, 138.15 19.14 M124.2 33.86 C128.59 29.2, 133.98 20.45, 138.8 15.67 M128.86 34.51 C134.63 30.15, 139.14 26.76, 141.27 25.24 M129.7 34.21 C133.27 28.92, 136.32 24.29, 140.3 20.92 M133.73 34.9 C136.7 30.34, 137.17 29.87, 138.42 26.24 M133.65 33.7 C136.26 32.65, 136.41 32.13, 139.52 27.82" stroke="#ffc9c9" stroke-width="0.5" fill="none"></path><path d="M-3.72 -3.69 C40.5 -0.35, 75.92 3.27, 142.26 0.53 M0.02 0.58 C30.06 1.51, 63.08 -0.08, 140.75 -1.48 M143.26 3.51 C137.08 15.31, 143.63 23.99, 140.97 33.47 M139.3 -1.26 C139.06 10.63, 141.71 22.19, 138.96 34.47 M141.45 34.44 C109.56 32.29, 81.34 34.48, -0.68 34.44 M137.9 32.67 C109.17 35.89, 79.95 37.53, 0.92 35.36 M-2.35 33.27 C1.94 23.98, -0.69 17.39, -0.38 2.67 M1.64 35.39 C-1.98 25.82, -0.35 20.23, 0.29 -0.57" stroke="#e03131" stroke-width="1" fill="none"></path></g><g transform="translate(232.59634191498208 147.5567757555499) rotate(0 36.996009826660156 6.891782873216698)"><text x="36.996009826660156" y="0" font-family="Cascadia, Segoe UI Emoji" font-size="11.486304788694467px" fill="#e03131" text-anchor="middle" style="white-space: pre;" direction="ltr" dominant-baseline="text-before-edge">real client</text></g><g stroke-linecap="round" transform="translate(401.26571820851274 136.33993985609925) rotate(0 58.37576683391072 16.80255798165183)"><path d="M0 0 C0 0, 0 0, 0 0 M0 0 C0 0, 0 0, 0 0 M0.68 5.77 C0.03 5.77, 1.95 2.35, 6.4 0.85 M-0.76 6.53 C1.15 4.37, 2.85 3.3, 4.88 0.53 M2.27 12.62 C4.61 7.81, 6.37 1.09, 7.82 -1.43 M-1.03 10.44 C5.1 9.16, 6.03 2.68, 11.2 -1.33 M-2.89 19.73 C5.29 9.38, 14.69 7.31, 17.97 0.87 M-1.5 18.32 C5.26 15.75, 6.72 13.02, 15.77 -0.75 M-0.77 25.19 C3.96 13.63, 11.11 8.78, 20.32 3.91 M1.89 22.22 C4.32 18.7, 12.16 9.43, 22.61 0.05 M-0.3 31.16 C4.71 23.51, 16.45 13.1, 28.08 -0.12 M1.63 29.27 C7.55 22.81, 10.85 16.79, 25.09 -0.67 M-0.06 36.49 C15.42 21.67, 25.48 9.82, 30.51 -3.93 M1.85 33.22 C10.07 22.56, 22.7 10.73, 31.65 -0.6 M3.78 36.55 C22.81 23.8, 27.41 7.67, 38.26 -0.86 M7.44 34.82 C14.11 25.9, 21.54 19.13, 35.94 1.96 M13.49 33.12 C21.27 24.86, 31.1 8.44, 40.06 -0.24 M12.08 34.77 C23.44 22.55, 34.24 11.25, 43.46 1.81 M19.04 34.21 C29.27 19.57, 38.18 6.53, 48.84 -2.78 M17.39 34.56 C29.8 19.88, 39.06 9.31, 45.57 -1.47 M20.26 30.72 C32.76 24.98, 34.32 21.61, 50.3 0.08 M23.03 36.22 C31.36 21.84, 41.24 12.95, 54.08 -1.85 M30.77 37.78 C32.55 27.71, 41.97 20.6, 57.11 2.76 M28.6 32.74 C36.75 24.41, 45.39 15.77, 59.29 0.88 M36.14 31.43 C47.21 23.74, 54.58 13.9, 65.47 2.19 M31.71 35.79 C41.98 24.98, 50.46 16.71, 64.58 -1.23 M38.47 37.18 C48.52 22.82, 58.15 13.33, 69.29 -1.55 M38.52 33.34 C48.83 22.57, 58.37 14.5, 68.44 -0.63 M46.58 34.7 C51.34 17.81, 69.92 10.17, 72.77 3.34 M45.83 33.44 C53.37 24.53, 60.13 12.87, 75.07 -0.53 M48.58 30.39 C59.97 22.59, 72.44 11.75, 80.54 1.07 M51.62 33.8 C56.68 23.14, 69.05 13.44, 80.39 0.78 M58.01 34.04 C65.85 17.71, 74.91 9.83, 86.31 -3.18 M53.13 33.59 C65.95 24.28, 77.48 9.6, 86.66 -0.44 M62.48 35.45 C72.99 26.59, 75.74 17.15, 86.96 1.43 M61.41 35.03 C70.46 20.87, 79.12 10.27, 88.52 -1.62 M61.77 37.03 C69.14 26.97, 81.42 17.55, 95.18 -0.03 M67.39 35.14 C78.2 21, 87.5 12.28, 95.53 -0.23 M72.48 30.46 C75.47 28.71, 85.73 19.7, 97.59 0.42 M72.42 35.4 C76.92 24.57, 87.14 17.39, 102.27 1.91 M78.14 37.31 C81.58 27.33, 85.82 16.94, 107.37 2.22 M74.4 33.45 C84.24 22.04, 97.54 13.54, 106.87 0.32 M81.84 37.61 C90.77 22.78, 101.63 15.43, 114.39 -3.01 M82.23 32.76 C93.51 23.86, 103.39 8.93, 113.1 -0.43 M88.35 34.57 C98.42 21.51, 110.68 9.06, 113.17 1.82 M86 34.35 C96.16 22.41, 108.4 10.15, 116.25 -0.34 M92.75 31.11 C94.02 31.11, 98.59 22.14, 115.68 5.45 M91.44 34.43 C100.97 23.47, 108.26 14.31, 115.91 5.31 M94.55 30.57 C103.7 26.13, 107.61 15.97, 114.57 9.34 M98.06 36.13 C104 27.8, 107.89 21.98, 117.05 12.01 M102.33 37.27 C103.34 29.24, 108.68 27.16, 116 18.36 M101.67 35.17 C106.25 30.55, 110.68 25.35, 118.9 15.8 M107.89 33.49 C109.28 33.06, 114.66 28.04, 118.43 25.92 M108.33 35.17 C109.63 31.08, 111.61 29.35, 116.44 24.22 M113.95 34.04 C115.98 32.7, 116.25 31.49, 117.72 29.57 M113.64 34.29 C114.38 32.76, 115.56 31.41, 117.57 28.9" stroke="#b2f2bb" stroke-width="0.5" fill="none"></path><path d="M-3.09 3.12 C38.31 -3.18, 76.14 2.01, 120.06 -1.01 M-0.78 -1.6 C32.19 1.2, 59.33 -1.79, 118.24 -1.19 M117.48 -0.71 C120.69 14.6, 117.73 21.1, 114.49 32.47 M115.51 0.1 C114.49 8.82, 117.42 17.76, 115.9 32.53 M119.91 36.67 C72.89 34.41, 37.19 32.68, -1.63 33.1 M117.3 34.08 C85.49 34.08, 54.69 32.32, -0.59 33.48 M-1.95 36.92 C2.51 22.76, -1.42 4.94, 0.94 2.87 M0.59 34.27 C-1.98 22.03, 1.95 6.68, 0.64 -1.62" stroke="#2f9e44" stroke-width="1" fill="none"></path></g><g transform="translate(419.28220159515786 146.25071496453438) rotate(0 40.359283447265625 6.891782873216698)"><text x="40.359283447265625" y="0" font-family="Cascadia, Segoe UI Emoji" font-size="11.486304788694467px" fill="#2f9e44" text-anchor="middle" style="white-space: pre;" direction="ltr" dominant-baseline="text-before-edge">client cache</text></g><g transform="translate(101.71203421449708 109.93950888105269) rotate(359.7911606207079 64.21875 6.5766770613846575)"><text x="64.21875" y="0" font-family="Cascadia, Segoe UI Emoji" font-size="10.96112843564114px" fill="#1e1e1e" text-anchor="middle" style="white-space: pre;" direction="ltr" dominant-baseline="text-before-edge">proto &amp; addr binding</text></g><g stroke-linecap="round" transform="translate(10 10) rotate(0 404.35039312347817 200.8851125838448)"><path d="M0.37 1.02 C168.48 4.85, 337.23 3.85, 809.89 1.49 M809.7 -1.87 C809.03 95.55, 810.78 193.22, 807.88 402.08 M809.19 403.36 C545.75 406.76, 281.36 404.72, -0.16 401.25 M1.65 402 C-3.14 257.63, -5.11 111.55, 0.06 1.59" stroke="#1e1e1e" stroke-width="1.5" fill="none" stroke-dasharray="8 9"></path></g><g stroke-linecap="round" transform="translate(305.29342816945035 230.15248563246644) rotate(0 74.75934227336384 18.328125)"><path d="M0 0 C0 0, 0 0, 0 0 M0 0 C0 0, 0 0, 0 0 M-0.77 7.59 C2.03 5.91, 3.02 4.82, 3.67 -0.35 M-0.47 6.33 C0.79 4.22, 1.78 4.27, 5.56 1.08 M-0.95 14.06 C4.72 7.98, 10.56 1.27, 10.25 -3.06 M0.82 13.14 C3.36 7.76, 4.4 7, 12.17 0.25 M-1.57 19.92 C3.05 13.62, 11.66 6.48, 13.76 -1.61 M-0.48 18.42 C6.33 13.11, 12.6 3.75, 14.92 -0.41 M4.02 20.84 C8.96 14.22, 11.13 11.39, 24.02 2.71 M1.6 25.62 C7.34 17.01, 13.2 8.8, 21.21 1.41 M-2.95 26.78 C3.95 21.73, 11.12 12.58, 22.95 3.16 M0.29 28.77 C4.24 26.29, 11.61 19.22, 26.55 -1.57 M-2.88 39.37 C10.45 27, 13.51 16.79, 30.98 3.5 M1.12 35.06 C8.67 30.25, 13.61 20.08, 30.39 -0.21 M5.19 39.03 C16.25 27.39, 26.46 10.84, 40.27 -1.28 M2.48 39.67 C16.35 23.79, 29.29 7.23, 36.96 -1.53 M7.68 39.9 C24.71 22.69, 31.54 8.43, 42.61 -3.67 M6.7 38.6 C20.53 27.89, 30.89 13.44, 44.23 0.53 M16.39 35.69 C27.8 31.41, 35.24 19.62, 50.79 -2.19 M13.1 38.5 C21.4 30.38, 28.17 21.27, 48.31 0.52 M22.32 38.74 C34.58 24.5, 49.85 6.26, 54.5 -4.08 M18.88 37.71 C31.56 23.98, 42.29 12.4, 52.39 -1.29 M27.12 35.76 C34.78 33.45, 39.55 21.25, 57.65 4.13 M23.55 37.79 C30.3 33.38, 36.97 25.18, 59.2 0.45 M26.95 37.1 C44.32 29.11, 47.93 13.17, 66.32 -2.06 M27.93 38.89 C40.48 27.08, 50.13 11.05, 63.94 1.44 M37.82 38.17 C44.02 22.51, 57.01 14.63, 70.05 0.31 M36.54 41.02 C47.49 23.24, 60.28 10.43, 70.71 -0.88 M39.52 36.84 C52.06 30.92, 58.51 17.52, 77.8 -1.02 M40.56 39.39 C49.47 31.91, 55.11 23.06, 73.45 -2.12 M48.95 42.76 C51.76 26.74, 60.39 18.57, 83.26 -0.1 M44.26 37.72 C56.58 24.79, 69.22 9.5, 80.39 0.45 M48.04 38.79 C63.59 21.38, 75.67 11.72, 84.74 0.57 M51.94 39.51 C58.26 30.61, 69.07 20.63, 86.96 1.19 M57.08 38.32 C68.37 24.28, 71.88 19.36, 90.59 3.42 M54.37 37.43 C64.02 29.74, 71.93 17.06, 88.26 1.39 M62.6 38.69 C71.05 25.37, 79.33 16.32, 99 -2.82 M59.71 40.56 C73.71 23.17, 87.51 8.57, 95.96 -1.4 M66.79 38.56 C72.78 29.73, 87.93 20.45, 103.44 2.3 M67.99 39.75 C73.06 31.21, 82.33 24.16, 98.8 1.92 M71.32 39.25 C79.63 25.78, 98.21 17.61, 104.49 -3.76 M73.99 38.89 C86.58 25.4, 97.75 8.33, 107.44 1.33 M78.76 38.15 C81.24 34.07, 91.99 18.93, 115.25 -1.08 M77.72 40.28 C83.95 28.75, 93.01 19.11, 110.97 -0.98 M83.76 38.83 C96.89 30.01, 101.22 12.83, 116.54 -1.18 M82.69 40.64 C91.74 28.62, 97.4 21.93, 117.16 -0.58 M85.73 40.68 C102.2 23.84, 109.85 12.58, 121.54 2.6 M89.62 40.69 C101.53 21.96, 114.24 9.23, 120.19 0.75 M89.48 40.5 C104.6 27.41, 117.64 12.61, 124.5 0.72 M92.18 40.71 C103.99 24.83, 116.4 9.33, 126.35 0.66 M100.48 38.68 C111.37 25.52, 127.79 7.92, 131.89 1.59 M97.23 38.63 C111.3 26.19, 123.69 8.28, 132.35 0.18 M106.16 36.52 C110.37 31.17, 114.01 22.12, 139.83 0.91 M105.31 41.3 C117.24 24.93, 127.86 9.72, 135.73 1.14 M111.87 41.63 C121.51 30.5, 131.29 13.51, 141.93 -0.92 M107.55 37.83 C120.97 26.29, 132.03 14.79, 141.82 1.4 M114.19 41.32 C129.22 20.85, 140.11 12.66, 146.69 2.55 M114.09 38.89 C121.55 28.71, 129.45 20.43, 150.15 0.22 M120.82 39.94 C124.49 29.73, 138.13 23.27, 151.39 3.46 M119.04 38.02 C127.65 28.97, 136.37 20.58, 151.45 3.81 M124 40.29 C131.18 30.32, 138.57 22.59, 154.1 10.03 M124.95 38.97 C134.11 29.53, 140.73 20.12, 152.7 7.61 M128.32 40.96 C133.6 35.1, 141.7 26.39, 149.47 11.35 M131.66 40.98 C133.63 34.24, 139.2 26.8, 151.99 15.11 M132.13 41.74 C138.75 32.66, 145.85 30.84, 154.28 19.86 M136.82 38.1 C141.04 33.4, 142.12 31.36, 153.1 20.2 M139.64 40.67 C143.6 38.51, 145.64 35.62, 154.18 28.52 M140.82 40.29 C143.81 35.36, 149.78 30.73, 151.78 26.63 M147.38 40.09 C146.82 36.57, 150.5 36.58, 153.21 31.55 M146.46 38.7 C148.01 38.58, 148.5 36.81, 150.96 33.1" stroke="#ffec99" stroke-width="0.5" fill="none"></path><path d="M-1.1 3.75 C54.14 6.36, 112.01 0.12, 153.22 -1.97 M-0.7 -1.08 C38.16 1.04, 77.46 4.33, 148.76 1.43 M152.06 -1.57 C152.74 6.83, 151.38 19.94, 151.93 40.07 M148.5 0.65 C150.47 8.7, 151.78 17.74, 148.99 37.32 M147.87 37.91 C99.3 38.08, 39.45 35.39, 2.62 35.21 M151.28 38.44 C90.88 37.61, 34.8 38.56, 1.38 34.81 M-0.11 34.04 C-2.13 23.08, -2.92 14.87, -2.98 -0.58 M0.93 35.59 C-2.19 23.25, -2.46 14.89, -1.17 -0.54" stroke="#f08c00" stroke-width="1" fill="none"></path></g><g transform="translate(339.6934869955486 241.58882775924974) rotate(0 40.359283447265625 6.89178287321667)"><text x="40.359283447265625" y="0" font-family="Cascadia, Segoe UI Emoji" font-size="11.486304788694467px" fill="#f08c00" text-anchor="middle" style="white-space: pre;" direction="ltr" dominant-baseline="text-before-edge">client porxy</text></g><g stroke-linecap="round" transform="translate(628.9754960405442 252.15032559654003) rotate(0 76.08304222453569 15.667388916015625)"><path d="M0 0 C0 0, 0 0, 0 0 M0 0 C0 0, 0 0, 0 0 M-1.07 6.41 C1.92 2.76, 4.64 1.65, 6.01 0.83 M-0.03 5.9 C1.28 4.98, 2.35 3.49, 4.97 0.49 M2.63 13.53 C2.21 7.3, 6.62 6.63, 11.55 -0.31 M0.92 13.51 C3.55 8.54, 3.2 7.9, 11.82 -0.27 M-1.44 20.35 C2.71 15.12, 6.78 5.34, 17.05 0.58 M-0.32 18.82 C0.93 15.01, 4.84 11.24, 14.47 -0.75 M2.12 26.74 C2.95 15.13, 11.46 14.34, 23.13 -2.88 M0.31 24.63 C7.18 14.8, 14.39 5.8, 21.97 1.35 M0.69 28.7 C11.08 17.26, 19.25 4.56, 29.66 3.07 M1.81 30.08 C9.64 22.04, 16.73 13.67, 26.34 1.82 M5.06 33.4 C14.87 25.04, 22.72 14.37, 28.05 -1.38 M2.43 32.75 C14.93 22.49, 22.71 9.42, 31.95 1.66 M12.99 29.01 C16.95 21.72, 28.25 17.35, 34.85 3.84 M9.72 32.5 C19.31 20.83, 29.74 7.2, 38.25 0.42 M12.92 28.96 C19.82 21.87, 33.72 10.69, 43.58 -0.06 M13.41 31.63 C25 21.14, 31.57 11.91, 42.74 -0.59 M21.35 29.41 C27.53 26.91, 27.76 19.6, 50.16 2.69 M21.82 30.29 C28.49 24.71, 33.79 15.83, 47.36 -0.89 M29.42 32.01 C33.99 28.11, 35.98 16.34, 52.77 -0.18 M25.48 33.23 C29.22 26.28, 36.88 18.22, 53.47 -1.59 M32.28 33.41 C36.77 23.5, 49.79 8.61, 61.21 0.34 M29.57 33.16 C41.56 18.46, 49.54 7.23, 56.28 -0.02 M32.94 30.52 C48.02 24.28, 54.17 13.7, 64.77 -4.04 M34.88 32.02 C42.65 23.99, 47.54 16.71, 63.76 1.52 M39.68 33.96 C52.48 20.45, 59.22 11.21, 65.65 2.44 M42.21 32.33 C49.87 22.65, 59.07 14.29, 67.11 1.13 M45.89 33.39 C56.25 18.72, 61.26 7.65, 70.79 -3.02 M45.34 30.48 C59.66 21.64, 68.54 9.52, 75.69 0.61 M51.48 34.92 C60.63 25.45, 63.31 11.18, 77.23 -0.41 M51.45 32.06 C60.45 21.47, 69.84 8.73, 79.42 -1.27 M58.75 34.47 C60.97 24.48, 74.63 17.14, 88.07 2.46 M58.05 33.15 C62.11 26.35, 70.38 18.13, 83.8 -1.41 M61.71 31.13 C75.6 16.01, 87.33 11.4, 89.74 3.33 M61.45 31.64 C69.6 23.62, 76.51 15.17, 88.25 0.93 M66.06 32.55 C72.99 21.5, 86.77 13.28, 91.95 -1.11 M69.66 32.56 C74.75 25.58, 80.31 18.81, 97.12 -0.59 M70.44 28.32 C83.83 19.39, 93.3 6.41, 97.03 2.13 M74.86 31.39 C78.32 24.35, 85.07 16.63, 102.09 1.96 M78.43 35.34 C86.46 16.46, 103.92 4.72, 107.81 -4.29 M78.3 31.32 C87.09 21.97, 94.83 12.99, 105.12 -1.95 M79.81 31.19 C94.76 21.9, 101.3 8.75, 113.02 -2.61 M82.78 30.65 C90.46 19.95, 98.82 10.55, 112.9 0.05 M86.53 31.51 C97.07 22.09, 108.29 7.6, 118.46 -1.93 M89.56 32.03 C98.72 21.96, 108.1 9.89, 115.11 -0.74 M98.01 31.38 C105.1 24.07, 110.45 14.38, 119.69 -0.54 M94.81 29.81 C100.71 23.76, 108.54 12.59, 122.14 -0.52 M97.09 34.66 C107.82 18.16, 120.93 4.21, 126.7 -0.25 M98.52 31.34 C110.92 18.67, 121.64 7.71, 128.83 0.58 M103.32 35.43 C111.78 19.08, 125.62 13.25, 135.09 -0.36 M104.98 32.28 C111.12 23.68, 121.8 13.71, 130.71 0.55 M112.9 31.31 C122.36 15.88, 126.59 6.78, 139.47 -0.22 M111.69 29.92 C119.96 20.43, 125.75 14.49, 136.5 -1.17 M112.04 28.86 C121.29 24.26, 131.48 10.98, 145.33 -1.87 M113.82 30.5 C119.9 25.87, 128.47 17.98, 144.99 1.59 M120.17 33.69 C130.44 20.55, 137.94 11.34, 150.4 3.33 M120.44 31.25 C131.31 21.79, 140.15 6.6, 149.5 1.1 M126.59 28.11 C134.8 22.11, 149.89 5.93, 155.25 1.6 M126.3 31.96 C134.67 22.37, 143.41 10.85, 153.5 2.49 M135.13 32.71 C140.48 27.23, 147.59 17.85, 152.63 10.1 M129.53 32.55 C137.57 22.15, 147.95 11.54, 151.08 7.08 M139.39 28.55 C139.38 27.72, 144.27 20.2, 154.57 17.98 M137.89 33.15 C140.05 28.22, 145.6 23.65, 151.04 13.44 M140.45 30.75 C148.42 29.12, 146.51 23.92, 150.91 16.86 M142.98 31.47 C146.44 27.73, 147.76 22.44, 153.81 20.7 M146.62 31.85 C149.52 28.94, 151.8 27.83, 153.5 27.62 M147.86 30.84 C149.98 29.03, 151.57 27.21, 151.68 26.42" stroke="#a5d8ff" stroke-width="0.5" fill="none"></path><path d="M-3.61 2.29 C35.88 5.39, 75.93 1.26, 151.78 -2.68 M-1.11 -1.39 C48.93 -1.22, 98.38 2.09, 150.77 0.92 M155.09 3.92 C149.19 10.26, 149.84 21.52, 153.65 27.83 M153.85 1.38 C151.47 11.13, 154.13 23.57, 150.59 31.11 M150.94 32.74 C115.78 31, 73.1 30.77, 0.47 30.07 M151.19 31.24 C107.17 30.28, 62.23 30.62, 0.97 32.44 M2.06 28.25 C2.91 21.86, 2.74 15.5, -0.53 1.36 M1.02 32.06 C-0.77 20.35, -0.08 6.13, 1.12 -0.82" stroke="#1971c2" stroke-width="1" fill="none"></path></g><g transform="translate(637.7930658529705 260.92593163933896) rotate(0 67.26547241210938 6.89178287321667)"><text x="67.26547241210938" y="0" font-family="Cascadia, Segoe UI Emoji" font-size="11.486304788694467px" fill="#1971c2" text-anchor="middle" style="white-space: pre;" direction="ltr" dominant-baseline="text-before-edge">promisify all method</text></g><g stroke-linecap="round" transform="translate(607.2173517416422 191.45183926841514) rotate(0 93.30404663085938 54.787933349609375)"><path d="M-0.24 1.56 C39.35 -3.99, 88.67 -1.72, 187.86 1.64 M190.51 0.46 C184.83 38.25, 186.6 69.77, 189.15 112.29 M189.8 108.11 C122.2 110.31, 53.93 110.85, -2.52 105.84 M1.07 111.34 C1.89 83.08, -1.55 60.54, 2.08 -3.43" stroke="#1971c2" stroke-width="1.5" fill="none" stroke-dasharray="8 9"></path></g><g transform="translate(632.5627191732829 213.21814926757725) rotate(359.7911606207079 35.3203125 6.5766770613846575)"><text x="35.3203125" y="0" font-family="Cascadia, Segoe UI Emoji" font-size="10.96112843564114px" fill="#1971c2" text-anchor="middle" style="white-space: pre;" direction="ltr" dominant-baseline="text-before-edge">callbackify</text></g><g stroke-linecap="round"><g transform="translate(462.59882146820473 233.08174500597363) rotate(0 69.21264648437497 2.059187868518279)"><path d="M-2.85 1.27 C33.73 -0.83, 58.05 5.52, 140.82 7.84" stroke="#f08c00" stroke-width="1.5" fill="none" stroke-dasharray="8 9"></path></g><g transform="translate(462.59882146820473 233.08174500597363) rotate(0 69.21264648437497 2.059187868518279)"><path d="M115.53 15.91 C123.76 12.57, 125.96 13.66, 142.01 9.7" stroke="#f08c00" stroke-width="1.5" fill="none"></path></g><g transform="translate(462.59882146820473 233.08174500597363) rotate(0 69.21264648437497 2.059187868518279)"><path d="M116.32 -1.17 C124.52 -0.76, 126.55 4.08, 142.01 9.7" stroke="#f08c00" stroke-width="1.5" fill="none"></path></g></g><mask></mask><g stroke-linecap="round"><g transform="translate(603.4970148275797 262.57493604172276) rotate(0 -72.00054931640622 -3.344951732713895)"><path d="M-0.16 3.13 C-37.78 -3.02, -70.81 -2.8, -142.05 -3.39" stroke="#1971c2" stroke-width="1.5" fill="none" stroke-dasharray="8 9"></path></g><g transform="translate(603.4970148275797 262.57493604172276) rotate(0 -72.00054931640622 -3.344951732713895)"><path d="M-118.56 -10.16 C-125.89 -11.23, -130.89 -8.35, -141.07 -1.75" stroke="#1971c2" stroke-width="1.5" fill="none"></path></g><g transform="translate(603.4970148275797 262.57493604172276) rotate(0 -72.00054931640622 -3.344951732713895)"><path d="M-118.71 6.94 C-125.97 1.81, -130.94 0.63, -141.07 -1.75" stroke="#1971c2" stroke-width="1.5" fill="none"></path></g></g><mask></mask><g stroke-linecap="round" transform="translate(28.89106916066119 336.53984525160695) rotate(0 57.44253929484823 17.394744873046875)"><path d="M-2.53 1.59 C40.71 -1.04, 73.85 -3.93, 116.95 2.65 M116.63 2.42 C117.51 6.42, 116.34 22.11, 116.32 36.44 M111.01 32.48 C78.65 31.84, 36.47 32.63, -3.55 35.17 M-3.87 38.18 C-2.24 23.76, -2.31 22.34, 0.61 -0.98" stroke="#1e1e1e" stroke-width="1.5" fill="none" stroke-dasharray="8 9"></path></g><g transform="translate(35.88450414642739 347.0428072514371) rotate(0 50.44910430908203 6.89178287321667)"><text x="50.44910430908203" y="0" font-family="Cascadia, Segoe UI Emoji" font-size="11.486304788694467px" fill="#1e1e1e" text-anchor="middle" style="white-space: pre;" direction="ltr" dominant-baseline="text-before-edge">rpc method call</text></g><g stroke-linecap="round" transform="translate(431.1186082231612 339.57072904066956) rotate(0 139.90849693644984 17.681060791015625)"><path d="M0.49 -1.55 C67.27 -2.63, 129.01 0.93, 280.84 0.96 M281.53 2.4 C280.57 13.79, 279.28 18.65, 277.95 34.97 M277.44 36.37 C219.3 36.32, 154.69 34.84, 2.31 37.53 M2.92 37.68 C3.22 21.08, -2.6 7.69, -1.15 3.46" stroke="#1e1e1e" stroke-width="1.5" fill="none" stroke-dasharray="8 9"></path></g><g transform="translate(446.58598119720864 350.3600069584685) rotate(0 124.44112396240234 6.89178287321667)"><text x="124.44112396240234" y="0" font-family="Cascadia, Segoe UI Emoji" font-size="11.486304788694467px" fill="#1e1e1e" text-anchor="middle" style="white-space: pre;" direction="ltr" dominant-baseline="text-before-edge">return { status, metadata, response }</text></g><g stroke-linecap="round"><g transform="translate(136.20929510101723 154.91140347739952) rotate(0 26.7298583984375 -0.195281982421875)"><path d="M1.66 1.41 C12.79 0.09, 33.12 2.31, 57.01 -2.88" stroke="#1e1e1e" stroke-width="1.5" fill="none" stroke-dasharray="8 9"></path></g><g transform="translate(136.20929510101723 154.91140347739952) rotate(0 26.7298583984375 -0.195281982421875)"><path d="M35.82 9.67 C40.02 5.79, 48.79 3.46, 58.78 -4.12" stroke="#1e1e1e" stroke-width="1.5" fill="none"></path></g><g transform="translate(136.20929510101723 154.91140347739952) rotate(0 26.7298583984375 -0.195281982421875)"><path d="M33.36 -7.25 C38.25 -6.16, 47.75 -3.5, 58.78 -4.12" stroke="#1e1e1e" stroke-width="1.5" fill="none"></path></g></g><mask></mask><g stroke-linecap="round"><g transform="translate(347.01080877289223 155.07662564536827) rotate(0 23.135589599609375 -0.292938232421875)"><path d="M1.67 -1.59 C18.54 1.03, 35.59 -2.55, 45.81 0.63" stroke="#e03131" stroke-width="1.5" fill="none" stroke-dasharray="8 9"></path></g><g transform="translate(347.01080877289223 155.07662564536827) rotate(0 23.135589599609375 -0.292938232421875)"><path d="M24.91 4.14 C33.07 5.21, 41.42 -0.02, 45.36 1.84" stroke="#e03131" stroke-width="1.5" fill="none"></path></g><g transform="translate(347.01080877289223 155.07662564536827) rotate(0 23.135589599609375 -0.292938232421875)"><path d="M26.91 -11.56 C34.32 -4.7, 41.93 -4.17, 45.36 1.84" stroke="#e03131" stroke-width="1.5" fill="none"></path></g></g><mask></mask><g stroke-linecap="round"><g transform="translate(442.931646175236 174.35445767661827) rotate(0 -15.670928955078125 25.081512451171875)"><path d="M-3.43 -2.83 C-12.65 20.36, -21.23 38.55, -29.01 49.6" stroke="#2f9e44" stroke-width="1.5" fill="none" stroke-dasharray="8 9"></path></g><g transform="translate(442.931646175236 174.35445767661827) rotate(0 -15.670928955078125 25.081512451171875)"><path d="M-25.78 23.68 C-26.62 35.1, -27.1 44, -27.85 49.32" stroke="#2f9e44" stroke-width="1.5" fill="none"></path></g><g transform="translate(442.931646175236 174.35445767661827) rotate(0 -15.670928955078125 25.081512451171875)"><path d="M-11.19 32.6 C-17.22 40.83, -22.88 46.56, -27.85 49.32" stroke="#2f9e44" stroke-width="1.5" fill="none"></path></g></g><mask></mask><g stroke-linecap="round" transform="translate(228.9189774858565 319.7690389754464) rotate(0 71.12637718547322 17.8304443359375)"><path d="M2.75 0.74 C43.66 6.06, 86.38 -0.96, 143.11 2.24 M142.61 2.92 C141.51 9.95, 139.09 22.65, 139.6 37.32 M144.3 32.27 C102.26 34.77, 58.65 37.9, -1.83 35.54 M-2.04 36 C0.2 28.56, 1.48 19.54, -0.65 2.82" stroke="#1e1e1e" stroke-width="1.5" fill="none" stroke-dasharray="8 9"></path></g><g transform="translate(252.95952398285317 330.7077004381672) rotate(0 47.08583068847656 6.89178287321667)"><text x="47.08583068847656" y="0" font-family="Cascadia, Segoe UI Emoji" font-size="11.486304788694467px" fill="#1e1e1e" text-anchor="middle" style="white-space: pre;" direction="ltr" dominant-baseline="text-before-edge">async await do</text></g><g stroke-linecap="round"><g transform="translate(151.89865667328286 342.1288186837811) rotate(0 33.399734497070305 -3.8572403945253484)"><path d="M3.85 -2.77 C24.52 -3.34, 44.13 -7.53, 66.09 -8.77" stroke="#1e1e1e" stroke-width="1.5" fill="none" stroke-dasharray="8 9"></path></g><g transform="translate(151.89865667328286 342.1288186837811) rotate(0 33.399734497070305 -3.8572403945253484)"><path d="M45.39 0.48 C52.1 -1.67, 58.29 -6.04, 65.74 -9.3" stroke="#1e1e1e" stroke-width="1.5" fill="none"></path></g><g transform="translate(151.89865667328286 342.1288186837811) rotate(0 33.399734497070305 -3.8572403945253484)"><path d="M43.85 -16.55 C51.18 -13.01, 57.89 -11.67, 65.74 -9.3" stroke="#1e1e1e" stroke-width="1.5" fill="none"></path></g></g><mask></mask><g stroke-linecap="round"><g transform="translate(313.17578604095183 309.3601339461495) rotate(0 25.836473696083715 -18.53765869140625)"><path d="M-3.99 -1.95 C12 -10.59, 34.16 -24.39, 48.25 -36.3" stroke="#1e1e1e" stroke-width="1.5" fill="none" stroke-dasharray="8 9"></path></g><g transform="translate(313.17578604095183 309.3601339461495) rotate(0 25.836473696083715 -18.53765869140625)"><path d="M32.76 -16.23 C37.1 -21.21, 44.52 -28.85, 46.54 -35.91" stroke="#1e1e1e" stroke-width="1.5" fill="none"></path></g><g transform="translate(313.17578604095183 309.3601339461495) rotate(0 25.836473696083715 -18.53765869140625)"><path d="M22.39 -29.83 C29.83 -30.8, 40.32 -34.4, 46.54 -35.91" stroke="#1e1e1e" stroke-width="1.5" fill="none"></path></g></g><mask></mask><g stroke-linecap="round"><g transform="translate(420.12311346039223 278.489162266462) rotate(0 28.320831298828125 26.33172607421875)"><path d="M-3.58 1.38 C13.73 11.37, 33.76 28.53, 53.43 51.99" stroke="#f08c00" stroke-width="1.5" fill="none" stroke-dasharray="8 9"></path></g><g transform="translate(420.12311346039223 278.489162266462) rotate(0 28.320831298828125 26.33172607421875)"><path d="M29.48 41.11 C36.82 42.14, 45.14 46.65, 51.83 51.65" stroke="#f08c00" stroke-width="1.5" fill="none"></path></g><g transform="translate(420.12311346039223 278.489162266462) rotate(0 28.320831298828125 26.33172607421875)"><path d="M42.11 29.57 C45.85 33.83, 50.68 41.52, 51.83 51.65" stroke="#f08c00" stroke-width="1.5" fill="none"></path></g></g><mask></mask><g stroke-linecap="round" transform="translate(28.029344307145564 233.67876126723195) rotate(0 52.222644885668544 17.237219846886205)"><path d="M3.5 3.44 C20.02 3.47, 47.47 2.6, 103.54 3.56 M103.01 0.36 C103.3 9.02, 107.41 21.06, 107.38 33.96 M104.89 36.69 C71.01 35.96, 30.83 35.5, 0.86 31.72 M-2.12 36 C-2.44 25.08, -0.99 14.2, -2.06 2.04" stroke="#1e1e1e" stroke-width="1.5" fill="none" stroke-dasharray="8 9"></path></g><g transform="translate(46.61925298675942 244.02419824090146) rotate(0 33.63273620605469 6.89178287321667)"><text x="33.63273620605469" y="0" font-family="Cascadia, Segoe UI Emoji" font-size="11.486304788694467px" fill="#1e1e1e" text-anchor="middle" style="white-space: pre;" direction="ltr" dominant-baseline="text-before-edge">get client</text></g><g stroke-linecap="round"><g transform="translate(142.88947088226723 243.86788541099327) rotate(0 125.3541259765625 -35.351409912109375)"><path d="M-0.76 3.02 C72.19 -18.27, 143.11 -41.05, 249.97 -68.12" stroke="#1e1e1e" stroke-width="1.5" fill="none" stroke-dasharray="8 9"></path></g><g transform="translate(142.88947088226723 243.86788541099327) rotate(0 125.3541259765625 -35.351409912109375)"><path d="M229 -51.93 C236.12 -56.74, 241.65 -62.47, 249.51 -66.51" stroke="#1e1e1e" stroke-width="1.5" fill="none"></path></g><g transform="translate(142.88947088226723 243.86788541099327) rotate(0 125.3541259765625 -35.351409912109375)"><path d="M224.6 -68.46 C233.06 -68.56, 239.85 -69.58, 249.51 -66.51" stroke="#1e1e1e" stroke-width="1.5" fill="none"></path></g></g><mask></mask><g stroke-linecap="round"><g transform="translate(74.60880071625161 277.84591275474327) rotate(0 0.929443359375 26.676239013671875)"><path d="M2.06 0 C0.8 19.9, -0.4 31.22, 1.19 51.07" stroke="#1e1e1e" stroke-width="1.5" fill="none" stroke-dasharray="8 9"></path></g><g transform="translate(74.60880071625161 277.84591275474327) rotate(0 0.929443359375 26.676239013671875)"><path d="M-7.42 28 C-5.21 36.83, -3.1 41.36, 0.86 49.92" stroke="#1e1e1e" stroke-width="1.5" fill="none"></path></g><g transform="translate(74.60880071625161 277.84591275474327) rotate(0 0.929443359375 26.676239013671875)"><path d="M9.66 27.2 C6.54 36.26, 3.33 41.04, 0.86 49.92" stroke="#1e1e1e" stroke-width="1.5" fill="none"></path></g></g><mask></mask><g transform="translate(177.30222112640786 206.9833165039056) rotate(344.3494143743462 38.53125 6.5766770613846575)"><text x="38.53125" y="0" font-family="Cascadia, Segoe UI Emoji" font-size="10.96112843564114px" fill="#1e1e1e" text-anchor="middle" style="white-space: pre;" direction="ltr" dominant-baseline="text-before-edge">service name</text></g><g stroke-linecap="round"><g transform="translate(429.27814275726723 378.3515890242745) rotate(0 -139.91339111328125 6.25543212890625)"><path d="M-2.32 -2.18 C-27.79 9.28, -53.51 11.96, -119.83 15.42 M-127.06 17.35 C-179.62 11.7, -227.47 4.26, -276.37 -3.8" stroke="#1e1e1e" stroke-width="1.5" fill="none" stroke-dasharray="8 9"></path></g><g transform="translate(429.27814275726723 378.3515890242745) rotate(0 -139.91339111328125 6.25543212890625)"><path d="M-252.97 -9.6 C-257.82 -5.59, -262.65 -5.16, -274.6 -5.01" stroke="#1e1e1e" stroke-width="1.5" fill="none"></path></g><g transform="translate(429.27814275726723 378.3515890242745) rotate(0 -139.91339111328125 6.25543212890625)"><path d="M-255.69 7.29 C-260.11 7.62, -264.36 4.4, -274.6 -5.01" stroke="#1e1e1e" stroke-width="1.5" fill="none"></path></g></g><mask></mask></svg>