<svg version="1.1" xmlns="http://www.w3.org/2000/svg" viewBox="0 0 828.7007862469563 353.23085749190835" width="828.7007862469563" height="353.23085749190835">
  <!-- svg-source:excalidraw -->
  
  <defs>
    <style class="style-fonts">
      @font-face {
        font-family: "Virgil";
        src: url("https://excalidraw.com/Virgil.woff2");
      }
      @font-face {
        font-family: "Cascadia";
        src: url("https://excalidraw.com/Cascadia.woff2");
      }
      @font-face {
        font-family: "Assistant";
        src: url("https://excalidraw.com/Assistant-Regular.woff2");
      }
    </style>
    
  </defs>
  <rect x="0" y="0" width="828.7007862469563" height="353.23085749190835" fill="#ffffff"></rect><g transform="translate(26.239507503360983 29.297746861188557) rotate(0 70.3125 9.600000000000023)"><text x="70.3125" y="0" font-family="Cascadia, Segoe UI Emoji" font-size="16px" fill="#1e1e1e" text-anchor="middle" style="white-space: pre;" direction="ltr" dominant-baseline="text-before-edge">gRPCity: loader</text></g><g stroke-linecap="round" transform="translate(38.593415962419 145.3784530396929) rotate(0 52.222644885668544 26)"><path d="M-0.94 0.37 C25.77 0.28, 47.43 1.09, 102.72 1.5 M102.33 1.62 C102.51 20.11, 105.89 39.04, 107.74 49.3 M102.38 53.08 C73.1 50.24, 38.99 54.21, 2.8 54.01 M3.92 52.57 C-4.14 38.25, -2.87 17.94, 0.47 -3.86" stroke="#1e1e1e" stroke-width="1.5" fill="none" stroke-dasharray="8 9"></path></g><g transform="translate(43.593415962419 157.5948872932595) rotate(0 43.722557067871094 13.78356574643334)"><text x="0" y="0" font-family="Cascadia, Segoe UI Emoji" font-size="11.486304788694467px" fill="#1e1e1e" text-anchor="start" style="white-space: pre;" direction="ltr" dominant-baseline="text-before-edge">  proto files</text><text x="0" y="13.783565746433359" font-family="Cascadia, Segoe UI Emoji" font-size="11.486304788694467px" fill="#1e1e1e" text-anchor="start" style="white-space: pre;" direction="ltr" dominant-baseline="text-before-edge">  proto dirs</text></g><g stroke-linecap="round" transform="translate(10 10) rotate(0 404.35039312347817 166.61542874595418)"><path d="M0.37 1.02 C168.48 4.85, 337.23 3.85, 809.89 1.49 M809.9 -2.24 C809.08 79.28, 811.18 161.1, 807.72 333.61 M809.19 334.82 C545.75 338.22, 281.36 336.18, -0.16 332.71 M1.98 333.51 C-2.93 214.17, -5.3 92.76, 0.07 1.92" stroke="#1e1e1e" stroke-width="1.5" fill="none" stroke-dasharray="8 9"></path></g><g stroke-linecap="round" transform="translate(228.0056016313643 117.06069546958702) rotate(0 71.45442589152793 18.779754638671875)"><path d="M0 0 C0 0, 0 0, 0 0 M0 0 C0 0, 0 0, 0 0 M0.49 4.88 C1.04 3.86, 4.4 2.32, 3.45 1.09 M-0.49 7.16 C1.59 5.31, 1.78 3.47, 4.7 1.09 M2.06 10.16 C4.8 6.47, 3.71 1.35, 7.95 2.56 M0.33 11.25 C2.64 9.93, 5.16 7.98, 10.09 -0.5 M-4 21.63 C5.75 9.58, 11.98 6, 14.98 -2.83 M1.8 18.15 C5.17 13.39, 9.9 6.88, 16.1 0.36 M0.97 20.61 C10.73 13.21, 12.11 5.07, 17.66 -1.2 M2.04 22.36 C7.46 14.33, 16.85 7.56, 20.59 -0.89 M-1.25 33.89 C12.05 20.91, 13.19 12.46, 25.05 -2.07 M1.12 31.92 C9.99 19.5, 20.02 8.79, 27.75 0.09 M-0.47 34.51 C2.84 29.4, 11.66 19.37, 34.42 3.4 M-1.91 36.28 C11.41 23.81, 21.8 11.1, 30.55 -0.77 M1.06 38.57 C12.24 26.25, 27.92 9.23, 39.38 3.16 M4.61 40.34 C8.16 32.45, 17.88 22.98, 38.35 0.92 M11.45 43.51 C18.36 22.08, 30.83 9.07, 41.09 0.2 M6.82 39.76 C18.99 26.52, 27.23 16.53, 43.19 -0.98 M11.72 40.83 C21.13 26.14, 29.87 15.15, 49.03 -3.42 M14.87 38.66 C22.59 28.07, 29.04 21.17, 47.49 1.87 M17.86 42.11 C28.03 31.19, 37.39 19.75, 52.22 -2.59 M19.94 40.62 C32.31 25.01, 46.69 10, 54.35 1.25 M25.41 37.95 C34.96 22.9, 48.24 13.94, 60.03 2.89 M25.88 40.7 C36.31 24.47, 49.11 8.91, 59.27 1.45 M26.2 38.03 C38.59 29.63, 44.49 15.46, 65.37 -3.77 M28.92 38.41 C38.43 31.31, 46.51 17.67, 64.39 0.2 M35.67 43.11 C49.8 28.27, 56.67 8.58, 69.45 -0.22 M35.98 38.74 C44.3 26.34, 55.24 14.31, 70.29 1.71 M37.52 36.98 C50.88 25.34, 62.88 18.96, 77.07 -1.13 M40.36 41.14 C47.15 31.97, 54.85 22.31, 74.17 1.64 M42.39 39.28 C50.16 31.8, 66.23 18.61, 81.32 -2.04 M43.38 41.3 C55.49 25.38, 70.28 13.76, 77.66 0.15 M51.84 37.66 C60.98 35.13, 67.41 20.86, 82.87 0.53 M49.37 40.34 C62.36 27.64, 70.12 17.75, 85.03 -1.16 M54.43 40.15 C61.26 28.06, 78.75 20.5, 90.69 1.14 M56.74 38.15 C62.66 29.53, 73.78 21.35, 90.97 1.8 M60.24 39.77 C77.4 25.22, 84.12 8.16, 93.32 -2.6 M59.54 39.04 C71.64 27.62, 86.62 11.5, 94.82 0.58 M69.68 38.67 C71.95 31.64, 80.42 24.83, 99.61 -1.99 M67.25 40.82 C75.35 31.55, 83.68 20.28, 100.33 -0.81 M68.74 36.02 C79.25 25.62, 90.72 14.67, 109.97 2.7 M70.98 39.75 C85.73 25.89, 95.86 12.75, 105.9 -0.88 M77.7 36.06 C90.8 21.72, 106.69 6.08, 109.13 2.29 M75.26 39.58 C88.83 25.75, 103.59 12.57, 112.34 0.34 M82.4 36.1 C94.14 30.25, 101.89 13.36, 116.71 -0.61 M80.28 40.5 C91.42 29.32, 100.38 16.79, 116.47 -1 M91.02 42.52 C97.06 28.04, 112.69 12.31, 119.29 -3.33 M85.63 40.2 C98.05 27.12, 113 13.93, 122.11 0.77 M89.27 42.73 C99.14 28.32, 110.44 18.72, 130.4 1.14 M92.56 38.81 C105.65 28.8, 115.48 15.29, 127.17 1.99 M97.19 37.24 C108.5 22.83, 121.81 9.02, 129.14 -3.15 M99.71 39.96 C108.08 25.94, 118.56 12.31, 133.22 -0.5 M100.39 35.6 C118.17 25.66, 130.01 5.75, 140.92 0.93 M105.4 39.71 C114.1 25.8, 128.85 12.13, 137.22 -0.4 M106.77 40.43 C119.43 32.71, 128.98 15.15, 144.72 3.55 M107.35 39.63 C117.29 30.54, 124.38 22.77, 141.79 -0.94 M117.8 43.41 C124.68 26.3, 126.92 19.67, 140.58 6 M112.92 39.73 C121.23 30.77, 132.67 18.79, 141.71 8.16 M121.29 41.3 C121.18 35.41, 130.21 26.76, 144.59 14.54 M118.9 39.49 C128.87 32.51, 136.95 20.59, 141.92 13.55 M126.57 39.88 C127.66 35.65, 134.73 31.81, 141.92 18.54 M125.72 38.87 C127.84 35.03, 131.94 29.87, 141.5 17.43 M133.3 38.04 C135.13 39.48, 136.01 31.52, 142.63 21.19 M129.22 39.3 C134.63 35.7, 136.95 29.97, 144.55 25.18 M134.96 39.6 C135.61 35.78, 137.74 32.68, 144.72 28.79 M135.06 40.18 C137.5 38.3, 138.31 34.47, 143.18 30.55 M140.71 39.42 C141.81 38.43, 142.57 37.86, 142.98 36.17 M140.57 39.52 C141.4 38.27, 142.18 37.33, 143.26 36.92" stroke="#a5d8ff" stroke-width="0.5" fill="none"></path><path d="M3.52 -3.26 C58.95 -1.92, 116.26 1.85, 139.36 1.12 M1.59 -1.48 C34.93 0.27, 67.15 -2.08, 144.47 1.25 M142.84 -0.62 C141.23 11.9, 142.46 17.73, 145.37 34.75 M143.16 -0.39 C143.79 9.32, 145.2 21.03, 143.42 36.07 M140.6 40.53 C89.57 37.84, 37.26 35.3, -0.62 34.61 M142.42 38.04 C104.41 39.04, 62.33 38.19, -1.25 35.95 M1.98 40.05 C-2.09 20.36, 0.17 11.84, 0.96 -3.89 M-1.11 38.84 C1.9 28.43, -1.5 16.14, 1.03 -0.67" stroke="#1971c2" stroke-width="1" fill="none"></path></g><g transform="translate(235.55782873138833 128.9486672350422) rotate(0 63.902198791503906 6.891782873216698)"><text x="63.902198791503906" y="0" font-family="Cascadia, Segoe UI Emoji" font-size="11.486304788694467px" fill="#1971c2" text-anchor="middle" style="white-space: pre;" direction="ltr" dominant-baseline="text-before-edge">load dirs and files</text></g><g stroke-linecap="round" transform="translate(226.07255719777055 196.52044278404014) rotate(0 81.0957833134029 19.193359375)"><path d="M0 0 C0 0, 0 0, 0 0 M0 0 C0 0, 0 0, 0 0 M-1.13 5.77 C2.26 5.65, 1.25 2.92, 3.94 1.71 M-0.44 6.26 C2.36 4.79, 3.73 1.19, 5.12 -0.4 M-1.49 9.41 C5.81 4.86, 5.38 5.83, 8.15 -3.17 M0.85 11.89 C2.08 8.53, 8.39 4.61, 9.54 0.85 M2.29 18.94 C5.37 10.81, 12.7 10.91, 12.22 4.15 M-1.07 18.96 C6.56 12.08, 9.34 5.57, 16.39 1.02 M2.42 24.07 C8.22 18.75, 15.25 9, 19.3 -0.85 M0.38 24.94 C6.21 14.98, 14.13 8.09, 22.34 -0.88 M0.24 28.74 C10.91 18.18, 19.33 7.35, 27.09 -1.9 M1.66 30.39 C7.18 22.39, 11.27 14.35, 26.59 0.26 M-2.46 38.25 C8.2 29.79, 9.41 16.64, 28.58 -0.05 M-0.52 38.68 C6.9 27.6, 17.66 16.02, 32.73 0.34 M-0.57 39.02 C16.69 27.58, 28.44 17.95, 40.21 -2.37 M3.28 39.43 C14.54 27.19, 28.85 10.14, 38.18 1.29 M6.53 40 C22.02 28.32, 26.62 11.97, 45.08 1.97 M8.44 40.86 C17.1 27.36, 27.42 18.66, 42.47 -1.93 M17.48 36.78 C19.57 25.67, 29.91 20.39, 45.76 -2.22 M15.76 36.92 C25.84 26.07, 36.95 12.26, 48.96 1.7 M20.36 36.67 C24.29 27.97, 34.02 17.44, 55.49 -0.23 M19.83 39.37 C29.44 30.66, 34.62 21.92, 53.09 -1.82 M21.89 36.88 C36.6 21.84, 52.83 10.47, 54.96 0.61 M23.39 38.99 C35.84 24.2, 51.33 8.06, 56.18 -0.41 M28.27 36.58 C36.72 27.58, 46.98 21.03, 63.52 2.89 M30.96 40.6 C38.29 28.45, 49.88 15.78, 65.61 -0.98 M36.36 36.87 C51.49 28.51, 61.47 13.97, 72 -0.84 M37.2 38.01 C47.44 26.37, 60.22 13.26, 68.63 1.58 M38.46 36.78 C46.88 30.92, 62.6 16.95, 73.88 -4.12 M40.59 37.12 C51.5 26.54, 66.73 12.55, 72.55 -0.58 M45.58 41.28 C60.28 23.11, 67.68 15.57, 78.09 1.48 M47.71 38.82 C55.15 28.71, 64.29 18.01, 78.57 -1.25 M52.14 41.3 C63.15 24.5, 73.95 7.15, 84.26 2.29 M50.99 38.06 C61.87 27.29, 69.76 19.98, 85.94 -1.24 M59.27 37.68 C68.01 25.57, 76.79 19.09, 87.44 -1.39 M56.95 38.78 C64.08 25.73, 74.34 18.15, 89.78 -1.29 M63.51 37.2 C74.18 26.88, 78.69 18.45, 93.37 -3.35 M59.95 37 C75.28 22.23, 85.89 10.45, 97.3 0.87 M63.46 37.35 C74.83 24.79, 87.29 14.36, 99.23 -3.4 M65.79 40.49 C74.59 32.6, 80.03 20.45, 101.54 1.56 M75.78 42.53 C77.89 27.92, 87.37 18.41, 108.91 0.53 M72.74 40.05 C82.83 25.63, 96.86 13.49, 105.65 -1.89 M79.19 40.34 C91.6 22.53, 100.29 5.39, 113.69 0.5 M76.56 40.79 C87.51 23.92, 101.34 11.17, 112.62 -0.09 M85.13 42.32 C95.04 30.83, 102.67 12.85, 114.93 3.22 M82.12 37.82 C90.37 31.49, 97.51 21.87, 116.86 0.09 M86.48 39.95 C103.6 23.78, 114.94 7.82, 124.01 -1.65 M89.12 39.3 C98.28 26.91, 109.81 15.11, 121.28 -1.15 M96.79 36.63 C102.23 28.9, 106.93 21.91, 130.44 -1.24 M92.37 37.4 C103.72 27.66, 114.7 16.91, 126.27 -1.35 M99.05 35.73 C112.95 23.9, 121.04 13.03, 132.4 1.21 M99.51 39.35 C105.03 27.77, 113.96 19.6, 133.31 -0.01 M100.95 40.51 C117.6 27.47, 128 15.97, 141.5 -1.56 M103.27 38.39 C111.6 27.8, 122.32 20.62, 138.74 0.39 M107.6 42.22 C120.14 25.06, 129.91 12.16, 142.05 3.11 M107.24 40.81 C116 32.17, 121.31 22.43, 141.98 1.42 M112.82 36 C125.39 21.86, 137.81 11.53, 151.79 3.83 M114.09 36.9 C123.96 30.65, 129.92 23.49, 147.3 -0.33 M119.84 40.97 C128.79 30.92, 139.11 14.84, 157.17 -2.89 M119.34 40.02 C134.43 23.74, 147.21 10.4, 152.06 1.76 M124.59 36.14 C137.13 23.8, 149.44 10.78, 158.04 -0.55 M123.6 37.53 C137.13 23.62, 154.25 7.71, 160.47 -0.66 M128.45 36.52 C137.1 31.39, 147.34 18.64, 165 1.52 M130.33 37.84 C139.92 28.35, 147.16 15.76, 161.85 2.36 M137.48 37 C144.47 30.53, 152.88 13.07, 159.38 8.42 M134.08 37.38 C144.88 30.85, 152.25 20.7, 163.71 6.29 M143.16 40.43 C148.19 30.28, 155.88 21.73, 165.17 14.93 M142.24 39.62 C147.57 29.36, 157.92 18.68, 164.58 14.37 M145.68 41.6 C151.75 34.7, 155.2 32.15, 164.48 19.01 M147.3 38.05 C153.8 33.29, 158.47 25.52, 162.51 22.12 M150.79 39.2 C152.13 35.56, 158.22 35.18, 165.03 25.66 M152.43 39.18 C153.97 35.97, 157.12 32.23, 163.84 27.8 M158.49 37.57 C160.1 36.66, 160.24 34.81, 162.4 31.84 M156.95 38.23 C158.94 36.98, 159.42 35.18, 161.95 32.81" stroke="#ffc9c9" stroke-width="0.5" fill="none"></path><path d="M3.1 1.23 C39.49 0.46, 82.76 1, 163.13 0.5 M1.33 -0.49 C58.33 3.78, 116.86 3.76, 160.25 -0.42 M165.74 2.59 C160.25 8.47, 165.25 19.17, 164.66 36.63 M162.48 1.18 C162.92 12.76, 162.36 25.86, 164.13 39.66 M164.74 34.6 C108.35 33.32, 46.19 34.02, 2.56 39.72 M163.87 38.51 C98.29 40.34, 33.61 40.55, 1 37.56 M0.75 37.18 C-1.27 31.26, 1.06 17.1, 0.32 3 M-0.69 36.48 C-1.06 28.71, -1.38 15.46, 0.35 0.27" stroke="#e03131" stroke-width="1" fill="none"></path></g><g transform="translate(236.53959447845858 208.82201928582344) rotate(0 70.62874603271484 6.891782873216698)"><text x="70.62874603271484" y="0" font-family="Cascadia, Segoe UI Emoji" font-size="11.486304788694467px" fill="#e03131" text-anchor="middle" style="white-space: pre;" direction="ltr" dominant-baseline="text-before-edge">prefix pkg definition</text></g><g stroke-linecap="round" transform="translate(495.97758649464555 120.21575528404014) rotate(0 57.61290367473103 18.7490234375)"><path d="M0 0 C0 0, 0 0, 0 0 M0 0 C0 0, 0 0, 0 0 M-1.28 5.66 C0.83 2.98, 4.54 3.3, 4.54 0.15 M-0.62 6.51 C-0.02 4.75, 2.34 4.71, 5.57 -0.38 M-1.47 11.75 C5.18 11.48, 3.42 5.21, 12.09 -1.08 M0.33 13.46 C3.92 8.43, 7.26 4.88, 9.93 -0.7 M-3.7 19.66 C5.6 13.9, 6.32 7.9, 12.17 -0.46 M1.03 18.51 C4.86 13.66, 10.22 6.26, 17.02 1.23 M0.57 26.78 C4.82 20.72, 8.29 14.52, 22.31 -2.66 M1.5 24.47 C6.13 16.29, 9.49 11.09, 22.2 -0.31 M2.09 32.44 C4.59 27.19, 10.87 15.86, 26.48 -2.01 M1.87 28.88 C3.51 24.47, 9.89 15.59, 27.66 1.92 M0.94 33.8 C9.24 21.16, 20.76 9.61, 31.84 -1.53 M-0.75 36.13 C8.37 29.41, 15.96 19.31, 30.44 0.78 M4.74 43.09 C19.45 21.37, 28.55 6.92, 37.86 2.86 M1.36 40.05 C14.55 25.88, 24.12 15.56, 37.96 -0.39 M11.46 41.88 C15.9 32.14, 21.62 18.74, 39.58 2.27 M8.41 39.25 C19.71 25.66, 27.75 14.98, 42.33 1.19 M12.03 41.79 C26.9 30.12, 36.77 16.15, 44.35 -1.13 M14.6 38.77 C25.61 24.98, 40.91 10.11, 48.03 0.81 M20.28 38.51 C28.49 31.52, 37.09 18.81, 51.08 1.92 M17.18 41.15 C27.26 28.77, 36.28 18.8, 54.23 -0.81 M25.64 42.78 C30.7 31.13, 40.29 18.68, 58.99 3.72 M24.05 38.36 C31.56 29.75, 41.84 20.84, 58.47 -0.45 M25.82 40.41 C32.81 34.38, 40.84 22.64, 62.88 -0.36 M29.54 40.87 C41.2 25.08, 50.64 12.66, 62.98 0.56 M38.12 36.27 C46.65 30.91, 56.15 19.33, 69.84 4.11 M36.59 38.6 C43.3 28.7, 51.57 21.15, 70.38 1.36 M36.13 38.3 C53.27 28.33, 57.96 15.61, 70.54 -1.37 M40.58 37.94 C55.28 24.6, 68.15 7.79, 73.94 -1.44 M49.02 37.48 C54.92 23.55, 67.79 9.43, 79.95 3.75 M43.55 38.75 C57.23 25.55, 72.57 8.49, 81.36 -0.75 M50.26 39.87 C61.47 27.57, 72.74 16.72, 84.6 3.09 M49.92 39.37 C58.67 32.65, 64.68 23.69, 84.97 -2.02 M56.22 39.34 C65.75 23.51, 81.82 7.41, 91.35 -0.67 M56.13 38.35 C63.07 27.47, 74.3 20.24, 89.51 1.76 M58.24 37.82 C67.03 25.95, 82.24 15.64, 98.61 2.22 M61.65 39.7 C69.62 28.41, 81.19 14.76, 94.4 -0.93 M66.59 41.56 C74.62 26.5, 90.1 12.86, 97.1 -3.44 M64 38.16 C75.5 27.92, 89.12 14.24, 101.44 0.89 M73.13 41.86 C80.64 30.72, 86.54 22.4, 105.11 2.23 M72.37 40.94 C82.56 25.32, 93.08 14.64, 105.1 1.63 M76.02 39.1 C90.8 29.35, 98.93 16.66, 113.23 2.15 M75.35 40.71 C84.25 30.37, 95.54 18.38, 112.24 0.19 M82.98 38.69 C95.78 22.46, 108.06 11.65, 118.99 3.07 M83.18 40.62 C92.51 28.15, 102.24 17.51, 115.75 1.67 M88.05 43.15 C95.64 29.56, 110 12.27, 116.91 6.59 M87.53 39.28 C93.68 32.22, 101.99 21.48, 115.62 5.45 M90.83 40.02 C103.35 31.39, 103.78 26.02, 112.96 16.27 M91.7 39.76 C99.69 32.41, 106.95 24.61, 116.37 13.3 M97.23 41.92 C103.33 33.19, 114.61 21.44, 115.48 17.06 M98.4 38.63 C101.34 34.99, 104.89 30.48, 116.98 17.71 M106.56 42.39 C111.07 34.64, 108.51 30.04, 119.54 22.36 M103.98 38.92 C105.87 37.12, 110.16 29.85, 114.54 25.9 M106.43 40.34 C110.7 38.9, 113.01 32.91, 117.66 30.35 M109.55 39.39 C111.31 38.23, 112.5 36.49, 117.03 30.16" stroke="#ffec99" stroke-width="0.5" fill="none"></path><path d="M-0.22 1.07 C37.72 -0.94, 65.45 -1.98, 113.84 1.66 M1.16 0.45 C31.24 -3.2, 59.23 0, 114.41 1.5 M112.92 0.36 C117.1 11.56, 112.76 25.88, 114.12 33.92 M113.92 0.13 C116.01 13.75, 116.86 28, 113.82 39.35 M119.18 41.42 C78.21 37.98, 46.09 38.96, 2.21 40.67 M115.79 35.7 C88.53 39.65, 63.08 38.87, 1.46 35.51 M-0.15 38.11 C-1.18 27.46, -0.18 19.54, 2.43 -0.81 M1.21 36.39 C0.71 28.05, -1.09 15.57, 1.46 -1.52" stroke="#f08c00" stroke-width="1" fill="none"></path></g><g transform="translate(519.9577539633219 132.07299584832344) rotate(0 33.63273620605469 6.891782873216698)"><text x="33.63273620605469" y="0" font-family="Cascadia, Segoe UI Emoji" font-size="11.486304788694467px" fill="#f08c00" text-anchor="middle" style="white-space: pre;" direction="ltr" dominant-baseline="text-before-edge">validating</text></g><g stroke-linecap="round" transform="translate(501.3904588090988 195.3961141707589) rotate(0 88.2017403446529 18.11627197265625)"><path d="M0 0 C0 0, 0 0, 0 0 M0 0 C0 0, 0 0, 0 0 M-0.06 5.43 C3.15 4.59, 2.25 0.86, 4.79 -0.01 M-0.09 6.79 C2.09 3.83, 4.38 2.32, 4.52 0.64 M-0.41 13.57 C3.1 11.14, 3.66 3.85, 11.29 -0.78 M0.7 13.13 C4.58 8.13, 5.79 4.39, 11.45 0.76 M0.06 17.39 C7.42 16.6, 11.43 7.08, 16.52 3.49 M-0.87 18.89 C3.23 13.24, 6.41 10.45, 16 -0.38 M-2.77 23.29 C2.71 19.11, 14.13 10.23, 19.3 0.36 M2.03 22.69 C9.93 15.23, 16.95 5.68, 20.17 0.11 M2.43 31.72 C7.82 25.18, 18.69 10.62, 25.7 2.27 M-1 30.14 C5.91 20.21, 15.66 13.58, 26.87 -1.03 M-1.29 37.79 C8.16 25.59, 18.46 12.5, 35.2 2.89 M0.12 38.05 C11.42 22.04, 25.08 9.4, 32.48 -0.77 M2.67 33.65 C13.65 30.54, 16.78 22.17, 33.58 0.97 M5.14 37.63 C12.76 25.17, 20.67 16.33, 38.77 -0.62 M11.96 38.58 C21.14 17.76, 36.62 10.54, 44.19 -3.69 M9.96 37.67 C21.83 24.82, 29.05 14.12, 43.19 -1.63 M13.8 32.89 C26.41 29.58, 35.16 17.85, 48.7 -2.21 M14.14 35.37 C21.28 28.9, 30.39 20.16, 46.57 0.62 M23 39.93 C31.62 25.49, 44.78 16.64, 54.33 3.34 M21.9 35.4 C30.88 22.71, 40.56 11.63, 51.4 1.03 M26.65 38.16 C38.83 28.8, 44.08 19.37, 54.61 -0.05 M25.87 34.92 C34.04 28.86, 46.35 18.71, 57.6 1.97 M35.4 37.05 C37.73 28.52, 46.03 20.63, 64.65 -0.33 M33.31 36.53 C42.52 23.07, 54.37 14.76, 64.72 -1.74 M36.24 37.18 C49.02 19.69, 63.01 11.83, 65.86 -0.36 M37.91 37.31 C49.33 22.16, 61.23 11.02, 67.72 -1.8 M43.05 34.9 C57.51 26.78, 64.42 7.32, 73.21 2.02 M41.37 38.57 C50.31 27.88, 58.26 15.65, 75.23 0.56 M44.64 34.64 C56.55 28.9, 62.75 20.34, 79.99 -1.94 M48.38 35.06 C59.83 21.04, 69.37 8.15, 81.28 -0.42 M56.8 37.16 C58.05 28.04, 71.78 22.38, 85.05 -3.92 M53.74 36.29 C59.41 29.29, 68.54 18.95, 83.56 -2.04 M60.88 36.26 C67.21 22.02, 78.34 11.06, 93.56 -2.57 M59.88 36.19 C70.63 23.01, 82.99 8.1, 91.14 -0.11 M60.54 34.8 C68.93 22.07, 79.75 15.17, 96.23 0.55 M64.63 38.22 C72.77 24.31, 79.18 14.3, 94.79 -0.01 M69.01 32.73 C77.59 26.84, 95.18 8.4, 102.1 0.94 M67.5 36.23 C74.94 26.89, 83.38 18.34, 102.65 0.4 M77.82 35.03 C79.99 31.42, 91.23 20.65, 109.78 3.14 M73.38 35.62 C83.31 26.73, 90.65 20.71, 106.53 -0.33 M76.08 39.75 C89.1 30.57, 94.57 20.06, 108.17 -3.21 M78.84 38.21 C93.5 20.86, 105.44 10.85, 109.65 1.88 M83.19 38.03 C95.7 19.51, 111.51 7.81, 119.09 1.31 M83.85 35.29 C93.13 24.5, 104.47 13.73, 116.22 2.28 M88.13 34.04 C104.06 24.39, 112.13 10.31, 121.31 -1.8 M90.02 36.63 C101.38 24.1, 116.44 6.51, 122.5 0.61 M98.2 37.02 C101.45 30.19, 110.74 13.83, 126.54 -0.74 M96.38 35.48 C106.57 24.06, 119.35 10.39, 127.79 2.33 M102.22 33.29 C116.04 19.89, 124.62 8.66, 134.07 3.35 M101.63 37.53 C108.69 25.87, 118.48 14.71, 132.05 0.35 M103.38 34.21 C118.99 20.19, 129.01 7.35, 139.5 -3.57 M107.84 37.97 C113 28.4, 124.11 18.39, 135.66 0.09 M114.39 32.2 C121.27 20.09, 134.51 11.9, 145.99 3.46 M110.77 34.44 C124.22 24.04, 136.15 7.82, 141.65 0.4 M118.3 32.78 C121.04 25.52, 133.07 24.18, 149.03 0.53 M115.56 36.04 C127.85 21.12, 141.6 8.35, 147.46 -1.4 M119.69 34.49 C129.01 22.48, 142.14 10.37, 155.63 -1.27 M123.04 36.36 C131.08 27.47, 134.42 23.14, 155.16 -0.49 M129.49 36.95 C130.89 27.87, 142.28 23.93, 161.16 -3.73 M125.41 38.46 C136.57 26.13, 142.7 17.02, 159.26 0.38 M136.16 36.85 C141.97 24.46, 150.04 17.46, 160.53 -1.64 M132.55 35.84 C143.41 25.39, 151.94 14.99, 164.92 -0.04 M138.5 35.92 C144.92 23.88, 154.94 17.98, 172.96 1.34 M139.73 37.5 C147.97 24.71, 160.37 11.25, 167.69 -0.55 M140.85 36.98 C151.9 20.87, 166.61 11.04, 173.23 -3.44 M141.9 36.88 C149.72 28.56, 159.76 17.1, 175.79 -0.48 M145.88 35.89 C155.74 27.03, 165.53 18.66, 177.18 6.23 M149.38 36.93 C159.63 26.71, 169.16 13.65, 178.56 5.1 M157.15 34.35 C159.77 29.58, 169.11 17.6, 180.76 6.34 M153.52 35.78 C160.25 28.06, 169.83 14.14, 176.59 9.29 M159.17 36.07 C164.88 33.41, 168.2 29.11, 172.93 19.17 M157.7 36.03 C165.14 29.93, 168.3 24.27, 177.53 14.9 M161.42 35.14 C166.15 33.01, 173.55 27.98, 176.22 24.35 M164.35 38.04 C167.18 33.33, 170.55 28.57, 175.73 22.47 M169.33 36.51 C170.6 36.08, 174.56 34.65, 177.28 28.32 M169.13 37.02 C172.07 34.12, 175.64 30.96, 177.53 28.59 M174.85 36.11 C175.63 36.12, 175.38 35.61, 177.03 35 M174.66 36.42 C175.1 35.96, 175.46 35.9, 176.79 34.34" stroke="#ffc9c9" stroke-width="0.5" fill="none"></path><path d="M0.42 -1.78 C51.43 -3.32, 93.81 -1.44, 172.56 -0.01 M1.86 -1.03 C53.33 3.47, 105.72 3.12, 174.69 -0.35 M174.17 3.67 C176.58 6.74, 180.49 23.59, 178.69 37.2 M176.3 -0.38 C176.6 9.82, 175.54 22.24, 174.7 37.11 M176.97 40.23 C137.74 36.07, 99.34 33.6, 2.75 33.57 M178.29 34.65 C133.2 34.8, 86.76 33.43, 0.82 36.98 M0.82 32.59 C-2.09 24.12, 0.95 16.66, 0.11 0.71 M1.46 35.15 C-1.47 22.25, 0.64 11.99, -0.31 -1.89" stroke="#e03131" stroke-width="1" fill="none"></path></g><g transform="translate(522.3267267416423 206.62060327019844) rotate(0 67.26547241210938 6.891782873216698)"><text x="67.26547241210938" y="0" font-family="Cascadia, Segoe UI Emoji" font-size="11.486304788694467px" fill="#e03131" text-anchor="middle" style="white-space: pre;" direction="ltr" dominant-baseline="text-before-edge">cache pkg definition</text></g><g stroke-linecap="round" transform="translate(169.08403180714555 280.39364224693077) rotate(0 85.94987877238731 18.823486328125)"><path d="M2.98 0.64 C42.02 0.59, 93.57 -1.26, 174.21 -0.86 M168.08 1.84 C172.24 11.65, 173.23 18.54, 170.4 38.96 M170.95 35.57 C117.23 33.99, 67.34 34.35, 3.22 36.38 M1.18 40.86 C3.8 27.46, 4.12 12.35, -0.85 0.22" stroke="#1e1e1e" stroke-width="1.5" fill="none" stroke-dasharray="8 9"></path></g><g transform="translate(191.13171178802895 292.32534570183907) rotate(0 63.9021987915039 6.89178287321667)"><text x="63.902198791503906" y="0" font-family="Cascadia, Segoe UI Emoji" font-size="11.486304788694467px" fill="#1e1e1e" text-anchor="middle" style="white-space: pre;" direction="ltr" dominant-baseline="text-before-edge">this._packagePrefix</text></g><g stroke-linecap="round" transform="translate(457.3812425005049 276.8728292586495) rotate(0 85.94987877238734 18.823486328125)"><path d="M2.58 1.36 C58.72 -1.11, 116.62 -5.42, 172.81 -3.79 M174.14 3.12 C172.08 16.99, 175.02 26.68, 170.06 37.35 M171.22 35.77 C124.14 37.62, 80.9 32.98, 0.97 41.32 M0.27 40.54 C-1.26 24.53, -3.29 8.3, 2.97 -3" stroke="#1e1e1e" stroke-width="1.5" fill="none" stroke-dasharray="8 9"></path></g><g transform="translate(506.3351114462321 288.8045327135578) rotate(0 36.996009826660156 6.89178287321667)"><text x="36.996009826660156" y="0" font-family="Cascadia, Segoe UI Emoji" font-size="11.486304788694467px" fill="#1e1e1e" text-anchor="middle" style="white-space: pre;" direction="ltr" dominant-baseline="text-before-edge">this._types</text></g><g stroke-linecap="round"><g transform="translate(91.21945745453286 208.12075406333702) rotate(0 36.46270751953125 32.993621826171875)"><path d="M0.69 2.53 C20.29 23.12, 45.71 47.97, 71.9 69.71" stroke="#1e1e1e" stroke-width="1.5" fill="none" stroke-dasharray="8 9"></path></g><g transform="translate(91.21945745453286 208.12075406333702) rotate(0 36.46270751953125 32.993621826171875)"><path d="M48.91 62.01 C54.36 64.02, 62.76 68.57, 71.38 71.58" stroke="#1e1e1e" stroke-width="1.5" fill="none"></path></g><g transform="translate(91.21945745453286 208.12075406333702) rotate(0 36.46270751953125 32.993621826171875)"><path d="M60.13 49.11 C61.92 55.25, 66.65 64.03, 71.38 71.58" stroke="#1e1e1e" stroke-width="1.5" fill="none"></path></g></g><mask></mask><g stroke-linecap="round"><g transform="translate(346.6192682455485 301.78561002036827) rotate(0 53.159912109375 -1.705963134765625)"><path d="M3.76 0.25 C39.18 -2.02, 75.32 -1.59, 102.52 -3.51" stroke="#1e1e1e" stroke-width="1.5" fill="none" stroke-dasharray="8 9"></path></g><g transform="translate(346.6192682455485 301.78561002036827) rotate(0 53.159912109375 -1.705963134765625)"><path d="M81.32 6.24 C88.82 3.14, 96.67 0.66, 100.62 -3.56" stroke="#1e1e1e" stroke-width="1.5" fill="none"></path></g><g transform="translate(346.6192682455485 301.78561002036827) rotate(0 53.159912109375 -1.705963134765625)"><path d="M80.53 -10.84 C88.29 -8.15, 96.41 -4.82, 100.62 -3.56" stroke="#1e1e1e" stroke-width="1.5" fill="none"></path></g></g><mask></mask><g stroke-linecap="round"><g transform="translate(180.21762639984536 101.47689420005577) rotate(0 1.54022216796875 62.404449462890625)"><path d="M1.09 2.7 C2.84 28.41, 3.91 52.17, 4.14 127.45" stroke="#1e1e1e" stroke-width="1.5" fill="none" stroke-dasharray="8 9"></path></g></g><mask></mask><g stroke-linecap="round"><g transform="translate(431.44232732757973 103.50493985435264) rotate(0 5.41351318359375 66.19468688964844)"><path d="M-1.42 -2.1 C7.68 41.29, 7.79 79.44, 7.1 134.15" stroke="#1e1e1e" stroke-width="1.5" fill="none" stroke-dasharray="8 9"></path></g></g><mask></mask></svg>