<svg version="1.1" xmlns="http://www.w3.org/2000/svg" viewBox="0 0 828.7007862469563 433.6640850309709" width="828.7007862469563" height="433.6640850309709">
  <!-- svg-source:excalidraw -->
  
  <defs>
    <style class="style-fonts">
      @font-face {
        font-family: "Virgil";
        src: url("https://excalidraw.com/Virgil.woff2");
      }
      @font-face {
        font-family: "Cascadia";
        src: url("https://excalidraw.com/Cascadia.woff2");
      }
      @font-face {
        font-family: "Assistant";
        src: url("https://excalidraw.com/Assistant-Regular.woff2");
      }
    </style>
    
  </defs>
  <rect x="0" y="0" width="828.7007862469563" height="433.6640850309709" fill="#ffffff"></rect><g transform="translate(26.239507503360983 29.297746861188557) rotate(0 70.3125 9.600000000000023)"><text x="70.3125" y="0" font-family="Cascadia, Segoe UI Emoji" font-size="16px" fill="#1e1e1e" text-anchor="middle" style="white-space: pre;" direction="ltr" dominant-baseline="text-before-edge">gRPCity: server</text></g><g stroke-linecap="round" transform="translate(30.6975419389815 135.9253280396929) rotate(0 52.222644885668544 17.237219846886205)"><path d="M-0.94 0.37 C25.77 0.28, 47.43 1.09, 102.72 1.5 M102.33 1.62 C102.38 13.89, 105.76 26.6, 107.74 31.77 M102.38 35.56 C73.1 32.72, 38.99 36.68, 2.8 36.48 M3.92 35.05 C-3.9 26.4, -2.63 11.77, 0.47 -3.86" stroke="#1e1e1e" stroke-width="1.5" fill="none" stroke-dasharray="8 9"></path></g><g transform="translate(45.92417699798989 146.2707650133624) rotate(0 36.996009826660156 6.891782873216698)"><text x="36.996009826660156" y="0" font-family="Cascadia, Segoe UI Emoji" font-size="11.486304788694467px" fill="#1e1e1e" text-anchor="middle" style="white-space: pre;" direction="ltr" dominant-baseline="text-before-edge">init server</text></g><g stroke-linecap="round" transform="translate(199.85312055226274 137.5412032838335) rotate(0 69.7392311893795 16.90735534493308)"><path d="M-3.72 -3.69 C40.5 -0.35, 75.92 3.27, 142.26 0.53 M0.02 0.58 C30.06 1.51, 63.08 -0.08, 140.75 -1.48 M143.26 3.51 C137.08 15.31, 143.63 23.99, 140.97 33.47 M139.3 -1.26 C139.06 10.63, 141.71 22.19, 138.96 34.47 M141.45 34.44 C109.56 32.29, 81.34 34.48, -0.68 34.44 M137.9 32.67 C109.17 35.89, 79.95 37.53, 0.92 35.36 M-2.35 33.27 C1.94 23.98, -0.69 17.39, -0.38 2.67 M1.64 35.39 C-1.98 25.82, -0.35 20.23, 0.29 -0.57" stroke="#1e1e1e" stroke-width="1" fill="none"></path></g><g transform="translate(222.50652105316567 147.5567757555499) rotate(0 47.08583068847656 6.891782873216698)"><text x="47.08583068847656" y="0" font-family="Cascadia, Segoe UI Emoji" font-size="11.486304788694467px" fill="#1e1e1e" text-anchor="middle" style="white-space: pre;" direction="ltr" dominant-baseline="text-before-edge">grpcity loader</text></g><g stroke-linecap="round" transform="translate(405.55893109913774 136.33993985609925) rotate(0 58.37576683391072 16.80255798165183)"><path d="M0 0 C0 0, 0 0, 0 0 M0 0 C0 0, 0 0, 0 0 M0.68 5.77 C0.03 5.77, 1.95 2.35, 6.4 0.85 M-0.76 6.53 C1.15 4.37, 2.85 3.3, 4.88 0.53 M2.27 12.62 C4.61 7.81, 6.37 1.09, 7.82 -1.43 M-1.03 10.44 C5.1 9.16, 6.03 2.68, 11.2 -1.33 M-2.89 19.73 C5.29 9.38, 14.69 7.31, 17.97 0.87 M-1.5 18.32 C5.26 15.75, 6.72 13.02, 15.77 -0.75 M-0.77 25.19 C3.96 13.63, 11.11 8.78, 20.32 3.91 M1.89 22.22 C4.32 18.7, 12.16 9.43, 22.61 0.05 M-0.3 31.16 C4.71 23.51, 16.45 13.1, 28.08 -0.12 M1.63 29.27 C7.55 22.81, 10.85 16.79, 25.09 -0.67 M-0.06 36.49 C15.42 21.67, 25.48 9.82, 30.51 -3.93 M1.85 33.22 C10.07 22.56, 22.7 10.73, 31.65 -0.6 M3.78 36.55 C22.81 23.8, 27.41 7.67, 38.26 -0.86 M7.44 34.82 C14.11 25.9, 21.54 19.13, 35.94 1.96 M13.49 33.12 C21.27 24.86, 31.1 8.44, 40.06 -0.24 M12.08 34.77 C23.44 22.55, 34.24 11.25, 43.46 1.81 M19.04 34.21 C29.27 19.57, 38.18 6.53, 48.84 -2.78 M17.39 34.56 C29.8 19.88, 39.06 9.31, 45.57 -1.47 M20.26 30.72 C32.76 24.98, 34.32 21.61, 50.3 0.08 M23.03 36.22 C31.36 21.84, 41.24 12.95, 54.08 -1.85 M30.77 37.78 C32.55 27.71, 41.97 20.6, 57.11 2.76 M28.6 32.74 C36.75 24.41, 45.39 15.77, 59.29 0.88 M36.14 31.43 C47.21 23.74, 54.58 13.9, 65.47 2.19 M31.71 35.79 C41.98 24.98, 50.46 16.71, 64.58 -1.23 M38.47 37.18 C48.52 22.82, 58.15 13.33, 69.29 -1.55 M38.52 33.34 C48.83 22.57, 58.37 14.5, 68.44 -0.63 M46.58 34.7 C51.34 17.81, 69.92 10.17, 72.77 3.34 M45.83 33.44 C53.37 24.53, 60.13 12.87, 75.07 -0.53 M48.58 30.39 C59.97 22.59, 72.44 11.75, 80.54 1.07 M51.62 33.8 C56.68 23.14, 69.05 13.44, 80.39 0.78 M58.01 34.04 C65.85 17.71, 74.91 9.83, 86.31 -3.18 M53.13 33.59 C65.95 24.28, 77.48 9.6, 86.66 -0.44 M62.48 35.45 C72.99 26.59, 75.74 17.15, 86.96 1.43 M61.41 35.03 C70.46 20.87, 79.12 10.27, 88.52 -1.62 M61.77 37.03 C69.14 26.97, 81.42 17.55, 95.18 -0.03 M67.39 35.14 C78.2 21, 87.5 12.28, 95.53 -0.23 M72.48 30.46 C75.47 28.71, 85.73 19.7, 97.59 0.42 M72.42 35.4 C76.92 24.57, 87.14 17.39, 102.27 1.91 M78.14 37.31 C81.58 27.33, 85.82 16.94, 107.37 2.22 M74.4 33.45 C84.24 22.04, 97.54 13.54, 106.87 0.32 M81.84 37.61 C90.77 22.78, 101.63 15.43, 114.39 -3.01 M82.23 32.76 C93.51 23.86, 103.39 8.93, 113.1 -0.43 M88.35 34.57 C98.42 21.51, 110.68 9.06, 113.17 1.82 M86 34.35 C96.16 22.41, 108.4 10.15, 116.25 -0.34 M92.75 31.11 C94.02 31.11, 98.59 22.14, 115.68 5.45 M91.44 34.43 C100.97 23.47, 108.26 14.31, 115.91 5.31 M94.55 30.57 C103.7 26.13, 107.61 15.97, 114.57 9.34 M98.06 36.13 C104 27.8, 107.89 21.98, 117.05 12.01 M102.33 37.27 C103.34 29.24, 108.68 27.16, 116 18.36 M101.67 35.17 C106.25 30.55, 110.68 25.35, 118.9 15.8 M107.89 33.49 C109.28 33.06, 114.66 28.04, 118.43 25.92 M108.33 35.17 C109.63 31.08, 111.61 29.35, 116.44 24.22 M113.95 34.04 C115.98 32.7, 116.25 31.49, 117.72 29.57 M113.64 34.29 C114.38 32.76, 115.56 31.41, 117.57 28.9" stroke="#b2f2bb" stroke-width="0.5" fill="none"></path><path d="M-3.09 3.12 C38.31 -3.18, 76.14 2.01, 120.06 -1.01 M-0.78 -1.6 C32.19 1.2, 59.33 -1.79, 118.24 -1.19 M117.48 -0.71 C120.69 14.6, 117.73 21.1, 114.49 32.47 M115.51 0.1 C114.49 8.82, 117.42 17.76, 115.9 32.53 M119.91 36.67 C72.89 34.41, 37.19 32.68, -1.63 33.1 M117.3 34.08 C85.49 34.08, 54.69 32.32, -0.59 33.48 M-1.95 36.92 C2.51 22.76, -1.42 4.94, 0.94 2.87 M0.59 34.27 C-1.98 22.03, 1.95 6.68, 0.64 -1.62" stroke="#2f9e44" stroke-width="1" fill="none"></path></g><g transform="translate(413.48559362396645 146.25071496453438) rotate(0 50.44910430908203 6.891782873216698)"><text x="50.44910430908203" y="0" font-family="Cascadia, Segoe UI Emoji" font-size="11.486304788694467px" fill="#2f9e44" text-anchor="middle" style="white-space: pre;" direction="ltr" dominant-baseline="text-before-edge">server instance</text></g><g stroke-linecap="round"><g transform="translate(111.38830858662995 127.61326199790733) rotate(0 54.573788263808744 -5.217620849609375)"><path d="M2.16 3.63 C8.41 -1.33, 22.25 -3.62, 50.08 -7.86 M51.08 -13.25 C68.43 -8.9, 85.45 -5.18, 111.46 0.46" stroke="#1e1e1e" stroke-width="1.5" fill="none" stroke-dasharray="8 9"></path></g><g transform="translate(111.38830858662995 127.61326199790733) rotate(0 54.573788263808744 -5.217620849609375)"><path d="M87.76 5.63 C90.74 3.35, 97.5 2.59, 110.94 1.74" stroke="#1e1e1e" stroke-width="1.5" fill="none"></path></g><g transform="translate(111.38830858662995 127.61326199790733) rotate(0 54.573788263808744 -5.217620849609375)"><path d="M91.4 -11.08 C93.65 -9.96, 99.67 -7.31, 110.94 1.74" stroke="#1e1e1e" stroke-width="1.5" fill="none"></path></g></g><mask></mask><g transform="translate(114.75961111879396 91.77599569745894) rotate(359.7911606207079 41.7421875 6.5766770613846575)"><text x="41.7421875" y="0" font-family="Cascadia, Segoe UI Emoji" font-size="10.96112843564114px" fill="#1e1e1e" text-anchor="middle" style="white-space: pre;" direction="ltr" dominant-baseline="text-before-edge">proto binding</text></g><g stroke-linecap="round"><g transform="translate(121.91715964963291 178.40946561118858) rotate(0 139.17255698350465 14.38970947265625)"><path d="M3.11 -2 C38.37 6.74, 72.01 17.36, 131.68 33.07 M138.06 29.29 C184.14 24.34, 231.31 12.58, 279.88 -4.18" stroke="#2f9e44" stroke-width="1.5" fill="none" stroke-dasharray="8 9"></path></g><g transform="translate(121.91715964963291 178.40946561118858) rotate(0 139.17255698350465 14.38970947265625)"><path d="M29.58 -5.05 C23.15 -4.54, 15.67 -2.51, 1.29 -0.02" stroke="#2f9e44" stroke-width="1.5" fill="none"></path></g><g transform="translate(121.91715964963291 178.40946561118858) rotate(0 139.17255698350465 14.38970947265625)"><path d="M25.07 11.45 C19.96 7.64, 13.67 5.34, 1.29 -0.02" stroke="#2f9e44" stroke-width="1.5" fill="none"></path></g></g><mask></mask><g transform="translate(222.24487859711098 216.81295212402267) rotate(359.7911606207079 38.53125 6.5766770613846575)"><text x="38.53125" y="0" font-family="Cascadia, Segoe UI Emoji" font-size="10.96112843564114px" fill="#2f9e44" text-anchor="middle" style="white-space: pre;" direction="ltr" dominant-baseline="text-before-edge">addr binding</text></g><g stroke-linecap="round" transform="translate(10 10) rotate(0 404.35039312347817 206.83204251548545)"><path d="M0.37 1.02 C168.48 4.85, 337.23 3.85, 809.89 1.49 M809.67 -1.8 C809.02 98.38, 810.71 198.79, 807.91 413.97 M809.19 415.25 C545.75 418.66, 281.36 416.61, -0.16 413.14 M1.59 413.88 C-3.14 265.17, -5.04 114.8, 0.06 1.54" stroke="#1e1e1e" stroke-width="1.5" fill="none" stroke-dasharray="8 9"></path></g><g stroke-linecap="round" transform="translate(399.6788651811691 227.04481961684144) rotate(0 74.75934227336384 18.328125)"><path d="M0 0 C0 0, 0 0, 0 0 M0 0 C0 0, 0 0, 0 0 M-0.77 7.59 C2.03 5.91, 3.02 4.82, 3.67 -0.35 M-0.47 6.33 C0.79 4.22, 1.78 4.27, 5.56 1.08 M-0.95 14.06 C4.72 7.98, 10.56 1.27, 10.25 -3.06 M0.82 13.14 C3.36 7.76, 4.4 7, 12.17 0.25 M-1.57 19.92 C3.05 13.62, 11.66 6.48, 13.76 -1.61 M-0.48 18.42 C6.33 13.11, 12.6 3.75, 14.92 -0.41 M4.02 20.84 C8.96 14.22, 11.13 11.39, 24.02 2.71 M1.6 25.62 C7.34 17.01, 13.2 8.8, 21.21 1.41 M-2.95 26.78 C3.95 21.73, 11.12 12.58, 22.95 3.16 M0.29 28.77 C4.24 26.29, 11.61 19.22, 26.55 -1.57 M-2.88 39.37 C10.45 27, 13.51 16.79, 30.98 3.5 M1.12 35.06 C8.67 30.25, 13.61 20.08, 30.39 -0.21 M5.19 39.03 C16.25 27.39, 26.46 10.84, 40.27 -1.28 M2.48 39.67 C16.35 23.79, 29.29 7.23, 36.96 -1.53 M7.68 39.9 C24.71 22.69, 31.54 8.43, 42.61 -3.67 M6.7 38.6 C20.53 27.89, 30.89 13.44, 44.23 0.53 M16.39 35.69 C27.8 31.41, 35.24 19.62, 50.79 -2.19 M13.1 38.5 C21.4 30.38, 28.17 21.27, 48.31 0.52 M22.32 38.74 C34.58 24.5, 49.85 6.26, 54.5 -4.08 M18.88 37.71 C31.56 23.98, 42.29 12.4, 52.39 -1.29 M27.12 35.76 C34.78 33.45, 39.55 21.25, 57.65 4.13 M23.55 37.79 C30.3 33.38, 36.97 25.18, 59.2 0.45 M26.95 37.1 C44.32 29.11, 47.93 13.17, 66.32 -2.06 M27.93 38.89 C40.48 27.08, 50.13 11.05, 63.94 1.44 M37.82 38.17 C44.02 22.51, 57.01 14.63, 70.05 0.31 M36.54 41.02 C47.49 23.24, 60.28 10.43, 70.71 -0.88 M39.52 36.84 C52.06 30.92, 58.51 17.52, 77.8 -1.02 M40.56 39.39 C49.47 31.91, 55.11 23.06, 73.45 -2.12 M48.95 42.76 C51.76 26.74, 60.39 18.57, 83.26 -0.1 M44.26 37.72 C56.58 24.79, 69.22 9.5, 80.39 0.45 M48.04 38.79 C63.59 21.38, 75.67 11.72, 84.74 0.57 M51.94 39.51 C58.26 30.61, 69.07 20.63, 86.96 1.19 M57.08 38.32 C68.37 24.28, 71.88 19.36, 90.59 3.42 M54.37 37.43 C64.02 29.74, 71.93 17.06, 88.26 1.39 M62.6 38.69 C71.05 25.37, 79.33 16.32, 99 -2.82 M59.71 40.56 C73.71 23.17, 87.51 8.57, 95.96 -1.4 M66.79 38.56 C72.78 29.73, 87.93 20.45, 103.44 2.3 M67.99 39.75 C73.06 31.21, 82.33 24.16, 98.8 1.92 M71.32 39.25 C79.63 25.78, 98.21 17.61, 104.49 -3.76 M73.99 38.89 C86.58 25.4, 97.75 8.33, 107.44 1.33 M78.76 38.15 C81.24 34.07, 91.99 18.93, 115.25 -1.08 M77.72 40.28 C83.95 28.75, 93.01 19.11, 110.97 -0.98 M83.76 38.83 C96.89 30.01, 101.22 12.83, 116.54 -1.18 M82.69 40.64 C91.74 28.62, 97.4 21.93, 117.16 -0.58 M85.73 40.68 C102.2 23.84, 109.85 12.58, 121.54 2.6 M89.62 40.69 C101.53 21.96, 114.24 9.23, 120.19 0.75 M89.48 40.5 C104.6 27.41, 117.64 12.61, 124.5 0.72 M92.18 40.71 C103.99 24.83, 116.4 9.33, 126.35 0.66 M100.48 38.68 C111.37 25.52, 127.79 7.92, 131.89 1.59 M97.23 38.63 C111.3 26.19, 123.69 8.28, 132.35 0.18 M106.16 36.52 C110.37 31.17, 114.01 22.12, 139.83 0.91 M105.31 41.3 C117.24 24.93, 127.86 9.72, 135.73 1.14 M111.87 41.63 C121.51 30.5, 131.29 13.51, 141.93 -0.92 M107.55 37.83 C120.97 26.29, 132.03 14.79, 141.82 1.4 M114.19 41.32 C129.22 20.85, 140.11 12.66, 146.69 2.55 M114.09 38.89 C121.55 28.71, 129.45 20.43, 150.15 0.22 M120.82 39.94 C124.49 29.73, 138.13 23.27, 151.39 3.46 M119.04 38.02 C127.65 28.97, 136.37 20.58, 151.45 3.81 M124 40.29 C131.18 30.32, 138.57 22.59, 154.1 10.03 M124.95 38.97 C134.11 29.53, 140.73 20.12, 152.7 7.61 M128.32 40.96 C133.6 35.1, 141.7 26.39, 149.47 11.35 M131.66 40.98 C133.63 34.24, 139.2 26.8, 151.99 15.11 M132.13 41.74 C138.75 32.66, 145.85 30.84, 154.28 19.86 M136.82 38.1 C141.04 33.4, 142.12 31.36, 153.1 20.2 M139.64 40.67 C143.6 38.51, 145.64 35.62, 154.18 28.52 M140.82 40.29 C143.81 35.36, 149.78 30.73, 151.78 26.63 M147.38 40.09 C146.82 36.57, 150.5 36.58, 153.21 31.55 M146.46 38.7 C148.01 38.58, 148.5 36.81, 150.96 33.1" stroke="#ffec99" stroke-width="0.5" fill="none"></path><path d="M-1.1 3.75 C54.14 6.36, 112.01 0.12, 153.22 -1.97 M-0.7 -1.08 C38.16 1.04, 77.46 4.33, 148.76 1.43 M152.06 -1.57 C152.74 6.83, 151.38 19.94, 151.93 40.07 M148.5 0.65 C150.47 8.7, 151.78 17.74, 148.99 37.32 M147.87 37.91 C99.3 38.08, 39.45 35.39, 2.62 35.21 M151.28 38.44 C90.88 37.61, 34.8 38.56, 1.38 34.81 M-0.11 34.04 C-2.13 23.08, -2.92 14.87, -2.98 -0.58 M0.93 35.59 C-2.19 23.25, -2.46 14.89, -1.17 -0.54" stroke="#f08c00" stroke-width="1" fill="none"></path></g><g transform="translate(413.89928228363453 238.48116174362474) rotate(0 60.53892517089844 6.89178287321667)"><text x="60.53892517089844" y="0" font-family="Cascadia, Segoe UI Emoji" font-size="11.486304788694467px" fill="#f08c00" text-anchor="middle" style="white-space: pre;" direction="ltr" dominant-baseline="text-before-edge">add implementation</text></g><g stroke-linecap="round"><g transform="translate(466.9130398652404 171.67019253989952) rotate(0 1.934012116300778 26.65771484375)"><path d="M0.64 0.41 C-0.97 20.83, 0.56 39.44, 6.4 55.76" stroke="#2f9e44" stroke-width="1.5" fill="none" stroke-dasharray="8 9"></path></g><g transform="translate(466.9130398652404 171.67019253989952) rotate(0 1.934012116300778 26.65771484375)"><path d="M-7.65 35.51 C-3.18 43.15, 2.54 49.98, 7.66 56.99" stroke="#2f9e44" stroke-width="1.5" fill="none"></path></g><g transform="translate(466.9130398652404 171.67019253989952) rotate(0 1.934012116300778 26.65771484375)"><path d="M8.86 31.06 C6.71 40.63, 5.84 49.23, 7.66 56.99" stroke="#2f9e44" stroke-width="1.5" fill="none"></path></g></g><mask></mask><g stroke-linecap="round" transform="translate(619.8852555620283 200.5253866316965) rotate(0 76.08304222453572 14.283538818359375)"><path d="M0 0 C0 0, 0 0, 0 0 M0 0 C0 0, 0 0, 0 0 M0.88 6.52 C0.85 4.28, 2.69 3.91, 6.42 0.76 M0.02 6.34 C1 4.79, 3.09 1.51, 4.77 0.19 M2.98 12.04 C2.38 7.01, 5.18 0.25, 13.67 1.27 M0.03 11.77 C4.12 8.52, 8.12 2.17, 9.35 -1.25 M3.56 16.73 C4.91 9.07, 14.15 2.86, 18.23 -2.12 M0.52 16.47 C3.05 13.55, 8.34 9.02, 16.88 -0.59 M-3.69 24.58 C3.19 15.56, 7.3 12.8, 21.59 2.46 M-0.6 23.64 C6.51 18.37, 11.1 10.23, 20.79 1.07 M0.17 25.96 C10.29 19.63, 12.22 14.06, 27.33 3.24 M0.9 30.94 C8.25 22.54, 16.19 10.88, 26.92 -1.04 M10.1 26.32 C13.56 16.64, 29.85 6.28, 28.09 -3.65 M8.74 30.31 C16.23 18.82, 24.77 5.33, 33.38 -0.43 M8.08 27.93 C18.71 20.1, 28.63 12.29, 36.42 2.83 M10.25 30.74 C17.55 22.07, 23.81 11.18, 36.26 0.07 M14.21 30.41 C26.81 17.09, 37.25 3.37, 41.43 -2.8 M19.45 29.84 C28.31 20.07, 33.17 7.98, 44.24 -2.06 M20.88 31.89 C33.17 20.24, 32.67 11.33, 46.95 4.11 M21.19 28.05 C29.65 18.95, 38.36 10.3, 48.61 -1.3 M25.43 25.6 C30.85 22.5, 40.17 13.26, 52.07 2.98 M27.67 28.35 C33.1 20.56, 39.96 17.71, 53.85 1.6 M32.25 28.55 C37.78 22.36, 47.7 8.67, 57.34 0.59 M34.57 29.93 C41.28 20.18, 47.94 11.01, 59.69 -0.73 M37.41 30.13 C49.03 20.45, 54.69 16, 61.36 -0.27 M37.53 27.88 C47.73 17.82, 57.62 6.01, 63.7 -0.54 M46.81 28.72 C50.07 19.98, 60.52 7.02, 66.93 -0.16 M44.28 26.9 C49.86 22.47, 54.18 16.75, 67.3 0.68 M52.76 28.34 C55.32 22.26, 67.74 13.18, 77.63 -2.43 M51.17 28.94 C57.17 19.48, 61.05 11.53, 74.35 -2.1 M52.14 27.25 C64.76 18.32, 74.71 5.55, 80.01 3.5 M55.24 26.97 C60.7 17.18, 70.92 7.87, 81.22 -1.72 M63.01 30.61 C71.63 15.49, 80.04 8.21, 88.14 2.66 M58.77 28.54 C71.39 15.54, 77.23 8.06, 83.35 -1.23 M62.74 31.07 C71.15 21.79, 82.4 16.63, 93.8 3.27 M65.37 29.6 C71.92 21.36, 77.66 12.26, 89.3 1.9 M68.63 29.39 C78.59 18.25, 86.27 15.63, 95.07 -2.76 M72.53 30.11 C79.05 21.12, 82.46 11.49, 95.31 1.38 M76.04 31.14 C84.55 21, 87.32 12.15, 102.46 0.91 M75.67 27.75 C83.62 21.96, 89.21 12.24, 99.39 1.85 M82.37 27.96 C88.38 16.35, 102.74 3.01, 103.54 -0.41 M80.05 30.34 C86.21 20.79, 91.63 15.28, 107.86 0.52 M84.43 30.51 C95 21.54, 104.94 6.69, 109.08 -3.75 M88.13 29.8 C94.52 21.41, 102.84 10.28, 109.4 -1.11 M87.89 25.37 C99.05 25.27, 102.89 14.47, 116.98 -3.16 M92.9 30.11 C100.09 20.66, 106.76 9.14, 117 1.18 M95.22 32.3 C103.61 22.37, 108.37 14.73, 121.7 -0.82 M95.79 29.66 C102.54 24.01, 108.38 18.18, 121.26 -1.75 M103.82 33.01 C112.09 18.25, 114.88 12.91, 127.69 1.88 M100.73 29.03 C107.94 24.41, 113.97 18.03, 125.75 1.58 M110.66 27.67 C114.16 13.49, 130.38 6.56, 133.3 1.64 M108.72 28.64 C114.04 20.32, 122.86 9.44, 130.92 -0.36 M110.38 27.6 C124.12 21.23, 131.32 8.25, 140.96 -2.04 M111.88 28.44 C119.51 20.09, 128.75 9.31, 138.16 -0.34 M115.95 31.85 C122.38 19.75, 132.28 13.36, 141.77 -2.34 M120.03 29.58 C126.88 21.21, 130.24 12.83, 142.37 -0.76 M124.74 27.89 C133.56 20.33, 133.67 14.19, 149.66 3.61 M122.72 30.14 C130.14 23.34, 133.53 15.93, 148.01 0.09 M131.2 32.14 C133.47 21.85, 146.38 5.71, 152.66 4.8 M127.84 26.75 C135.6 22.15, 141.64 17.5, 152.33 1.19 M132.98 26.7 C135.27 23.24, 138.53 18.62, 155.06 5 M135.63 30.38 C142.17 20.76, 146.96 13.77, 153.5 8.53 M143.3 31.72 C144.59 23.21, 143.96 25.23, 153.16 11.19 M141.22 27.94 C143.88 26.31, 145.35 20.89, 150.4 14.41 M143.08 27.71 C146.5 27.2, 149.6 25.68, 153.66 20.99 M144.83 29.5 C146.52 26.56, 149.4 23.29, 151.61 19.66 M150.24 28.79 C150.97 27.59, 151.79 27.04, 151.89 26.56 M150.21 28.45 C150.53 28.1, 150.87 27.3, 151.93 25.95" stroke="#a5d8ff" stroke-width="0.5" fill="none"></path><path d="M-3.7 -2.09 C55.2 -1.32, 118.32 2.52, 151.41 3.29 M-1.4 -1.72 C43.04 -0.69, 84.3 0.96, 153.93 0.97 M156.16 -0.49 C153.01 6.71, 150.44 8.15, 154.53 26.95 M154.04 -0.22 C153.92 9.2, 151.73 22.21, 153.84 28.72 M152.42 32.5 C115.6 26.12, 69.85 29.91, 3.35 26.01 M154.1 29.98 C91.55 30.05, 33.91 27.72, 1.47 28.55 M3.25 32 C0.15 22.39, 3.04 8.72, 3.82 0.38 M1.24 30.55 C-1.16 22.36, 1.33 12.92, -0.77 1.63" stroke="#1971c2" stroke-width="1" fill="none"></path></g><g transform="translate(635.4293726156656 207.91714257683918) rotate(0 60.53892517089844 6.891782873216698)"><text x="60.53892517089844" y="0" font-family="Cascadia, Segoe UI Emoji" font-size="11.486304788694467px" fill="#1971c2" text-anchor="middle" style="white-space: pre;" direction="ltr" dominant-baseline="text-before-edge">compose middleware</text></g><g stroke-linecap="round" transform="translate(622.3453690874192 271.9252889754463) rotate(0 76.08304222453569 15.667388916015625)"><path d="M0 0 C0 0, 0 0, 0 0 M0 0 C0 0, 0 0, 0 0 M-1.07 6.41 C1.92 2.76, 4.64 1.65, 6.01 0.83 M-0.03 5.9 C1.28 4.98, 2.35 3.49, 4.97 0.49 M2.63 13.53 C2.21 7.3, 6.62 6.63, 11.55 -0.31 M0.92 13.51 C3.55 8.54, 3.2 7.9, 11.82 -0.27 M-1.44 20.35 C2.71 15.12, 6.78 5.34, 17.05 0.58 M-0.32 18.82 C0.93 15.01, 4.84 11.24, 14.47 -0.75 M2.12 26.74 C2.95 15.13, 11.46 14.34, 23.13 -2.88 M0.31 24.63 C7.18 14.8, 14.39 5.8, 21.97 1.35 M0.69 28.7 C11.08 17.26, 19.25 4.56, 29.66 3.07 M1.81 30.08 C9.64 22.04, 16.73 13.67, 26.34 1.82 M5.06 33.4 C14.87 25.04, 22.72 14.37, 28.05 -1.38 M2.43 32.75 C14.93 22.49, 22.71 9.42, 31.95 1.66 M12.99 29.01 C16.95 21.72, 28.25 17.35, 34.85 3.84 M9.72 32.5 C19.31 20.83, 29.74 7.2, 38.25 0.42 M12.92 28.96 C19.82 21.87, 33.72 10.69, 43.58 -0.06 M13.41 31.63 C25 21.14, 31.57 11.91, 42.74 -0.59 M21.35 29.41 C27.53 26.91, 27.76 19.6, 50.16 2.69 M21.82 30.29 C28.49 24.71, 33.79 15.83, 47.36 -0.89 M29.42 32.01 C33.99 28.11, 35.98 16.34, 52.77 -0.18 M25.48 33.23 C29.22 26.28, 36.88 18.22, 53.47 -1.59 M32.28 33.41 C36.77 23.5, 49.79 8.61, 61.21 0.34 M29.57 33.16 C41.56 18.46, 49.54 7.23, 56.28 -0.02 M32.94 30.52 C48.02 24.28, 54.17 13.7, 64.77 -4.04 M34.88 32.02 C42.65 23.99, 47.54 16.71, 63.76 1.52 M39.68 33.96 C52.48 20.45, 59.22 11.21, 65.65 2.44 M42.21 32.33 C49.87 22.65, 59.07 14.29, 67.11 1.13 M45.89 33.39 C56.25 18.72, 61.26 7.65, 70.79 -3.02 M45.34 30.48 C59.66 21.64, 68.54 9.52, 75.69 0.61 M51.48 34.92 C60.63 25.45, 63.31 11.18, 77.23 -0.41 M51.45 32.06 C60.45 21.47, 69.84 8.73, 79.42 -1.27 M58.75 34.47 C60.97 24.48, 74.63 17.14, 88.07 2.46 M58.05 33.15 C62.11 26.35, 70.38 18.13, 83.8 -1.41 M61.71 31.13 C75.6 16.01, 87.33 11.4, 89.74 3.33 M61.45 31.64 C69.6 23.62, 76.51 15.17, 88.25 0.93 M66.06 32.55 C72.99 21.5, 86.77 13.28, 91.95 -1.11 M69.66 32.56 C74.75 25.58, 80.31 18.81, 97.12 -0.59 M70.44 28.32 C83.83 19.39, 93.3 6.41, 97.03 2.13 M74.86 31.39 C78.32 24.35, 85.07 16.63, 102.09 1.96 M78.43 35.34 C86.46 16.46, 103.92 4.72, 107.81 -4.29 M78.3 31.32 C87.09 21.97, 94.83 12.99, 105.12 -1.95 M79.81 31.19 C94.76 21.9, 101.3 8.75, 113.02 -2.61 M82.78 30.65 C90.46 19.95, 98.82 10.55, 112.9 0.05 M86.53 31.51 C97.07 22.09, 108.29 7.6, 118.46 -1.93 M89.56 32.03 C98.72 21.96, 108.1 9.89, 115.11 -0.74 M98.01 31.38 C105.1 24.07, 110.45 14.38, 119.69 -0.54 M94.81 29.81 C100.71 23.76, 108.54 12.59, 122.14 -0.52 M97.09 34.66 C107.82 18.16, 120.93 4.21, 126.7 -0.25 M98.52 31.34 C110.92 18.67, 121.64 7.71, 128.83 0.58 M103.32 35.43 C111.78 19.08, 125.62 13.25, 135.09 -0.36 M104.98 32.28 C111.12 23.68, 121.8 13.71, 130.71 0.55 M112.9 31.31 C122.36 15.88, 126.59 6.78, 139.47 -0.22 M111.69 29.92 C119.96 20.43, 125.75 14.49, 136.5 -1.17 M112.04 28.86 C121.29 24.26, 131.48 10.98, 145.33 -1.87 M113.82 30.5 C119.9 25.87, 128.47 17.98, 144.99 1.59 M120.17 33.69 C130.44 20.55, 137.94 11.34, 150.4 3.33 M120.44 31.25 C131.31 21.79, 140.15 6.6, 149.5 1.1 M126.59 28.11 C134.8 22.11, 149.89 5.93, 155.25 1.6 M126.3 31.96 C134.67 22.37, 143.41 10.85, 153.5 2.49 M135.13 32.71 C140.48 27.23, 147.59 17.85, 152.63 10.1 M129.53 32.55 C137.57 22.15, 147.95 11.54, 151.08 7.08 M139.39 28.55 C139.38 27.72, 144.27 20.2, 154.57 17.98 M137.89 33.15 C140.05 28.22, 145.6 23.65, 151.04 13.44 M140.45 30.75 C148.42 29.12, 146.51 23.92, 150.91 16.86 M142.98 31.47 C146.44 27.73, 147.76 22.44, 153.81 20.7 M146.62 31.85 C149.52 28.94, 151.8 27.83, 153.5 27.62 M147.86 30.84 C149.98 29.03, 151.57 27.21, 151.68 26.42" stroke="#a5d8ff" stroke-width="0.5" fill="none"></path><path d="M-3.61 2.29 C35.88 5.39, 75.93 1.26, 151.78 -2.68 M-1.11 -1.39 C48.93 -1.22, 98.38 2.09, 150.77 0.92 M155.09 3.92 C149.19 10.26, 149.84 21.52, 153.65 27.83 M153.85 1.38 C151.47 11.13, 154.13 23.57, 150.59 31.11 M150.94 32.74 C115.78 31, 73.1 30.77, 0.47 30.07 M151.19 31.24 C107.17 30.28, 62.23 30.62, 0.97 32.44 M2.06 28.25 C2.91 21.86, 2.74 15.5, -0.53 1.36 M1.02 32.06 C-0.77 20.35, -0.08 6.13, 1.12 -0.82" stroke="#1971c2" stroke-width="1" fill="none"></path></g><g transform="translate(631.1629388998455 280.7008950182452) rotate(0 67.26547241210938 6.89178287321667)"><text x="67.26547241210938" y="0" font-family="Cascadia, Segoe UI Emoji" font-size="11.486304788694467px" fill="#1971c2" text-anchor="middle" style="white-space: pre;" direction="ltr" dominant-baseline="text-before-edge">promisify all method</text></g><g stroke-linecap="round"><g transform="translate(685.657964534611 229.61288052818077) rotate(0 1.94091796875 18.955413818359375)"><path d="M-1.73 0.34 C0.01 14.07, 3.25 31.33, 2.38 36.73" stroke="#1971c2" stroke-width="1.5" fill="none" stroke-dasharray="8 9"></path></g><g transform="translate(685.657964534611 229.61288052818077) rotate(0 1.94091796875 18.955413818359375)"><path d="M-6.19 19.29 C-3.23 25.2, 1.12 34.46, 0.94 35.6" stroke="#1971c2" stroke-width="1.5" fill="none"></path></g><g transform="translate(685.657964534611 229.61288052818077) rotate(0 1.94091796875 18.955413818359375)"><path d="M6.84 19 C4.71 25.04, 3.96 34.41, 0.94 35.6" stroke="#1971c2" stroke-width="1.5" fill="none"></path></g></g><mask></mask><g stroke-linecap="round" transform="translate(605.3187311361735 143.07583218833702) rotate(0 93.30404663085938 90.95843505859375)"><path d="M-0.24 1.56 C39.35 -3.99, 88.67 -1.72, 187.86 1.64 M190.51 0.46 C183.83 61.96, 185.59 117.2, 189.15 184.63 M189.8 180.46 C122.2 182.66, 53.93 183.19, -2.52 178.18 M1.07 183.68 C2.26 139.62, -1.18 101.28, 2.08 -3.43" stroke="#1971c2" stroke-width="1.5" fill="none" stroke-dasharray="8 9"></path></g><g transform="translate(619.3642328451579 158.51331528320225) rotate(359.7911606207079 35.3203125 6.5766770613846575)"><text x="35.3203125" y="0" font-family="Cascadia, Segoe UI Emoji" font-size="10.96112843564114px" fill="#1971c2" text-anchor="middle" style="white-space: pre;" direction="ltr" dominant-baseline="text-before-edge">callbackify</text></g><g stroke-linecap="round"><g transform="translate(556.9804555344233 226.80148775368866) rotate(0 21.07251914853134 -0.37952133110843533)"><path d="M-1.43 0.63 C10.88 -1.21, 17.09 1.35, 43.34 1.1" stroke="#f08c00" stroke-width="1.5" fill="none" stroke-dasharray="8 9"></path></g><g transform="translate(556.9804555344233 226.80148775368866) rotate(0 21.07251914853134 -0.37952133110843533)"><path d="M21.98 8.59 C29.36 5.36, 30.7 6.58, 44.54 2.96" stroke="#f08c00" stroke-width="1.5" fill="none"></path></g><g transform="translate(556.9804555344233 226.80148775368866) rotate(0 21.07251914853134 -0.37952133110843533)"><path d="M22.24 -5.83 C29.68 -5.89, 30.96 -1.5, 44.54 2.96" stroke="#f08c00" stroke-width="1.5" fill="none"></path></g></g><mask></mask><g stroke-linecap="round"><g transform="translate(601.598394222111 260.65643497776284) rotate(0 -23.8585205078125 -2.0740786234698874)"><path d="M-0.08 1.56 C-13.12 -2.31, -23.87 -2.4, -46.74 -2.5" stroke="#1971c2" stroke-width="1.5" fill="none" stroke-dasharray="8 9"></path></g><g transform="translate(601.598394222111 260.65643497776284) rotate(0 -23.8585205078125 -2.0740786234698874)"><path d="M-24.23 -8.88 C-31.32 -10.05, -36.09 -7.26, -45.76 -0.85" stroke="#1971c2" stroke-width="1.5" fill="none"></path></g><g transform="translate(601.598394222111 260.65643497776284) rotate(0 -23.8585205078125 -2.0740786234698874)"><path d="M-24.41 7.5 C-31.43 2.44, -36.16 1.34, -45.76 -0.85" stroke="#1971c2" stroke-width="1.5" fill="none"></path></g></g><mask></mask><g stroke-linecap="round" transform="translate(36.93232892628619 320.4413955445757) rotate(0 52.222644885668544 17.237219846886205)"><path d="M-2.53 1.59 C37.36 -1.01, 67.16 -3.9, 106.51 2.65 M106.19 2.42 C107.07 6.33, 105.9 21.93, 105.88 36.13 M100.57 32.17 C71.68 31.51, 32.98 32.29, -3.55 34.85 M-3.87 37.87 C-2.25 23.51, -2.31 22.15, 0.61 -0.98" stroke="#1e1e1e" stroke-width="1.5" fill="none" stroke-dasharray="8 9"></path></g><g transform="translate(52.15896398529458 330.7868325182452) rotate(0 36.996009826660156 6.89178287321667)"><text x="36.996009826660156" y="0" font-family="Cascadia, Segoe UI Emoji" font-size="11.486304788694467px" fill="#1e1e1e" text-anchor="middle" style="white-space: pre;" direction="ltr" dominant-baseline="text-before-edge">client call</text></g><g stroke-linecap="round" transform="translate(266.5640733110518 308.88554837660706) rotate(0 52.22264488566853 17.237219846886205)"><path d="M0 0 C0 0, 0 0, 0 0 M0 0 C0 0, 0 0, 0 0 M0.62 7.44 C1.36 5.97, 2.64 2.07, 5.72 0.66 M-0.91 6.07 C2.14 4.11, 3.31 1.99, 4.22 0.07 M2.84 12.27 C3.29 11.24, 6.25 5.48, 11.5 -0.38 M-0.77 12.5 C3.81 9.52, 6.94 3.74, 10.19 0.97 M-4.04 19.89 C7.29 12.06, 7.91 7.99, 15.41 3.25 M1.14 19.39 C7.35 11.1, 12.19 4.04, 17.47 1.31 M1.82 23.18 C7.81 14.97, 13.61 11.91, 21.22 2.95 M1.4 24.49 C8.45 13.51, 18.02 3.68, 20.85 0.26 M-2.29 26.5 C6.16 21.93, 18.31 12.2, 28.9 -2.28 M-1.44 32.23 C6.84 20.76, 17.36 7.23, 25.61 1.32 M4.24 34.01 C5.5 30.68, 15.03 22.85, 31.29 3.62 M3.24 34.78 C11.43 25.55, 18 17.26, 33.44 0.33 M8.13 38.35 C19.66 21.27, 29.94 9.22, 36.39 -1.64 M5.93 33.94 C17.07 25.07, 22.95 14.32, 36.4 1.43 M11 34.34 C22.44 23.11, 25.01 16.16, 40.02 1.89 M13.69 33.81 C24.17 25.42, 33 10.93, 43.51 -1.31 M17.93 35.54 C24.58 22.89, 34.62 15.9, 47.91 -2.94 M16.68 34.44 C25.63 26.41, 31.97 18.55, 46.78 -0.12 M26.2 35.38 C31.56 23.01, 44.22 13.36, 56.39 2.19 M24.85 36.01 C27.69 28.23, 33.61 21.91, 51.77 0.06 M27.41 35.79 C43.93 23.45, 53.85 7.5, 58.43 -0.24 M27.94 36.58 C39.39 23.49, 48.41 11.42, 59.69 1.38 M32.07 35.83 C39.78 21.33, 52.37 11.31, 64.35 0.98 M32.07 35.71 C39.43 29.26, 44.99 19.15, 61.93 -1.36 M39.76 36.32 C46.25 27.35, 50.23 22.74, 67.87 -1.52 M39.8 36.2 C47.47 24.08, 59.21 10.84, 70.13 -0.91 M47.76 36.45 C53.75 28.61, 53.44 18.09, 74.78 -1.17 M42.7 35.71 C55.12 20.63, 65.28 11.05, 74.75 0.06 M53.12 38.42 C60.43 20.17, 71.04 12.75, 77.06 -0.71 M49.4 36.56 C60.73 21.65, 74.4 9.02, 79.12 0.67 M53.36 36.06 C62.09 24.09, 72.98 8.85, 81.5 -3.67 M54.15 33.28 C63.14 22.16, 72.88 11.77, 86.01 -0.53 M56.55 35.45 C67.71 23.38, 76.67 16.64, 91.8 2.33 M60.9 34.42 C69.81 25.58, 77.88 13.88, 91.71 -1.78 M65.92 35.55 C70.43 21.98, 81.98 21.14, 97.25 -1.85 M63.84 34.15 C77.75 19.78, 88.89 5.46, 96.55 -0.54 M74.04 32.84 C77.69 19.22, 96.17 5.59, 102.8 -2.2 M71.49 34.01 C78.95 24.57, 84.48 17.18, 99 -1.68 M79.4 33.88 C84.48 21.64, 94.61 14.76, 107.75 3.29 M75.23 34.53 C81.27 25.98, 89.59 19.36, 104.24 2.36 M80.55 36.05 C93.26 28.49, 100.29 13.26, 107.16 9.51 M81.4 33 C88.25 27.57, 94.77 18.43, 105.53 7.57 M84.07 32.81 C95.75 22.88, 97.01 22.18, 105.09 12.09 M87.16 35.84 C93.01 28.46, 100.91 19.36, 103.39 15.24 M93.95 38.64 C97.34 26.29, 102.89 25.39, 104.11 16.77 M91.89 36.56 C97.71 29.68, 102.61 22.13, 103.07 20.46 M96.93 36.77 C99.71 34.31, 101.34 30.98, 103.85 24.55 M97.77 35.45 C97.71 33.59, 99.7 31.61, 105.72 25.58 M101.87 34.6 C103.39 33.76, 104.1 32.65, 104.65 32.37 M102.5 34.76 C102.82 34, 103.61 33.23, 104.3 32.22" stroke="#ffc9c9" stroke-width="0.5" fill="none"></path><path d="M-3.75 -3.66 C27.11 0.51, 60.7 -1.19, 104.03 3.39 M1 -1.3 C36.38 -3.85, 75.22 -3.86, 102.82 -1.17 M108.23 -1.16 C100.55 11.94, 101.75 20.46, 106.5 35.38 M104.79 -1.09 C102.45 11.16, 104.39 20.25, 104.13 34.88 M104.03 33.26 C81.85 39.47, 58.23 35.75, 0.47 38 M103.47 34.32 C65.98 34.48, 25.18 36.85, -1.96 33.63 M-0.49 35.1 C2.78 22.69, 1.56 22.64, 0.85 -3.39 M1.92 36.39 C-1.03 24.66, 0.72 13.67, 0.61 1.22" stroke="#e03131" stroke-width="1" fill="none"></path></g><g transform="translate(285.15398199066567 319.23098535027657) rotate(0 33.63273620605469 6.89178287321667)"><text x="33.63273620605469" y="0" font-family="Cascadia, Segoe UI Emoji" font-size="11.486304788694467px" fill="#e03131" text-anchor="middle" style="white-space: pre;" direction="ltr" dominant-baseline="text-before-edge">call proxy</text></g><g stroke-linecap="round" transform="translate(419.1078660356612 362.1286514039508) rotate(0 139.90849693644984 17.681060791015625)"><path d="M0.49 -1.55 C67.27 -2.63, 129.01 0.93, 280.84 0.96 M281.53 2.4 C280.57 13.79, 279.28 18.65, 277.95 34.97 M277.44 36.37 C219.3 36.32, 154.69 34.84, 2.31 37.53 M2.92 37.68 C3.22 21.08, -2.6 7.69, -1.15 3.46" stroke="#1e1e1e" stroke-width="1.5" fill="none" stroke-dasharray="8 9"></path></g><g transform="translate(434.57523900970864 372.91792932174974) rotate(0 124.44112396240234 6.89178287321667)"><text x="124.44112396240234" y="0" font-family="Cascadia, Segoe UI Emoji" font-size="11.486304788694467px" fill="#1e1e1e" text-anchor="middle" style="white-space: pre;" direction="ltr" dominant-baseline="text-before-edge">return { status, metadata, response }</text></g><g stroke-linecap="round"><g transform="translate(147.65097600922036 315.661492600844) rotate(0 121.80848693847656 -33.052045679461486)"><path d="M0.63 3.12 C69.25 -21.75, 137.89 -40.41, 243.63 -64.7" stroke="#1e1e1e" stroke-width="1.5" fill="none" stroke-dasharray="8 9"></path></g><g transform="translate(147.65097600922036 315.661492600844) rotate(0 121.80848693847656 -33.052045679461486)"><path d="M223.16 -48.99 C228.66 -55.82, 234.32 -59.68, 243.63 -63.84" stroke="#1e1e1e" stroke-width="1.5" fill="none"></path></g><g transform="translate(147.65097600922036 315.661492600844) rotate(0 121.80848693847656 -33.052045679461486)"><path d="M219.18 -65.62 C225.76 -67.75, 232.54 -66.9, 243.63 -63.84" stroke="#1e1e1e" stroke-width="1.5" fill="none"></path></g></g><mask></mask><g stroke-linecap="round"><g transform="translate(468.9865477778621 272.221340000837) rotate(0 -50.17007463108254 16.713409423828125)"><path d="M-2.67 -2.76 C-31.72 7.06, -60.19 22.75, -97.11 31.79" stroke="#f08c00" stroke-width="1.5" fill="none" stroke-dasharray="8 9"></path></g><g transform="translate(468.9865477778621 272.221340000837) rotate(0 -50.17007463108254 16.713409423828125)"><path d="M-78.51 15.33 C-84.24 19.85, -89.57 27.21, -95.5 30.97" stroke="#f08c00" stroke-width="1.5" fill="none"></path></g><g transform="translate(468.9865477778621 272.221340000837) rotate(0 -50.17007463108254 16.713409423828125)"><path d="M-73.48 31.68 C-80.81 31.37, -87.62 33.92, -95.5 30.97" stroke="#f08c00" stroke-width="1.5" fill="none"></path></g></g><mask></mask><g stroke-linecap="round"><g transform="translate(373.46362280216175 349.5806440091443) rotate(0 18.704185721176742 4.8223683765656915)"><path d="M0.58 0.04 C6.21 2.03, 16.39 3.67, 37.47 10.09" stroke="#1e1e1e" stroke-width="1.5" fill="none" stroke-dasharray="8 9"></path></g><g transform="translate(373.46362280216175 349.5806440091443) rotate(0 18.704185721176742 4.8223683765656915)"><path d="M18.77 11.5 C20.79 11.34, 27.2 10.75, 37.54 10.52" stroke="#1e1e1e" stroke-width="1.5" fill="none"></path></g><g transform="translate(373.46362280216175 349.5806440091443) rotate(0 18.704185721176742 4.8223683765656915)"><path d="M22.4 -1.21 C23.66 1.25, 29.33 3.24, 37.54 10.52" stroke="#1e1e1e" stroke-width="1.5" fill="none"></path></g></g><mask></mask><g stroke-linecap="round"><g transform="translate(408.3218455877976 401.97667985073394) rotate(0 -130.56893381774898 -23.86082578554968)"><path d="M2.44 -2.54 C-69.4 -12.27, -136.08 -25.54, -262.02 -45.17" stroke="#1e1e1e" stroke-width="1.5" fill="none" stroke-dasharray="8 9"></path></g><g transform="translate(408.3218455877976 401.97667985073394) rotate(0 -130.56893381774898 -23.86082578554968)"><path d="M-235.93 -51.46 C-245.21 -47.61, -251.06 -46.98, -262.58 -43.55" stroke="#1e1e1e" stroke-width="1.5" fill="none"></path></g><g transform="translate(408.3218455877976 401.97667985073394) rotate(0 -130.56893381774898 -23.86082578554968)"><path d="M-238.66 -34.58 C-247.18 -35.07, -252.33 -38.81, -262.58 -43.55" stroke="#1e1e1e" stroke-width="1.5" fill="none"></path></g></g><mask></mask></svg>