<svg version="1.1" xmlns="http://www.w3.org/2000/svg" viewBox="0 0 832.3619520256909 1206.1987076149985" width="832.3619520256909" height="1206.1987076149985">
  <!-- svg-source:excalidraw -->
  
  <defs>
    <style class="style-fonts">
      @font-face {
        font-family: "Virgil";
        src: url("https://excalidraw.com/Virgil.woff2");
      }
      @font-face {
        font-family: "Cascadia";
        src: url("https://excalidraw.com/Cascadia.woff2");
      }
      @font-face {
        font-family: "Assistant";
        src: url("https://excalidraw.com/Assistant-Regular.woff2");
      }
    </style>
    
  </defs>
  <rect x="0" y="0" width="832.3619520256909" height="1206.1987076149985" fill="#ffffff"></rect><g stroke-linecap="round" transform="translate(10 10) rotate(0 406.18097601284546 593.0993538074993)"><path d="M-1.08 -0.89 C268.26 -4.51, 537.41 -5.2, 812.05 0.87 M-0.27 0.12 C317.33 2.54, 636.38 1.85, 812.76 -0.8 M811.76 0.19 C805.95 302.91, 804.5 606.19, 813.69 1186.16 M812.42 -0.23 C813.2 347.69, 812.05 695.2, 813.15 1186.44 M811.76 1185.89 C503.47 1184.2, 198.33 1185.13, 1.37 1184.64 M812.61 1186.68 C536.01 1181.85, 259.83 1181.07, -0.65 1186.37 M-0.8 1187.6 C1.58 713.7, 1.42 239.57, -0.97 -0.95 M0.65 1186.88 C3.91 843.98, 3.98 503.33, 0.3 -0.34" stroke="#1e1e1e" stroke-width="1" fill="none"></path></g><g stroke-linecap="round" transform="translate(229.63705945327513 563.1674101700395) rotate(0 184.63632466196674 57.61296172128874)"><path d="M1.13 48.69 C1.13 48.69, 1.13 48.69, 1.13 48.69 M1.13 48.69 C1.13 48.69, 1.13 48.69, 1.13 48.69 M-2.25 52.85 C14.14 44.02, 20.96 37.02, 24.96 25.35 M1.72 54.85 C8.56 47.62, 11.78 38.84, 23.61 29.9 M0.93 63.11 C6.75 52.88, 17.88 39.72, 33.6 28.27 M2.04 61.37 C7.9 51.18, 16.66 44.3, 30.95 27.14 M5.98 63.83 C17.26 49.54, 28.27 34.38, 42.46 22.94 M2.62 67.07 C9.45 56.24, 16.97 47.36, 39.25 23.57 M7.01 70.55 C16.5 49.25, 35.06 37.05, 50.32 22.76 M5.57 71.38 C20.85 51.56, 36.92 31.64, 45.56 22.24 M8.89 69.92 C25.49 53.28, 46.68 29.84, 51.53 21.31 M9.12 70.33 C17.75 60.34, 30.84 46.94, 54.59 18.13 M11.82 77.6 C25.67 60.52, 36.85 36.65, 58.48 20.08 M10.37 73.16 C25.95 58.93, 38.82 42.41, 61.51 14.44 M16.99 77.57 C29.72 61.52, 41.84 43.86, 66.72 16.99 M15.34 78.29 C33.62 53.78, 54.74 27.58, 67.38 13.92 M17.74 81.56 C44.03 53.51, 66.55 29.17, 76.08 11.61 M16.41 79.45 C35.92 58.51, 54.71 37.68, 76.58 12.67 M23.38 83.16 C34.87 56.53, 57.6 36.81, 78.51 11.2 M20.5 80.48 C35.43 64.92, 50.18 48.49, 82.9 8.94 M22.33 88.67 C36.96 69.53, 48.77 56.17, 89.12 9.65 M22.42 84.88 C39.49 64.62, 52.69 48.91, 89.02 6.73 M29.82 87.25 C43.22 65.13, 54.86 50.5, 92.73 11.09 M25 86.61 C47.32 65.7, 67.2 41.63, 95.25 6.07 M33.8 91.3 C45.47 61.98, 72.33 45.88, 101.57 5.72 M31.25 89.2 C59.33 58.96, 84.94 27.29, 101.63 3.61 M33.34 92.08 C60.23 60.11, 94.35 26.79, 106.49 5.25 M35.08 90.02 C62.74 58.64, 87.01 29.56, 109.38 2.63 M37.07 94.82 C54.9 69.48, 72.53 53.96, 116.74 4.99 M38.04 90.11 C50.46 74.29, 67.65 55.92, 113.05 3.94 M44.33 91.85 C64.21 74.5, 80.8 48.92, 120.97 -0.02 M42.83 91.98 C59.81 72.32, 77.39 52.01, 119.82 4.6 M46.32 95.75 C69.33 69.86, 89.16 47.62, 126.54 4.85 M44.7 95.44 C70.15 71.13, 89.19 48.85, 125.08 2.52 M53.82 96.93 C83.46 58.99, 110.62 29.32, 134.53 0.22 M51.53 95.9 C81.18 59.34, 110.46 28.77, 129.81 1.56 M55.07 100.56 C79.44 67.18, 100.78 39.35, 138.22 0.34 M56 95.94 C87.97 57.78, 120 21.2, 135.35 3.79 M59.48 100.15 C71.48 77.44, 96.02 58.28, 142.24 3.89 M59.63 99.61 C78.67 75.23, 95.91 54.24, 140.86 3.05 M58.8 102.67 C84.57 70.41, 106.52 43.02, 145.66 4.96 M60.23 100.25 C85.66 70.76, 106.9 46.64, 146.71 0.58 M64.25 101.73 C94 69.68, 119.34 40.84, 153.15 -0.17 M65.39 102.32 C99.13 66.45, 130.66 28.42, 151.96 2.5 M66.95 102.39 C104.75 62.49, 140.81 20.09, 158.08 -2.09 M71.16 100.92 C96.83 71.87, 126.58 36.93, 157.81 -0.58 M77.76 100.36 C102.49 65.52, 131.97 38.05, 161.63 -3.43 M74.27 105.66 C101.45 73.2, 127.4 42.17, 164.97 0 M81 105.28 C99.9 78.62, 123.12 55.14, 171.97 0.05 M80.11 106.67 C95.11 85.28, 115.87 63.87, 169.17 -1.53 M86.95 106.68 C118.03 71.19, 141.87 40.1, 174.69 3.07 M83.59 105.19 C103.61 83.29, 121.72 61.28, 173.9 1.03 M85.01 107.05 C117.44 79.46, 137.3 53.43, 182.53 -1.3 M88.55 105.37 C118 73, 144.9 41.94, 180.5 -1.7 M94.75 104.24 C112.5 86.68, 131.83 65, 185.96 -1.5 M91.18 109.35 C121.96 74.47, 148.65 44.43, 184.96 0.25 M95.07 108.59 C127.86 65.74, 167.13 31.43, 189.54 -2.64 M99.47 109.04 C136.86 65.71, 172.42 19.11, 190.65 1.64 M101.36 108.05 C137.17 67.81, 171.84 23.33, 193.76 2.44 M102.68 107.99 C124.76 83.27, 147.66 55.77, 196.5 1.71 M108.56 110.52 C134.84 77.8, 168.37 36.1, 199.46 -2.04 M108.72 110.37 C130.11 77.68, 157.7 50.63, 201.67 1.62 M112.32 109.03 C152.44 64.87, 182.21 32.21, 205.68 -1.83 M113.61 110.86 C138.57 80.36, 168.03 50.02, 205.75 0.12 M118.16 114.85 C144.77 77.42, 181.23 44.76, 213.4 -3.11 M116.96 110.43 C142.87 78.76, 170.63 46.49, 212.8 -0.22 M121.17 115.07 C159.03 71.55, 190.73 34.74, 218.66 0.67 M121.99 110.64 C158.92 71.5, 191.35 33.96, 218.78 -1.15 M128.55 108.8 C165.6 72.66, 196.87 36.9, 225.76 1.93 M124.37 112.47 C166.48 71.61, 201.51 25.8, 225.07 1.06 M129.37 114.98 C149.12 86.33, 172.37 68.09, 230.93 -3.42 M130.31 112.89 C169.26 70.31, 205.87 27.94, 228.48 -0.08 M137.04 116.03 C161.7 77.16, 196.01 39.58, 231.6 1.61 M137.33 111.14 C163.25 81.55, 191.33 53.18, 234.76 1.07 M139.77 117.5 C177.01 72.19, 207.52 34.75, 236.72 -2.24 M140.99 113.09 C174.59 73.46, 210.48 32.98, 239.3 3.53 M146.3 111.89 C178.84 82.34, 211.51 42.58, 242.64 4.61 M147.05 113.75 C170.53 83.92, 197.28 54.28, 243.29 3.57 M149.12 118.07 C170.53 94.97, 194.34 65.84, 249.54 1.48 M150.87 113.38 C177.55 86.38, 205.08 55.76, 248.48 2.25 M154.22 113.15 C183.54 82.13, 222.17 48.11, 249.89 5.3 M153.56 116 C177.76 83.45, 205.43 56.78, 249.92 3.98 M163.54 116.07 C193.15 69.99, 236.43 31.4, 256.9 3.96 M160.69 113.78 C196.88 70.59, 230.76 29.77, 254.77 4.57 M162.09 114.52 C191.52 76.19, 224.03 46.61, 261 10.24 M163.78 116.52 C195.54 85, 221.7 51.73, 259.07 5.85 M173.11 115.8 C198.12 83.31, 228.36 47.95, 260.95 8.11 M171.69 115.26 C202.79 78.31, 236.46 43.87, 265.15 8.65 M172.48 114.43 C210.82 82.17, 242 42.13, 268.94 5.92 M175.45 116.58 C199.55 90.96, 221.64 61.67, 271.05 6.67 M179.21 115.27 C207.22 75.94, 238.52 39.95, 271.81 5.5 M178.94 118.41 C209.57 85.56, 235.72 55.11, 274.04 10.28 M188.57 115.19 C216.08 86.61, 238.37 54.56, 282.03 8.54 M186.44 118.35 C218.42 82.48, 253.35 43.68, 277.98 9.57 M191.87 116.66 C223.45 83.75, 244.13 51.31, 282.27 10.44 M190.67 115.98 C219.65 80.34, 251.8 47.45, 284.11 10.93 M193.59 112.86 C223.65 90.5, 243.47 56.82, 289.17 10.47 M196.23 116.67 C213.42 91.71, 235.41 71.69, 287.17 11.85 M205.13 119.59 C237.23 79.47, 265.42 42.15, 292.42 10.63 M201.68 116.15 C227.06 88.42, 248.86 61.43, 292.82 14.47 M204.02 114.64 C229.16 87.33, 253.1 61.9, 293.95 18.53 M209.06 114.54 C227.19 91.49, 251.28 62.81, 297.1 13.19 M214.98 118.39 C237.55 85.44, 269.6 54.78, 302.99 14.23 M213.24 117.73 C236 91.34, 260.29 61.23, 299.83 16.17 M219.04 118.45 C239.73 86.59, 256.66 68.73, 303.26 17.2 M217.4 116.62 C241.55 94.57, 261.18 68.23, 304.09 16.94 M220.71 117.04 C250.72 84.45, 274.05 58.59, 312.03 21.09 M224.46 115.21 C240.45 93.93, 257.81 74.06, 309.64 19.96 M229.1 119.62 C251.2 88.71, 277.65 60.62, 315.3 20.67 M228.53 113.94 C255.71 81.33, 284.8 52.26, 312.33 20.13 M235.63 110.73 C260.45 83.08, 285.64 56.66, 318.9 18.72 M236.97 114.2 C264.05 81.24, 288.92 52.22, 317.59 20.42 M243.28 115.67 C268.35 84.07, 288.42 57.68, 323.6 20.83 M241.89 114.71 C264.61 83.43, 290.92 57.98, 319.82 19.4 M246.31 110.08 C270.1 85.81, 283.9 65.76, 328.27 26.35 M248.23 113.76 C274.34 78.21, 305.67 45.9, 327.87 20.8 M255.39 109.09 C273.48 93.36, 286.97 76.66, 328.97 23.23 M253.17 113.07 C274.01 90.03, 294.03 62.48, 328.42 25.09 M259.36 111.17 C280.05 80.64, 303.25 57.32, 337.46 27.65 M260.25 110.33 C279 90.72, 295.54 68.23, 334.85 23.76 M263.8 110.28 C293.13 80.86, 325.43 47.83, 334.26 28.63 M264.18 110.03 C291.17 78.11, 318.65 50.3, 336.53 28.67 M271.34 108.73 C302.94 80.99, 326.93 46.81, 341.79 29.19 M271.52 109.01 C294.48 84.48, 314.56 59.15, 342.4 27.84 M279.57 106.08 C294.09 92.15, 311.39 69.59, 344.22 32.45 M276.91 108.03 C291.43 90.97, 309.21 69.43, 345 32.28 M285.44 103.96 C299.51 90.56, 315.99 67.59, 346.51 32.52 M283.71 109.32 C307.92 80.05, 331.67 50.24, 349.91 33.51 M292.38 109.51 C303.59 84.99, 322.8 63.76, 349.62 33.33 M289.53 106.64 C305.01 87.66, 323.13 70.69, 351.22 35.19 M294.8 104.71 C321.65 74.75, 344.73 53.31, 353.55 39.59 M298.96 103.39 C316.1 80.85, 334.52 61.7, 356.94 34.63 M304.54 102.04 C322.82 80.1, 339.51 60.93, 355.89 36.33 M304.37 98.86 C328.19 75.79, 346.93 53.74, 359.78 39.12 M310.64 98.56 C326.81 78.23, 346.23 64.87, 364.18 42.32 M314 99.07 C328.5 80.47, 345.23 62.37, 359.91 42 M324.43 96.58 C326.56 83.66, 338.03 71.13, 363.1 48.95 M319.35 96.09 C337.29 78.17, 350.29 61.03, 364.42 46.18 M326.74 95.01 C342.84 75.91, 351.07 59.49, 364.25 52.56 M326.7 92.08 C343.2 76.06, 354.61 63.69, 367.4 51.27 M340.27 90.21 C350.02 78.98, 354.56 69.24, 365.93 56.61 M339.77 86.86 C348.5 77.69, 357.41 63.92, 370.06 52.35 M348.16 80.7 C353.42 75.27, 368.92 63.16, 372.28 54.56 M346.68 83.27 C354.59 73.68, 363.63 64.11, 370.15 57.53 M359.53 75.17 C360.07 74.18, 361.23 72.51, 363.75 70.75 M358.38 75.98 C359.78 74.92, 362.08 72.88, 362.86 71.6" stroke="#ffec99" stroke-width="0.5" fill="none"></path><path d="M283.47 10.83 C301.22 13.23, 316.31 18.19, 328.66 22.54 C341 26.89, 350.48 31.3, 357.56 36.94 C364.63 42.58, 370.83 49.84, 371.12 56.36 C371.41 62.88, 366.07 70.1, 359.29 76.05 C352.51 82, 342.57 86.87, 330.46 92.04 C318.35 97.22, 302.97 103.35, 286.66 107.12 C270.34 110.89, 251.28 113.09, 232.54 114.64 C213.8 116.2, 194.32 117.12, 174.2 116.43 C154.09 115.74, 130.48 113.11, 111.83 110.52 C93.17 107.93, 76.96 105.13, 62.28 100.89 C47.6 96.65, 33.72 90.6, 23.75 85.09 C13.78 79.57, 6.16 73.92, 2.43 67.8 C-1.29 61.67, -1.46 54.62, 1.42 48.36 C4.31 42.1, 10.36 35.55, 19.74 30.25 C29.12 24.95, 42.93 21.02, 57.69 16.54 C72.46 12.06, 90.08 6.22, 108.34 3.38 C126.61 0.54, 147.26 0.1, 167.29 -0.51 C187.33 -1.11, 205.82 -2.61, 228.56 -0.25 C251.31 2.11, 288.51 10.01, 303.75 13.63 C318.99 17.26, 321.81 20.9, 320.03 21.49 M298.57 12.32 C315.79 15.14, 327.73 22.94, 338.65 27.96 C349.57 32.98, 359.22 36.76, 364.1 42.45 C368.97 48.14, 369.08 56.05, 367.91 62.1 C366.75 68.14, 364.21 73.09, 357.11 78.72 C350.01 84.34, 338.82 90.65, 325.33 95.84 C311.84 101.03, 293.83 107.13, 276.18 109.86 C258.53 112.6, 239.13 111.79, 219.41 112.25 C199.7 112.71, 177.55 112.86, 157.88 112.61 C138.21 112.36, 118.79 113.57, 101.41 110.74 C84.03 107.91, 67.22 100.2, 53.6 95.63 C39.98 91.05, 28.71 88.96, 19.71 83.31 C10.7 77.66, 1.56 67.86, -0.43 61.74 C-2.43 55.61, 2.53 52.54, 7.76 46.55 C12.98 40.57, 21.15 31.95, 30.92 25.83 C40.69 19.71, 51.21 13.18, 66.37 9.85 C81.53 6.51, 102.49 7.17, 121.88 5.82 C141.26 4.47, 162.71 2.51, 182.66 1.73 C202.62 0.95, 222.64 -0.76, 241.6 1.17 C260.55 3.09, 287.69 10.98, 296.39 13.26 C305.08 15.55, 295.37 14.68, 293.77 14.87" stroke="#1e1e1e" stroke-width="1" fill="none"></path></g><g stroke-linecap="round" transform="translate(249.92730242669802 49.645364340779) rotate(0 172.83549571696113 115.72612463287669)"><path d="M0 0 C0 0, 0 0, 0 0 M0 0 C0 0, 0 0, 0 0 M0 7.52 C1.16 4.78, 2.21 1.45, 4.78 -0.84 M-0.23 7.19 C1.21 4.75, 2.3 3.18, 5.43 0.9 M-1.9 9.47 C5.39 9.59, 6.8 3.49, 12.58 1.16 M-0.19 13.03 C1.76 8.52, 3.46 8.07, 10.18 -1.62 M-0.48 14.69 C8.26 10.63, 11.96 5.66, 16.03 2.42 M-1.73 16.66 C5.68 12.58, 7.91 7.52, 14.28 -0.24 M-1.77 25.66 C5.22 19.11, 13.55 12.35, 23.37 0.77 M0.41 23.18 C6.75 18.41, 14.15 8.99, 22.83 0.24 M-3.53 27.41 C6.17 23.77, 14.28 16.94, 24.37 1.18 M-1.81 29.73 C6.33 25.62, 9 20.03, 25.56 1.24 M-4.15 37.5 C9.45 18.58, 28.19 10.3, 28.51 -3.18 M-1.51 36.06 C6.53 26.83, 16.94 15.9, 32.52 0.96 M-1.48 42.04 C9.74 31.61, 28.4 15.06, 35.78 1.79 M-1.7 40.78 C9.71 31.93, 16.01 22.94, 35.89 -0.19 M-3.17 48.27 C15 32.86, 27.74 20.47, 45.59 3.46 M-2.12 47.47 C11.5 35.98, 23.23 21.46, 44.45 0.22 M-2.49 53.71 C18.76 36.79, 35.79 16.13, 51.13 2.85 M-1.43 53.24 C11.46 42.89, 26.61 29.13, 49.46 0.45 M0.1 62.55 C22.95 35.73, 41.22 12.31, 56.25 -1 M0.73 62.51 C14.59 41.77, 30.03 24.79, 51.17 -1.61 M-2.84 70.73 C21.55 41.05, 46.93 16.02, 61.84 -2.62 M1.51 67.6 C16.29 50.03, 30.27 32.68, 56.68 1.39 M3.87 70.61 C24.33 47.47, 44.05 25.16, 66.7 2.19 M0.07 74.78 C15.39 57.96, 30.52 37.92, 62.44 -1.92 M3.75 75.58 C15.55 65.61, 29.88 45.52, 69.9 0.84 M0.81 80.36 C19.74 57.78, 36.52 39.31, 68.15 0.16 M0.86 85.17 C27.58 57.4, 49.65 27.42, 71.7 -3.79 M1.14 85.19 C20.25 57.42, 46.64 31.43, 75.24 -1.78 M2.15 89.46 C26.23 62.15, 55.84 22.74, 75.87 -0.86 M-0.58 90.57 C32.81 53.48, 61.25 21.25, 80.74 -0.43 M-2.29 98.14 C28.58 66.65, 60.61 31.37, 82.6 -3.32 M-1.24 96.69 C23.79 68.54, 49.41 38.83, 83.78 0.02 M2.43 101.22 C20.88 79.41, 51.91 52.19, 90.86 0.61 M-1.82 102.79 C31.55 65.68, 68.66 29.11, 91.49 1.71 M-2.38 113.6 C35.24 69.74, 68.45 33.43, 99.28 -0.34 M-2.08 109.21 C19.97 84.8, 44.89 60.82, 97.47 0.94 M3.25 112.19 C39.86 69.32, 78.21 29.97, 100.54 0.03 M1.13 113.9 C30.15 83.7, 54.58 53.76, 99.69 1.94 M0.34 124.33 C34.19 79.04, 70.19 37.5, 106.21 1.65 M-0.13 122.27 C29.87 88.62, 62.67 55.74, 106.95 0.74 M3.15 124.86 C24.04 96.2, 53.76 66.05, 109.16 -1.38 M0.87 127.77 C37.76 88.22, 72.85 46.43, 112.83 -1.08 M0.86 136.78 C44.77 86.16, 82.89 46.6, 115.75 4.32 M-1.26 133.89 C36.47 92.3, 75.78 46.95, 117.43 0.23 M-0.78 143.9 C32.06 103, 60.96 75.5, 119.51 0.03 M-0.8 142.31 C39.88 95.52, 82.18 48.74, 120.63 0.58 M0.75 143.87 C41.17 98.78, 81.39 53.4, 126.79 -0.45 M-1.14 147.37 C46.24 88.2, 93.28 35.01, 125.29 0.21 M2.81 152.66 C32.13 110.17, 65.45 68.83, 129.34 -1.5 M1.05 152.01 C37.28 107.16, 76.93 60.41, 132.98 -1.68 M3.02 161.35 C48.1 103.87, 96.42 54.48, 140.44 1.7 M0.1 158.14 C45.21 105.47, 94.44 52.88, 136.32 0.08 M-0.16 162.56 C50.73 102.48, 112.78 33.88, 141.67 -1.68 M-0.26 162.96 C45.07 114.55, 87.16 66.61, 142.3 0.06 M-2.63 173.97 C39.08 133.76, 72.35 95.32, 145.08 1.4 M-1.15 172.1 C34.95 127.76, 71.47 85.64, 149.37 0.58 M-1.1 176.22 C37.63 136.69, 78.24 89.91, 155.19 1.85 M0.79 175.12 C43.75 131.2, 84.54 83.33, 152.65 -1.55 M1.53 183.2 C37.24 139.71, 80.89 88.22, 160.86 1.14 M0.67 182.19 C35.16 142.85, 70.61 101.82, 160 -0.69 M-2.44 187.46 C38.07 142.78, 75.78 97.72, 167.36 0.09 M1.16 189.58 C44.13 145.29, 84.03 96.81, 166.04 1.2 M-1.64 197.92 C41.4 153.02, 77.87 111.94, 167.31 -2.99 M-0.18 195.53 C57.32 125.25, 118.29 57.69, 168.39 -0.8 M2.28 201.68 C50.78 148.8, 95.43 96.41, 177.99 2.89 M1.05 200.61 C51.43 144.3, 102.48 87.37, 174.94 -1.31 M-0.28 206.01 C47.56 148.47, 94.29 98.34, 181.19 1.47 M0.77 208.5 C66.59 131.79, 132.22 56.72, 180.33 -0.06 M2.1 210.74 C58.18 146.87, 114.87 79.18, 185.84 2.38 M1.26 214.61 C64.69 139.75, 128.39 67.58, 186.66 -1.24 M2.2 217.55 C38.99 172.45, 79.1 127.13, 193.46 1.67 M-0.57 219.61 C74.67 139.84, 145.9 54.76, 189.76 -0.04 M0.2 224.89 C76.68 138.7, 150.75 47.46, 197.62 2.36 M1.05 226.44 C76.59 134.48, 152.24 48.83, 195.94 -1.11 M0.77 232.17 C77.3 138.67, 157.01 53.04, 199.6 1.23 M0.09 230.73 C70.37 147.36, 143.66 63.49, 202.44 0.96 M7.94 233.14 C80.49 144.54, 155.37 60.48, 206.77 2.22 M4.43 231.45 C67.24 160.78, 132.08 85.66, 208.37 0.63 M9.94 230.02 C63.18 169.16, 117.75 108.59, 212.89 -2.03 M11.13 231.54 C60.32 174.93, 108.97 116.78, 213.07 0.49 M14.26 231.34 C63.45 179.64, 109.65 125.32, 220.46 0.23 M16.77 232.49 C62.17 172.75, 111.03 119.65, 217.87 -0.73 M19.57 231.06 C95.17 139.59, 175.75 49.57, 220.71 -1.45 M20.85 231.83 C68.42 174.05, 116.16 117.25, 221.71 -0.84 M29.35 230.27 C97.33 151.58, 163.03 72.78, 227.44 2.13 M26.07 229.96 C99.18 144.88, 176.72 59.29, 228.71 -0.31 M29.06 233.34 C83.13 171.31, 138.04 110.61, 234.02 -1.53 M32.52 230.25 C95.05 160.7, 156.59 90.49, 232.17 -0.76 M40.2 229.2 C81.41 184.97, 121.25 131.7, 240.75 1.8 M38.01 231.45 C109.86 151.15, 179.51 70.38, 238.87 1.22 M39.68 233.75 C91.7 177.53, 138.43 120.17, 244 2.17 M43.78 230.69 C94.42 171.91, 148.74 111, 244.79 0.3 M48.6 230.63 C108.59 161.12, 174.66 89.12, 251.27 -1.64 M49.07 230.31 C114.03 157.78, 177.37 84.56, 249.92 -1.03 M51.63 230.98 C102.66 181.87, 149.51 126.06, 253.77 -2.88 M53.91 232.21 C112.42 157.33, 176.87 86.62, 255.02 0.68 M56.8 231.56 C115.2 164.55, 176.3 96.7, 261.32 -2.12 M59.49 230.21 C107.05 176.78, 154.87 122.44, 258.71 1.33 M61.21 234.09 C111.5 179.27, 156.9 123.21, 263.99 -2.92 M62.3 230.44 C125.68 163.01, 186.14 92.93, 266.42 -1.07 M70.32 232.22 C137.66 153.02, 206.54 74.1, 272.84 1.65 M68.92 232.13 C146.95 142.11, 223.21 53.04, 270.15 -0.45 M75.22 230.84 C149.88 141.99, 224.87 53.78, 275.71 -1.22 M75.74 230.62 C125.01 170.74, 175.41 111.16, 274.76 1 M77.1 233.89 C124.78 177.44, 170.26 125.25, 278.04 -1.74 M80.17 230.77 C126.9 174.69, 177.67 118.68, 280.61 -1.22 M85.01 230.96 C138.39 164.21, 196.61 102.4, 287.49 2.18 M83.86 231.69 C136.38 169.01, 189.45 107.91, 286.78 -1.37 M87.66 233.04 C151.74 166.17, 213.64 98.11, 291.23 1.17 M88.74 233.23 C139.81 180.22, 188.28 126.59, 290.98 -0.65 M98.17 234.36 C158.54 160.92, 216.55 93.92, 298.32 1.78 M95.21 230.6 C168.29 151.53, 240.4 65.5, 295.69 -0.37 M99.44 234.48 C177.41 142.09, 255.82 54.89, 299.68 -0.37 M100.63 233.2 C175.07 151.31, 248.32 67.29, 302.29 1.04 M106.86 234.07 C157.7 169.13, 213.77 107.29, 310.47 1.05 M106.93 232.49 C158.93 167.87, 214.67 104.98, 308.55 0.45 M113.78 233.92 C179.71 145.23, 252.84 62.55, 312.71 1.96 M110.37 232.45 C181.45 152.69, 253.3 69.21, 311.41 -1.2 M119.51 230.66 C193.41 150.87, 264.15 64.3, 320.83 -2.01 M117.79 231.84 C169.04 171.53, 224 108.38, 318.88 -0.77 M120.93 233.16 C169.11 181.28, 214.2 129.49, 324.19 -1.98 M122.02 231.55 C199 143.51, 271.26 61.45, 324.01 1.48 M129.06 229.33 C170.79 178.66, 221.56 123.59, 329.6 -0.4 M126.71 231.3 C181.42 166.07, 241.06 99.36, 328.29 0.04 M131.72 231.43 C203.6 152.03, 278.21 66.39, 332.71 2.53 M133.31 231.24 C180.81 169.96, 229.29 111.26, 332.95 -1.33 M138.98 231.28 C199.07 163.16, 255.37 101.28, 337.39 1.63 M137.08 231.52 C185.29 177.7, 232.62 123.12, 339.28 -0.04 M145.85 234.04 C189.6 173.97, 239.59 117.64, 344.48 0.23 M142.86 231.02 C200.93 164.03, 259.56 98.08, 345.67 -0.37 M148.82 230.78 C225.61 139.06, 307.49 48.67, 343.46 2.51 M149.59 232.7 C208.57 165.47, 265.4 100.26, 346.29 4.43 M154.81 232.22 C192.99 180.89, 235.38 132.05, 343.9 11.29 M154.51 230.59 C205.62 173.57, 258.27 114.54, 344.66 10.69 M156.96 229.6 C236.59 151.66, 310.05 65.38, 345.1 14.56 M160.79 229.99 C230.67 151.93, 298.97 74.99, 344.98 16.8 M161.7 228.8 C219.86 168.44, 273.82 103.25, 346.04 23.55 M164.22 231.39 C235.8 155.58, 305.35 74.76, 347.19 23.86 M169.88 228.42 C228.74 155.53, 295.44 80.24, 344.1 27.86 M170.04 229.89 C220.15 175.35, 268.45 120.74, 346.59 29.42 M173.73 230.54 C230.69 170.43, 292.12 106.91, 345.86 34.73 M176.37 232.09 C232.49 161.04, 294.26 90.76, 344.02 34.21 M180.8 230.04 C245.63 162.09, 305.27 94.26, 342.69 39.16 M181.69 231.1 C240.46 158.91, 305.3 85.28, 345.18 39.94 M186.34 232.3 C220.19 190.25, 259.88 141.88, 346.85 46.94 M187.02 233.04 C235.63 174.54, 284.64 116.71, 345.17 48.1 M190.21 230.31 C234.09 174.43, 284.57 115.43, 347.26 55.25 M190.14 232.27 C233.69 182.84, 278.52 130.96, 346.78 52.65 M198.22 232 C255.72 164.57, 312.38 101.96, 342.79 60.29 M197.88 231.47 C243.76 180.17, 285.78 130.76, 344.75 59.23 M199.5 231.2 C242.03 187.08, 284.58 141.21, 344.06 64.11 M199.93 230.6 C257.34 163.05, 314.79 98.03, 344.78 64.74 M208.36 234.7 C238.75 191.34, 273.3 156.8, 343.75 72.64 M208.43 229.79 C260.11 170.9, 313.44 111.88, 347.53 73.08 M210.39 228.89 C261.69 173.31, 311.35 108.75, 345.1 75.26 M210.7 231.93 C260.83 176.34, 310.17 120.48, 347.31 78.07 M220.03 228.07 C255.88 190.58, 287.65 150.94, 345.2 83.84 M217.36 230.93 C262.25 186.1, 301.86 139.8, 346.46 82.37 M224.37 235.47 C265.42 182.55, 310.35 138.28, 347.78 87.33 M221.02 232.13 C246.3 205.39, 273.16 176.67, 344 88.09 M229.03 229.73 C259.75 193.99, 292.67 152.04, 343.96 92.65 M228.14 233.15 C262.84 189.56, 301.07 151.24, 344.11 98.26 M229.58 231.49 C264.27 197.03, 299.68 150.04, 345.98 103.07 M233.79 233.44 C274.46 181.9, 319.09 130, 346.58 101.04 M236.23 231.43 C267.6 198.32, 297.38 167.11, 344.74 106.51 M240.02 230.08 C265.4 204.36, 288.04 173.15, 344.28 107.81 M244.26 230.63 C284.2 187.1, 322.32 136.23, 350.07 116.66 M241.77 231.61 C280.53 187.95, 320.98 142.34, 344.87 113.71 M250.83 232.92 C285.99 192.6, 315.98 153.29, 345.1 117.38 M249.29 229.84 C273.54 202.64, 292.93 176.49, 344.81 119.44 M257.4 229.33 C288.46 194.54, 320.48 156.83, 342.43 127.79 M254.09 233.66 C281.04 202.49, 306.13 174.64, 347.08 127.88 M262.59 230.39 C280.49 213.85, 297.81 185.36, 349.86 134.91 M259.4 232.85 C289.46 200.49, 317.49 168.98, 346.43 134.08 M264.55 234.52 C278.13 210.45, 295.39 196.46, 347.96 142.31 M266.08 231.91 C291.5 199.95, 319.11 167.74, 344.59 137.38 M269.85 228.44 C300 204.45, 322.62 170.56, 341.71 143.94 M271.07 229.82 C297.63 202.69, 323.3 171.79, 345.4 144.69 M271.83 235.52 C294.12 212.76, 312.22 189.36, 346.13 148.78 M277.31 229.93 C300.05 202.88, 324.26 174.86, 346.04 150.57 M283.51 228.14 C306.78 205.55, 328.77 179.96, 343.91 153.49 M280.21 231.72 C299.67 213.47, 316.82 191.61, 346.2 159.27 M283.92 232.11 C303.21 210.82, 329.26 182.13, 349.66 159.46 M285.56 232.61 C306.98 208.35, 328.11 184.79, 345.94 161.32 M291.02 230.99 C311.63 203.71, 335.27 183.66, 348.28 173.28 M291.97 231.81 C307.3 215.1, 320.26 201.59, 347.55 171.33 M300.05 230.51 C310.89 216.86, 322.36 203.5, 343.16 175.78 M296.82 232.09 C313.49 212.83, 331.93 193.58, 345.37 176.56 M300.41 234.92 C311.32 217.45, 321.88 212.36, 345.87 182.71 M302.69 231.63 C319.71 212.19, 333.61 192.54, 347.03 182.95 M310.03 231.37 C324.09 213.03, 336.41 204.06, 345.79 189.35 M307.31 229.8 C318.11 219.52, 328.11 210.05, 344.6 187.23 M311.6 231.04 C320.38 217.34, 333.55 204.43, 346.31 191.62 M313.31 231.76 C324.21 217.06, 333.97 204.37, 346.45 191.45 M314.22 233.77 C328.07 222.66, 331.4 212.42, 347.26 198.48 M317.47 230.47 C326.59 221.07, 334.82 212.53, 345.13 198.81 M323.05 228.67 C327.65 227.95, 336.53 219.65, 349.1 205.04 M321.92 230.8 C331.23 220.73, 341.81 211.98, 345.19 208.21 M327.54 231.24 C330.03 225.41, 336.01 219.02, 346.56 209.17 M329.94 232.07 C335.75 224.04, 342.35 217.94, 346.36 210.31 M332.01 231.8 C334.53 225.86, 340.96 224.8, 342.63 216.38 M333.87 231.88 C336.11 229.39, 339.33 222.75, 344.88 217.69 M337.45 231.6 C342.55 228.2, 341.82 229.19, 346.58 223.88 M339.51 231.67 C342.22 229.98, 343.52 225.87, 346.43 224.46 M344.77 231.84 C344.43 231.08, 345.16 230.59, 345.4 230.36 M344.2 231.99 C344.55 231.48, 345.04 231.26, 345.85 230.43" stroke="#ffec99" stroke-width="0.5" fill="none"></path><path d="M0.06 -1.49 C138.9 -1.69, 274.57 -0.61, 348 1.42 M0.98 1.1 C136.24 2.43, 270.83 0.97, 345.66 -0.29 M344.83 1.59 C345.36 62.16, 350.43 129.17, 348.91 231.05 M344.34 -0.81 C343.09 65.93, 342.94 134.21, 347.33 231.86 M344.42 230.13 C221.27 231.82, 99.86 230.75, -1.92 230.24 M345.58 231.06 C245.11 227.54, 144.37 227.97, -1.27 231.92 M1.41 228.72 C-0.44 136.21, 0.8 43.85, -1.5 3.03 M-0.26 231.23 C2.67 138.74, 2.06 47.89, -1.4 0.75" stroke="#1e1e1e" stroke-width="1" fill="none"></path></g><g transform="translate(266.05214009327176 60.03545548228567) rotate(0 45.9697265625 7.246404589512849)"><text x="45.9697265625" y="0" font-family="Cascadia, Segoe UI Emoji" font-size="12.077340982521445px" fill="#1e1e1e" text-anchor="middle" style="white-space: pre;" direction="ltr" dominant-baseline="text-before-edge">greeter.proto</text></g><g transform="translate(266.08370343620766 104.71353052711811) rotate(0 155.58984375 79.71045048464157)"><text x="0" y="0" font-family="Cascadia, Segoe UI Emoji" font-size="12.077340982521445px" fill="#1e1e1e" text-anchor="start" style="white-space: pre;" direction="ltr" dominant-baseline="text-before-edge">syntax = "proto3";</text><text x="0" y="14.492809179025734" font-family="Cascadia, Segoe UI Emoji" font-size="12.077340982521445px" fill="#1e1e1e" text-anchor="start" style="white-space: pre;" direction="ltr" dominant-baseline="text-before-edge"></text><text x="0" y="28.985618358051468" font-family="Cascadia, Segoe UI Emoji" font-size="12.077340982521445px" fill="#1e1e1e" text-anchor="start" style="white-space: pre;" direction="ltr" dominant-baseline="text-before-edge">package helloworld;</text><text x="0" y="43.4784275370772" font-family="Cascadia, Segoe UI Emoji" font-size="12.077340982521445px" fill="#1e1e1e" text-anchor="start" style="white-space: pre;" direction="ltr" dominant-baseline="text-before-edge"></text><text x="0" y="57.971236716102936" font-family="Cascadia, Segoe UI Emoji" font-size="12.077340982521445px" fill="#1e1e1e" text-anchor="start" style="white-space: pre;" direction="ltr" dominant-baseline="text-before-edge">service Greeter {</text><text x="0" y="72.46404589512866" font-family="Cascadia, Segoe UI Emoji" font-size="12.077340982521445px" fill="#1e1e1e" text-anchor="start" style="white-space: pre;" direction="ltr" dominant-baseline="text-before-edge">  rpc SayGreet(Message) returns (Message) {}</text><text x="0" y="86.9568550741544" font-family="Cascadia, Segoe UI Emoji" font-size="12.077340982521445px" fill="#1e1e1e" text-anchor="start" style="white-space: pre;" direction="ltr" dominant-baseline="text-before-edge">}</text><text x="0" y="101.44966425318015" font-family="Cascadia, Segoe UI Emoji" font-size="12.077340982521445px" fill="#1e1e1e" text-anchor="start" style="white-space: pre;" direction="ltr" dominant-baseline="text-before-edge"></text><text x="0" y="115.94247343220587" font-family="Cascadia, Segoe UI Emoji" font-size="12.077340982521445px" fill="#1e1e1e" text-anchor="start" style="white-space: pre;" direction="ltr" dominant-baseline="text-before-edge">message Message {</text><text x="0" y="130.4352826112316" font-family="Cascadia, Segoe UI Emoji" font-size="12.077340982521445px" fill="#1e1e1e" text-anchor="start" style="white-space: pre;" direction="ltr" dominant-baseline="text-before-edge">  string message = 1;</text><text x="0" y="144.92809179025733" font-family="Cascadia, Segoe UI Emoji" font-size="12.077340982521445px" fill="#1e1e1e" text-anchor="start" style="white-space: pre;" direction="ltr" dominant-baseline="text-before-edge">}</text></g><g stroke-linecap="round"><g transform="translate(267.5381831724212 89.66384649752877) rotate(0 27.64670057016866 0.6471294929940541)"><path d="M3.36 3 C20.11 3.73, 41.05 -0.42, 51.89 0.55 M-1.5 0.68 C20.49 0.95, 36.16 -1.52, 55.07 -0.41" stroke="#2f9e44" stroke-width="1" fill="none"></path></g></g><mask></mask><g stroke-linecap="round" transform="translate(271.02488224858575 322.9344284241597) rotate(0 154.1281157105591 100.52757706394772)"><path d="M0 0 C0 0, 0 0, 0 0 M0 0 C0 0, 0 0, 0 0 M-0.93 5.54 C1.31 3.3, 3.6 3.13, 5.13 -0.36 M-0.22 6.63 C0.85 4.44, 3.5 2.2, 4.36 0.85 M3 10.49 C1.14 10.61, 8.94 1.64, 13.79 0.55 M1.19 12.55 C1.34 9.79, 4.85 5.52, 10.01 -0.8 M-2.11 18.57 C8.83 14.98, 14.77 2.07, 18.89 1.56 M-0.28 19.16 C3.51 11.44, 8.16 8.11, 14.06 -0.68 M-0.62 23.52 C8.18 15.01, 16.47 7.23, 25.04 1.34 M0.91 24.19 C9.51 15.38, 17.95 7.8, 19.53 1.39 M1.79 34.17 C12.16 24.05, 17.08 9.71, 22.75 1.47 M-1.57 31.42 C10.1 20.49, 17.5 13.32, 27.83 2.07 M-2.73 36.72 C6.48 30.49, 15.65 16.22, 29.08 1.45 M-1.18 38.63 C8.38 23.52, 21.02 12.13, 31.27 1.62 M-2.29 39.47 C11.9 29.89, 18.64 25.22, 38.29 3.81 M-0.74 43.62 C15.09 27.93, 23.94 15.23, 37.07 -0.59 M3.82 49.96 C18.17 34.24, 31.43 12.18, 42.22 2.9 M-1.02 47.96 C18.36 31.39, 35.27 11.97, 44.09 -0.63 M0.92 56.59 C11.67 38.53, 27.79 28.46, 44.17 -2.18 M-0.65 55.31 C15.26 36.04, 32.24 19.03, 46.97 1.6 M-3.22 57.47 C16.95 35.39, 43.53 11.44, 55.28 -2.75 M0.04 59.03 C14.25 48.04, 24.03 32.22, 52.85 -0.05 M1.35 66.1 C24.44 40.64, 42.81 19.6, 60.39 0.38 M-0.96 68.44 C16.65 47.48, 35.03 26.78, 57.56 1.53 M3.9 72.41 C20.77 49.81, 42.22 29.51, 62.41 1.74 M0.16 72.64 C21.33 44.63, 48.44 18.72, 62.26 0.33 M2.2 79.99 C14.39 63.84, 27.81 41.78, 72.23 4.1 M-1.54 78.35 C18.66 60.9, 33.25 42.54, 69.7 0.76 M2.23 83.62 C18.22 67.89, 33.37 42.44, 73.06 -0.68 M-1.67 86.2 C30.78 49.41, 60.9 15.71, 72.86 -0.83 M-3.97 94.2 C27.16 59.54, 51.2 29.4, 82.31 -2.75 M-0.37 92.3 C18.2 72.02, 35.13 51.67, 79.13 -0.51 M1.46 100.38 C18.7 76.15, 37.11 52.44, 83.99 -1.4 M-0.26 96.55 C33.68 60.24, 63.71 23.78, 87.04 -1.27 M3.33 105.61 C25.18 69.94, 50.23 42.08, 90.55 -0.19 M-0.95 104.46 C26.56 78.63, 50.9 50.89, 90.4 -1.41 M2.58 113.39 C28.76 82.19, 53.67 44.87, 99.29 -2.1 M0.4 110.94 C29.82 74.24, 56.06 43.39, 95.03 -1.02 M3.95 116.78 C28.78 84.01, 55.46 52.04, 98.19 3.42 M1.1 114.65 C40.86 72, 80.26 26.84, 98.92 1.6 M-2.08 119.33 C35.8 73.57, 76.84 28.59, 102.34 -2.78 M1.17 121.52 C41.19 74.19, 81.41 30.79, 104.92 -0.5 M-3.63 124.71 C23.78 104.39, 48.3 70.8, 111.77 -0.57 M-0.68 127.1 C27.97 94.04, 58.39 60.48, 112.93 0.68 M1.78 137.79 C38.03 88.9, 79.03 41.78, 115.2 3 M0.44 132.34 C42.23 81.81, 86.89 32.83, 115.96 2.32 M-3.64 137.82 C36.73 98.6, 67.03 62.8, 123.16 -1.13 M1.06 141.43 C40.51 94.34, 76.12 50.34, 123.54 -1.32 M-2.23 144.03 C35.21 104.86, 67.64 64.37, 125.19 -2.9 M-0.59 146.1 C34.04 105.45, 67.45 66.84, 127.23 -1.16 M-2.67 152.49 C47.54 91.99, 98.85 34.49, 129.84 -3.18 M1.41 151.32 C42.72 103.75, 85.98 53.44, 130.86 -0.83 M-1.65 161.44 C38.96 113.86, 81.96 69.22, 140.59 1.23 M-0.47 158.93 C28.69 128.29, 55.13 96.43, 135.91 0.38 M-0.46 162.37 C40.88 118.58, 83.25 66.62, 145.08 -1.22 M0.51 163.04 C32.11 130.7, 58.06 98.01, 144.86 0.02 M2.12 168.59 C53.94 110.89, 105.09 54.63, 150.8 -1.26 M-0.93 171.3 C45.18 116.98, 90.97 64.48, 148.71 1.05 M0.05 177.34 C44.44 128.44, 90 71.6, 150.98 2.85 M-0.26 178.14 C52.03 115.06, 103.11 53.56, 154.38 0.29 M-1.94 182.48 C41.55 132.55, 85.08 84.93, 159.71 0.82 M-1.01 182.84 C43.01 135.65, 87.34 83.87, 158 0.97 M1.4 191.71 C49.95 126.61, 111.33 64, 165.64 -2.79 M-0.42 190.31 C59.44 121.74, 118.44 55.11, 165.1 1.2 M-2.76 194.48 C51.66 134.86, 101.59 77.54, 166.84 -0.89 M-0.25 194.7 C37.01 151.99, 72.89 108.15, 168.25 -0.18 M-2.34 199.64 C52.9 143.01, 108.5 80.92, 177.52 2.9 M0.66 201.1 C47.63 143.68, 98.55 85.19, 176.39 1.21 M6.3 203.21 C62.57 139.21, 113.98 77.77, 177.47 3.2 M4.5 202.39 C75.25 118.42, 143.48 40.46, 180.12 -1.39 M10.14 202.68 C60.12 135.76, 116.42 78.69, 183.54 -1.71 M8.96 200.03 C50.04 159.72, 87.21 116.58, 186.8 1.05 M15.31 203.46 C61.38 148.85, 105.41 97.89, 192.9 -1.6 M16.66 200.08 C62.85 141.38, 114.53 82.61, 189.51 1.13 M23.29 201.58 C62.05 154.47, 101.29 111.45, 197.11 -0.1 M21.07 199.7 C67.85 148.18, 114.97 95.78, 195.54 -1.37 M26.02 202.13 C79.32 138.98, 135.31 75.85, 201.49 -0.13 M25.55 201.18 C80.24 134.44, 134.45 70.86, 201.72 -0.11 M31.54 202.2 C98.52 126.04, 157.49 58.75, 207.49 1.85 M31.3 201.99 C95.75 128.86, 161.86 54.81, 207.2 0.34 M40.1 203 C83.34 147.55, 130.94 91.17, 213.13 -1.16 M37.46 199.33 C94.12 133.13, 151.23 65.21, 210.82 -0.26 M44.57 199.12 C103.72 130.42, 169.58 55.81, 220.7 -2.01 M41.73 202.21 C96.02 139.27, 152.61 75.7, 217.59 0.45 M50.77 203.28 C94.61 150.44, 135.81 104.26, 224.53 -2.69 M46.72 201.35 C99.23 140.63, 152.21 78.44, 223.43 0.56 M52.58 204.02 C111.44 131.2, 172.39 65.49, 231.24 -2.28 M54.32 200.12 C110.12 140.58, 162.11 79.86, 227.93 -1.51 M58.61 203.09 C110.73 146.62, 160.56 89.09, 235 -1.35 M59.38 200.32 C102.5 145.06, 146.6 91.49, 231.8 -1.24 M61.01 198.37 C122.94 137.74, 181.49 72.04, 237.09 -1.7 M63.02 201.51 C99.31 161.57, 133.3 119.65, 239.44 1.57 M67.75 203.06 C125.92 130.08, 192.34 56.62, 243.33 -1.92 M68.85 200.13 C128.99 132.62, 189.08 65.06, 243.87 -1.59 M74.75 199.67 C144.32 128.52, 211.12 52.77, 251.89 -2.32 M74.27 200.87 C120.14 146.38, 166.36 93.85, 248.06 0.84 M78.99 204.48 C121.44 150.36, 160.41 104.85, 257.22 -1.56 M79.09 201.29 C137.92 133.55, 198.23 65.04, 253.24 0.12 M82.38 201.5 C139.22 131.31, 198.41 63.15, 259.92 2.1 M83.36 201.89 C120.21 159.85, 156.08 119.39, 257.94 -0.27 M89.04 204.32 C157.32 121.23, 224.56 44.87, 264.91 0.77 M89.59 200.81 C153.34 129.14, 213.86 55.7, 265.99 -0.48 M97.17 201.94 C142.21 146.7, 186.08 96.77, 272.42 1.02 M94.91 200.07 C157.85 129.06, 220.18 57.41, 269.78 -0.18 M102.63 201.72 C145.95 156.83, 180.81 111.93, 276.16 1.14 M99.59 200.19 C157.97 132.39, 218.39 63, 277.09 1.4 M103.46 200.41 C165.23 131.71, 230.03 57.73, 279.55 2.62 M105.52 200.13 C160.86 134.16, 218.32 68.46, 281.81 0.08 M109.74 201.88 C168.91 142.27, 221.93 74.83, 287.6 0.08 M112.13 201.43 C175.37 125.44, 240.23 48.12, 287.63 -0.71 M116.59 200.79 C164.01 150.94, 205.78 96.56, 291.49 -0.98 M118 201.79 C167.54 141.48, 219.99 81.48, 291.34 1.57 M120.32 200.29 C188.45 128.02, 253.1 50.97, 298.43 -0.54 M123.06 202.35 C187.26 126.67, 253.2 54.06, 297.05 -0.98 M129.29 202 C188.98 125.54, 255.73 53.98, 303.61 1.05 M127.12 201.33 C183.97 137.27, 236.51 74.4, 302.66 -0.47 M129.58 198.49 C173.4 155.18, 213.23 106.19, 307.35 -0.67 M132.03 201.27 C193.9 127.51, 257.98 50.35, 307.79 -1.72 M140.04 201.12 C192.52 141.64, 245.52 77.43, 310.39 -0.57 M137.01 199.49 C183.55 153.59, 227.84 104.83, 310.87 3.06 M139.98 200.95 C191.15 144.23, 239.82 89.37, 308.38 9.41 M144.11 201.75 C183.71 151.42, 228.84 101.96, 310.22 9.12 M149.96 202.99 C192.38 146.65, 236.39 101.12, 312.28 15.3 M150.19 199.88 C182.86 160.76, 217.94 118.32, 310.27 14.43 M152.1 199.17 C197.69 152.23, 243.31 100.71, 312.12 18.97 M152.26 201.56 C189.05 156.83, 227.18 115.43, 311.5 20.09 M159.5 204.17 C192.16 158.89, 231.25 120.56, 313.13 23.3 M159.28 201.25 C210.46 140.03, 266.36 80.49, 309.32 26.98 M167.73 200.52 C202.23 155.35, 247.65 108.32, 313.72 30.09 M164.77 200.5 C215.81 145.45, 264.61 87.39, 311.9 34.1 M172.14 202.29 C227.67 140.71, 279 70.15, 312.33 40.55 M171.55 201.87 C203.25 162.78, 234.84 125.55, 312.2 37.87 M172.25 198.85 C209.11 154.56, 249.48 110.47, 308.32 42.71 M174.03 202.46 C224.84 141.03, 276.18 84.96, 309.25 44.91 M183.69 200.48 C218.22 152.21, 266.24 104.01, 309.63 54.75 M179.98 202.07 C215.15 162.99, 245.55 125.84, 311.16 50.6 M187.16 197.61 C218.19 159.26, 252.6 123.2, 308.71 57.47 M184.97 199.5 C228.82 155.9, 267.32 107.71, 310.9 55.13 M193.19 201.93 C243.23 148.43, 285.34 94.28, 312.24 62.77 M191.66 203.2 C222.1 169.36, 252.91 129.99, 311.21 63.94 M195.83 201.64 C234.03 155.19, 276.02 111.91, 314.52 72.93 M196.63 202.82 C235.02 154.31, 276.14 111.11, 309.78 69.96 M198.25 202.05 C245.23 150.07, 283.09 103.48, 311.06 77.2 M200.44 203.04 C233.37 160.49, 266.11 122.07, 311.22 77.15 M205.03 202.44 C240.65 163.23, 283.39 124.04, 310.3 81.45 M206.36 199.03 C228.08 177.97, 251.13 155.49, 311.08 82.82 M208.13 204.97 C246.38 159.92, 287.55 113.68, 310.76 85.26 M210.48 202.13 C242.42 162.43, 274.24 123.99, 311.37 85.46 M219.18 199.48 C241.81 173.72, 262.76 153.29, 314.2 95.08 M216.47 199.27 C235.31 177.48, 256.32 155.87, 309.96 94.53 M223.41 204.48 C255.42 166.84, 292.05 125.23, 309.32 101.85 M221.75 202.67 C241.74 175.53, 263.9 153.29, 310.69 98.77 M228.01 203.92 C254.92 163.31, 287.22 127.31, 313.68 105.83 M228.13 201.3 C252.68 172.1, 277.38 145.49, 309.47 107.81 M232 204.11 C256.55 177.22, 276.02 145.9, 309.38 110.31 M232.07 202.51 C251.01 184.65, 267.54 165.49, 312.4 112.4 M242.58 202.59 C259.04 183.24, 269.43 166.45, 312.22 118.64 M239.33 199.55 C262.48 172.89, 285.26 146.84, 309.16 118.3 M245.08 205.02 C263.58 174.84, 283.16 155.03, 308.87 127.42 M243.13 201.16 C258.61 183.65, 276.89 165.91, 312.53 126.05 M251.25 202.03 C269.68 174.99, 293.32 147.87, 308.58 132.11 M250.91 199.1 C264.75 182.41, 280.94 164.43, 310.4 129.29 M253.18 202.1 C270.8 187.44, 281.98 170.92, 309.05 139.9 M254.44 201.78 C275.85 175.16, 296.84 149.62, 309.98 134.34 M263.67 200.45 C276.17 181.54, 298.97 156.54, 308.18 143.33 M260.56 201.72 C273.46 186.5, 289.19 169.12, 309.8 142.49 M262.12 203.9 C277.77 182.58, 291.95 167.55, 313.16 145.41 M265.35 201.2 C277.23 184.31, 290.96 169.91, 311.17 149.8 M266.86 199.76 C289.76 181.03, 299.04 163.19, 313.72 156.78 M268.81 199.78 C282.38 187.53, 291.13 175.41, 311.72 152.97 M273.05 204.68 C287.77 187.21, 303.44 173.45, 313.75 157.29 M277.07 199.89 C284.07 191.62, 293.81 181.41, 311.34 161.59 M285.09 201.55 C296.73 188.92, 302.1 172.39, 309.25 168.91 M281.04 202.35 C288.75 191.13, 297.23 185.84, 310.44 167.76 M286.43 204.37 C292.48 192.2, 299.06 184.22, 312.01 169.32 M286.64 199.98 C291.66 193.96, 298.76 189.94, 311.93 174.33 M287.98 203.1 C295.61 195.83, 302.5 182.35, 314.79 177.08 M293.46 201.13 C294.1 196.89, 299.87 191.19, 310.72 180.77 M298.01 204.59 C299.01 196.47, 307.63 187.54, 308.44 188.72 M296.95 199.27 C303.5 195.47, 308.63 190.04, 309.19 186.98 M304.62 201.94 C306.73 201.3, 306.51 196.36, 310.09 191.92 M302.3 201.32 C303.28 200.07, 305.6 196, 309.74 191.36 M308.36 201.97 C308.61 199.56, 310.44 197.99, 310.82 197.13 M307.33 201.1 C308.31 200.4, 309.41 199.38, 311.16 196.83" stroke="#a5d8ff" stroke-width="0.5" fill="none"></path><path d="M0.52 2.08 C123.67 3.78, 245.91 3.73, 311.04 -2.57 M-0.19 0.05 C108.38 3.12, 216.68 2.32, 308.7 0.01 M308.93 3.52 C310.29 72, 303.35 144.6, 308.34 203.35 M307 1.01 C305.79 57.76, 305.48 114.05, 308.35 199.81 M310.33 203.43 C190.21 200.9, 72.26 199.5, -2.48 200.7 M307.53 199.9 C196.28 198.56, 82.27 199.68, -0.75 199.98 M2.92 199.33 C-3.95 130.17, -3.38 54.5, 0.66 -0.28 M-1.32 200.81 C0.68 150.97, 1.34 99.43, 1.27 0.03" stroke="#1e1e1e" stroke-width="1" fill="none"></path></g><g transform="translate(288.0033405520845 379.0559020950518) rotate(0 137.9091796875 65.21764130561581)"><text x="0" y="0" font-family="Cascadia, Segoe UI Emoji" font-size="12.077340982521445px" fill="#1e1e1e" text-anchor="start" style="white-space: pre;" direction="ltr" dominant-baseline="text-before-edge">import GrpcLoader from 'grpcity'</text><text x="0" y="14.492809179025734" font-family="Cascadia, Segoe UI Emoji" font-size="12.077340982521445px" fill="#1e1e1e" text-anchor="start" style="white-space: pre;" direction="ltr" dominant-baseline="text-before-edge">//...</text><text x="0" y="28.985618358051468" font-family="Cascadia, Segoe UI Emoji" font-size="12.077340982521445px" fill="#1e1e1e" text-anchor="start" style="white-space: pre;" direction="ltr" dominant-baseline="text-before-edge"></text><text x="0" y="43.4784275370772" font-family="Cascadia, Segoe UI Emoji" font-size="12.077340982521445px" fill="#1e1e1e" text-anchor="start" style="white-space: pre;" direction="ltr" dominant-baseline="text-before-edge">export default new GrpcLoader({</text><text x="0" y="57.971236716102936" font-family="Cascadia, Segoe UI Emoji" font-size="12.077340982521445px" fill="#1e1e1e" text-anchor="start" style="white-space: pre;" direction="ltr" dominant-baseline="text-before-edge">  location: path.join(__dirname, './'),</text><text x="0" y="72.46404589512866" font-family="Cascadia, Segoe UI Emoji" font-size="12.077340982521445px" fill="#1e1e1e" text-anchor="start" style="white-space: pre;" direction="ltr" dominant-baseline="text-before-edge">  files: [</text><text x="0" y="86.9568550741544" font-family="Cascadia, Segoe UI Emoji" font-size="12.077340982521445px" fill="#1e1e1e" text-anchor="start" style="white-space: pre;" direction="ltr" dominant-baseline="text-before-edge">    'greeter.proto'</text><text x="0" y="101.44966425318015" font-family="Cascadia, Segoe UI Emoji" font-size="12.077340982521445px" fill="#1e1e1e" text-anchor="start" style="white-space: pre;" direction="ltr" dominant-baseline="text-before-edge">  ]</text><text x="0" y="115.94247343220587" font-family="Cascadia, Segoe UI Emoji" font-size="12.077340982521445px" fill="#1e1e1e" text-anchor="start" style="white-space: pre;" direction="ltr" dominant-baseline="text-before-edge">})</text></g><g transform="translate(287.94265527765174 336.92593370692884) rotate(0 31.8251953125 7.246404589512849)"><text x="31.8251953125" y="0" font-family="Cascadia, Segoe UI Emoji" font-size="12.077340982521443px" fill="#1e1e1e" text-anchor="middle" style="white-space: pre;" direction="ltr" dominant-baseline="text-before-edge">loader.js</text></g><g stroke-linecap="round"><g transform="translate(287.4179544697647 365.6468667934223) rotate(0 27.64670057016866 0.6471294929940541)"><path d="M0.22 -0.28 C18.09 4.14, 37.47 -2.32, 56.13 2.02 M0.51 -0.27 C18.22 -2.25, 34.85 -0.11, 55.92 1.99" stroke="#2f9e44" stroke-width="1" fill="none"></path></g></g><mask></mask><g stroke-linecap="round" transform="translate(52.02300406409449 720.0739657197422) rotate(0 167.39284960007848 220.6250192507958)"><path d="M0 0 C0 0, 0 0, 0 0 M0 0 C0 0, 0 0, 0 0 M-0.52 5.27 C1.5 5.59, 3.69 1.38, 5.36 -0.82 M0.41 6.65 C1.4 4.37, 2.61 2.34, 5.79 -0.09 M-2.32 9.13 C2.68 8.32, 9.79 1.87, 8.79 2.97 M-0.13 11.26 C4.78 5.76, 7.17 1.55, 11.42 0.03 M-0.49 19.47 C3.87 15.79, 11.03 7.04, 15.38 -3.24 M-1.04 19.47 C5 12.43, 6.98 10.07, 16.31 0.13 M1.83 24 C5.01 13.56, 13.3 11.84, 22.46 -1.91 M-0.15 22.33 C7.51 18.82, 14.35 11.43, 21.28 0.71 M2.26 28.6 C9.02 25.71, 9.74 12.43, 27.92 2.51 M0.56 29.6 C6.52 21.56, 14.22 13.53, 26.76 -1.09 M1.59 36.85 C13.6 27.6, 22.09 14.79, 29.44 -1.09 M-1.66 35.4 C12.25 22.79, 22.02 11.77, 33.75 1.35 M0.31 46.42 C8.38 34.88, 15.38 25.92, 37.91 -0.82 M-0.97 43.81 C8.74 31.57, 16.23 21.57, 36.17 -0.32 M-0.23 50.23 C18.14 27.42, 32.05 9.04, 41.78 3.05 M0.57 48.73 C9.28 37.76, 19.66 26.89, 41.55 0.14 M-2.09 58.04 C13.63 46.98, 24.04 30.02, 45 2.99 M1.01 56.14 C13.93 37.74, 25.28 24.81, 47.23 -0.83 M3.13 61.36 C12.76 48.67, 24.54 32.66, 55.31 -2.93 M-1.3 59.7 C13.82 41.38, 31.84 25.09, 53.03 0.9 M-2 71.04 C21.56 46.04, 43.71 24.02, 58.19 1.85 M0.32 67.04 C24.08 40.42, 46.63 14.25, 57.46 0.78 M-3.58 70.41 C21.34 52.48, 37.64 24.62, 61.17 1.23 M0.37 71.58 C25.17 45.15, 51.99 14.83, 62.4 -0.9 M0.77 76.41 C20.95 55.57, 36.34 40.98, 67.77 -0.65 M-1.39 78.36 C18.82 61.67, 33.09 40.15, 69.25 0.57 M1.67 85.2 C33.2 48.63, 56.48 19.87, 73.82 1.45 M2.09 84.3 C18.48 61.04, 37.68 38.62, 75.7 -0.12 M3.78 89.08 C12.2 74.42, 33.59 57.76, 81.36 2.76 M-0.62 91.85 C23.3 60.93, 48.82 36.97, 79.82 1.25 M1.59 94.04 C21.8 75.79, 38.13 47.97, 87.02 1.36 M-1.45 97.2 C21.79 71.46, 47.47 42.83, 84.82 0.02 M0.54 100.93 C21.94 86.25, 39.76 59.37, 87.87 3.06 M0.66 104.18 C25.46 75.04, 52.11 44.12, 91.21 -1.81 M2.17 106.61 C26.58 79.15, 59.03 39.24, 93.85 2.28 M-0.76 108.02 C31.33 70.52, 64.22 33.78, 97.5 -2.02 M-0.12 117.52 C35.97 76.82, 69.35 37.13, 101.55 2.91 M0.3 113.67 C30.93 79.01, 63.24 42.77, 100.35 1.41 M0.74 122.6 C25.14 89.58, 57.86 63.55, 106.7 -0.8 M-1.46 123.4 C21.63 95.03, 45.11 67.63, 107.31 -0.15 M-2.72 130.86 C22.53 103.24, 45.34 70.87, 109.94 -3.37 M1.35 127.06 C41.93 78.62, 88.25 28.82, 112.97 1.59 M0.59 132.58 C46.95 80.75, 88.58 28.32, 112.62 1.56 M0.32 133.91 C46.01 82.34, 89.6 34.35, 115.02 2.14 M-2.48 136.37 C32.05 109.42, 64.14 71.21, 125.9 -1.72 M0.67 138.46 C39.15 97.73, 77.5 54.57, 121.68 0.06 M-1.66 146.84 C30.24 105.25, 64.17 70.81, 127.94 2.23 M-0.69 144.75 C47.71 95.71, 89.91 42.41, 125.21 -1.23 M-1.17 149.74 C35.42 109.49, 65.4 74.33, 135.28 -2.2 M-0.9 151.98 C38.68 106.24, 81.19 57.48, 131.98 -1.05 M2.85 159.94 C41.31 108.86, 85.7 65.13, 134.7 1.82 M-1.44 158.58 C45.62 104.05, 94.66 48.96, 136.47 -0.36 M-0.94 166.11 C39.05 118.72, 77.82 75.96, 142.62 3.35 M1.37 164.41 C42.21 118.31, 79.9 74.02, 143.84 -1.29 M3.3 168.84 C40.65 113.33, 90.73 64.33, 149.26 2.34 M1.11 170.4 C40.81 123.85, 79.85 73.67, 149.16 1.09 M-0.37 177.04 C35.41 132.78, 70.42 92.1, 155.23 1.93 M-0.44 176.48 C49.37 123.08, 96.94 68.68, 154.72 0.39 M0.08 185.59 C63.56 110.71, 128.88 33.03, 158.31 3.08 M-1.11 182.15 C52.52 119.39, 106.88 57.25, 157.31 1.84 M0.43 186.79 C69.63 113.35, 137.24 40.03, 161.3 -1.93 M-0.96 190.83 C54 123.03, 110.42 59.8, 164.68 0.49 M1.46 197.45 C39.49 139.42, 84.25 91.92, 172.23 -1.5 M0.44 193.71 C65.69 125.33, 126.13 53.74, 169.89 0.37 M-0.46 198.3 C59.72 140.18, 110.01 79.84, 173.63 1.85 M-1.61 201 C61.14 130.77, 124.33 59.78, 174.46 -0.34 M0.14 205.43 C56.84 146.26, 109.84 83.66, 180.9 0.61 M1.46 205.5 C61.5 134.08, 125.57 61.27, 179.09 -0.22 M-0.93 214.4 C63.46 138.24, 129.26 59.63, 186.07 0.45 M0.54 213.85 C60.54 141.67, 122.43 69.35, 186.85 0.48 M2.09 219.98 C51.13 156.16, 111 96.5, 190 -2.86 M-0.3 220.59 C55.05 155.8, 110.75 91.74, 191.47 -0.51 M-2.01 226.35 C55.3 157.47, 112.68 95.11, 197.18 0.16 M1.13 225.6 C68.68 144.27, 140.26 64.07, 196.07 -0.21 M0.86 230.4 C61.73 163.87, 126.46 90.1, 203.98 -1.08 M-1.43 231.29 C65.96 157.26, 134.75 76.36, 201.07 0.2 M0.58 236.31 C61.34 165.58, 121.48 92.69, 206.62 -2.31 M-0.89 236.99 C52.58 175.93, 107.16 113.3, 207.66 -0.42 M1.13 243.21 C52.26 191.29, 96.17 135.12, 212.24 -0.25 M1.24 243.24 C57.25 179.59, 111.5 116.49, 212.35 -0.51 M1.19 248.06 C70.23 176.54, 135.44 97.49, 217.77 0.94 M-0.35 249.18 C84.06 156.15, 162.94 63.14, 218.77 -0.72 M0.35 257.79 C42.27 206.08, 89.59 151.84, 221.32 -1.92 M0.8 255.71 C80.14 161.45, 164.05 67.78, 223.69 -0.94 M1.65 261.16 C59.92 186.72, 122.28 113.56, 229.11 -1.93 M1.09 262.11 C87.35 160.46, 178.33 58.35, 228.8 0.15 M2.32 265.69 C90.72 168.03, 180.6 65.23, 233.78 -1.14 M0.9 267.21 C95.98 159.83, 190.43 54.81, 232.34 0.16 M-1.19 273.31 C76.14 188.75, 154.68 99.59, 237.02 -0.29 M-1.15 274.99 C79.23 182.16, 159.34 91.66, 237.16 -0.61 M-1.9 280.06 C49.45 219.05, 106.85 153.29, 241.53 -0.08 M-0.39 280.12 C55.59 219.28, 109.12 153.73, 243.25 -0.08 M-0.17 285.33 C52.7 228.24, 103.11 170.66, 250.73 0.47 M-0.8 287.55 C92.35 179.47, 182.53 75.48, 249.32 1.33 M1.66 293.11 C92.68 186.89, 180.45 85.5, 253.81 0.41 M-1.17 293.46 C88.74 185.87, 180.04 78.58, 254.62 0.42 M-1.23 298.89 C49.72 236.93, 102.79 175.09, 260.83 2.23 M-0.76 299.32 C90.66 197.37, 180.47 97.3, 259.38 0.43 M-1.1 304.66 C80.5 210.28, 161.3 120, 264.5 -1.68 M1.11 304.35 C61.84 234.43, 122.41 163.49, 264.83 -0.13 M-1.54 310.44 C70.18 227.29, 141.92 144.06, 269.57 -0.82 M0.21 311.61 C86.57 210.68, 171.57 113.97, 271.12 -0.43 M0.81 315.92 C107.95 194.77, 217.41 69.89, 274.54 1.48 M-0.09 317.57 C87.84 216.44, 175.37 116.65, 275.68 0.85 M0.6 324.22 C79.48 232.04, 159.44 143.19, 281.59 -1.04 M-0.36 323.21 C58.21 260.92, 115.78 194.53, 279.75 -0.64 M-1.22 327.77 C65.26 251.27, 135.87 171.6, 284.38 -1.15 M0.47 329.29 C61.96 255.05, 127.72 180.59, 286.53 0.24 M0.53 336.54 C102.38 218.79, 205.59 98.94, 289.45 1.67 M-0.32 335.92 C95.15 227.02, 187.46 119.03, 290.72 -0.37 M1.18 343.39 C73.1 259.55, 147.69 175.19, 296 1.54 M0.06 342.26 C112.59 209.97, 226.72 78.85, 297.75 -0.81 M0.35 348.37 C105.09 226.36, 211.17 105.38, 300.87 -0.29 M-0.27 346.66 C73.69 259.42, 148.69 172.59, 301.31 0.54 M0.8 352.18 C92.99 242.61, 188.61 135.1, 306.99 -0.77 M0.53 353.25 C111.95 226.15, 225.4 95.44, 307.73 -0.59 M1.43 359.5 C122.66 221.99, 244.15 82.14, 311.99 -0.71 M1 359.03 C118.8 223.97, 235.76 90.07, 312.37 -0.17 M1.03 366.4 C101.35 251.19, 201.81 134.74, 316.87 -1.82 M-0.57 366.21 C121.29 229.39, 242 89.49, 317.74 0.34 M-1.08 371.21 C102.72 258.83, 201.96 145.09, 321.95 -1.44 M-0.47 371.51 C111.18 244.98, 222.12 116.38, 323.25 -0.64 M0.79 378.85 C83.51 282.28, 167.37 186.04, 328.22 -0.83 M0.54 377.49 C118.75 241.58, 236.23 106.91, 328.69 -0.97 M-0.03 384.65 C135.63 230.16, 268.1 78.39, 333.68 0.6 M0.29 384.53 C68.5 303.06, 137.85 226.18, 334.55 0.04 M-0.3 388.25 C100.5 277.13, 199.88 166.14, 333.57 5.72 M0.31 389.73 C85.91 289.65, 173.95 188.32, 334.33 4.31 M0.95 397.43 C102.56 279.14, 199.62 166.11, 336.52 9.31 M0.24 395.81 C91.57 292.18, 182.52 186.82, 334.85 10.45 M-1.29 403.19 C103.13 282.35, 206.88 166.56, 335.13 16.96 M-0.1 403.29 C65.02 323.64, 133.92 246.26, 335 16.94 M-1.17 408.79 C91.31 302.06, 183.37 195.96, 333.62 24.09 M0.23 407.78 C85.71 311.02, 170.9 214.04, 335.03 23.01 M1.33 415.53 C114.74 280.96, 232.22 148.1, 333.96 27.49 M0.34 414.09 C102.82 296.85, 206.25 176.55, 335.71 29.26 M0.8 422.59 C120 286.17, 235.66 147.76, 335.22 36.66 M-0.41 420.29 C110.59 291.19, 224.06 161.39, 335.3 35.69 M1.63 425.66 C121.8 287, 245.02 142.78, 334.54 40.98 M-0.59 427.02 C86.53 332.84, 170.04 236.53, 335.53 41.08 M-0.25 433.1 C130.38 281.94, 260.34 134.48, 336 47.19 M-0.46 433.18 C100.97 317.87, 198.97 204.34, 335.35 48.06 M1.24 437.89 C102.36 317.33, 205.41 199.31, 335.62 52.94 M-0.08 439.27 C109.91 315.11, 218.3 191.51, 335.23 54.42 M4.02 440.15 C130.79 295.42, 258.18 148.79, 336.65 58.16 M3.37 441.45 C130.93 294.79, 255.28 149.36, 335.85 59.23 M8.62 440.95 C74.2 365.64, 142.38 287.17, 334.44 65.28 M8.04 442.42 C129.03 305.51, 247.87 169.04, 334.24 66.51 M13.35 441.13 C133.12 302.08, 256.02 160.21, 335.13 70.29 M14.01 440.84 C88.17 355.19, 159.73 272.96, 335.42 70.93 M19.65 440.03 C112.95 335.43, 203.41 231.28, 333.94 76.37 M19.66 440.96 C93.98 358.63, 167.7 273.53, 335.66 78.29 M24.12 440.47 C138.21 308.12, 253.9 177.76, 334.08 85.2 M23.9 441.45 C131.86 312.75, 241.62 185.86, 335.63 84.42 M28.21 440.71 C117.45 342.86, 202.27 244.61, 334.41 89.64 M30.28 441.66 C131.45 322.1, 234.29 206.4, 334.92 90.65 M36.68 439.87 C148.04 314.57, 259.65 186.21, 335.75 96.74 M34.39 440.7 C115.62 352.24, 196.15 259.24, 334.34 96.38 M38.39 440.16 C121.54 344.52, 207.19 249.32, 334.01 102.42 M40.84 440.84 C129.41 344.35, 214.64 244.61, 334.94 102.62 M45.11 442.27 C150.6 320.07, 254.67 196.91, 335.34 107.65 M46.11 441.18 C147.28 325.67, 249.09 208.73, 335.04 107.59 M49.82 442.86 C136.1 344, 222.3 245.97, 333.49 115 M50.9 442.46 C128.06 351.5, 206.64 261.18, 334.58 114.61 M53.77 442.4 C154.58 327.78, 254.16 216.05, 336.81 122.38 M54.86 441.37 C157.36 322.93, 259.5 203.24, 335.92 119.52 M62.71 443.37 C150.56 339, 243.06 231.7, 333.39 126.25 M61.48 442.02 C139.73 353.23, 217.28 267, 335.49 126.66 M67.48 441.13 C152.17 351.31, 230.63 255.79, 334.69 132.89 M65.27 441.26 C168.05 322.84, 267.63 208.67, 335.21 132.12 M71.2 439.39 C147.94 353.91, 221.32 268.58, 336.25 140.61 M72.04 441.18 C129.24 372.49, 189.93 304.07, 335.09 137.83 M75.56 440.84 C178.89 322.27, 280.73 201.73, 336.36 146.25 M76 442.03 C177.63 322.22, 280.39 204.7, 334.08 145.28 M83.28 439.91 C131.93 378.54, 186.25 319.8, 333.62 149.3 M83.59 441.22 C154.02 359.69, 227.46 274.03, 334.52 150.61 M87.31 439.63 C185.76 330.39, 281.46 221.9, 336.65 158.66 M87.34 441.56 C178.12 339.73, 269.01 237.28, 334.16 156.85 M92.01 440.61 C166.4 358.89, 235.43 274.25, 334.82 165.16 M92.91 441.55 C178.55 340.72, 267.03 240.65, 335.07 164.02 M98.26 443.9 C155.15 376.25, 211.67 308.03, 333 170.47 M97 440.91 C180.52 346.57, 265.4 249.44, 334.42 168.51 M105.46 443.9 C171 366.81, 238.06 284.36, 336.92 174.26 M103.17 440.61 C191.8 343.86, 275.24 246.42, 333.63 174.86 M110.51 441.19 C173.65 364.08, 241.67 285.82, 337.29 181.01 M108.75 441.12 C192.96 348.49, 278.58 250.59, 334.96 181.79 M115.2 441.54 C174.81 371.28, 237.5 300.69, 332.62 188.54 M113.34 442.41 C194.21 348.31, 276.49 255.71, 333.89 188.84 M120.6 442.72 C182.27 364.66, 251.06 282.95, 336.91 192.02 M118.68 441.78 C198.04 349.43, 277.17 258.86, 335.12 194.81 M123.47 443.36 C189.4 367.99, 247.58 301.45, 335.98 197.68 M124.17 442.27 C178.78 379.09, 234.58 317.25, 336.47 200.93 M132.54 440.02 C212.13 350.34, 292.83 253.92, 337.31 206.1 M129.26 442.18 C208.27 347.16, 289.1 256.73, 334.04 206.59 M136.75 443.11 C192.1 376.38, 250.81 316.08, 334.55 210.39 M137.15 441.02 C186.66 382.8, 237.99 324.27, 334 211.4 M138.65 439.3 C198.78 373.49, 255.28 302.81, 336.09 220.63 M140.28 442.7 C192.28 380.82, 244.71 319.63, 334.94 218.54 M145.46 442.37 C210.08 363.11, 283.38 283.54, 334.45 225.94 M147.08 441.68 C191.78 392.18, 235.69 340.52, 334.44 223.34 M151.05 442.91 C209.37 375.64, 266.7 303.68, 332.36 228.7 M152.91 440.45 C207.53 374.95, 267.5 307.15, 333.86 229.18 M155.15 442.71 C222.45 361.03, 293.42 287.14, 335.36 236.19 M158 441.97 C221.19 363.02, 287.09 285.95, 333.68 236.13 M164.04 438.95 C227.2 368.46, 289.88 293.88, 333.31 243.54 M161.97 442.99 C204.01 388.92, 245.61 342.06, 335.62 241.21 M166.85 442.45 C225.19 377.69, 278.77 315.77, 335.13 250.16 M167.17 441.4 C218.86 378.93, 269.63 319.63, 333.82 249.63 M173.8 441.5 C225.97 380.81, 288.55 312.21, 338.34 253.72 M172.96 442.24 C208.15 403.21, 241.82 365.14, 336.58 254.98 M178.78 440.19 C236.54 379.92, 290.6 315.71, 335.28 258.71 M178.18 440.74 C240.78 369.14, 300.93 298.34, 334.92 260.81 M182.17 444.29 C237.35 378.39, 292.21 312.98, 333.64 270.47 M181.83 440.55 C241.73 373.21, 298.37 306.35, 334.31 267.09 M185.24 442.02 C238.48 387.08, 280.9 328.59, 334.25 272.69 M189.3 440.8 C220.92 408.45, 249.28 374.17, 335.97 272.01 M194.18 441.64 C235.44 393.87, 276.29 346.72, 338.23 275.86 M192.6 440.35 C222.78 407.87, 253.79 372.17, 335.89 278.91 M196.54 442.83 C236.12 398.31, 274.06 358.07, 336.77 288.14 M197.14 441.96 C237.92 397.64, 273.55 354.18, 335.67 283.8 M207.99 439.29 C235.87 409.91, 259.05 372.15, 336.77 291.57 M206.21 442.33 C246.7 395.07, 288.54 350.59, 335.32 289.45 M211.86 439.09 C252.85 393.11, 293.33 348.67, 336 295.36 M208.48 442.65 C254.34 386.13, 302.23 333.62, 333.47 297.23 M215.82 438.56 C262.88 382.96, 308.33 332.89, 331.57 303.6 M213.49 442.95 C239.15 409.08, 263.81 380.59, 334.68 301.69 M219.28 442.68 C246.76 413.84, 271.21 383.41, 332.63 309.85 M220.85 441.4 C259.15 392.21, 302.61 341.23, 334.91 309 M225.52 438.02 C255.66 402.7, 287.77 367.27, 336.32 315.13 M224.62 439.89 C269.57 395.73, 310.88 347.26, 335.51 317.1 M231.49 445.64 C273.57 389.89, 317.96 348.83, 337.59 320.81 M229.55 443.61 C268.77 397.25, 313.8 347.33, 333.47 321.33 M240.24 437.93 C275.06 398.37, 311.29 355.36, 336.93 330.25 M235.78 442.61 C255.04 417.79, 277.99 395.13, 335.4 326.63 M242.77 439.54 C261.89 414.97, 282.75 391.88, 337.56 329.9 M242.97 443.35 C271.04 411.4, 297.64 376.51, 335.06 333.48 M246.43 444.21 C270.87 414.21, 295.39 383.26, 338.56 338.48 M247.03 442.26 C268.69 418.97, 289.81 393.51, 336.76 341.61 M248.75 443.67 C275 415.28, 297.54 389.03, 338.58 348.51 M252.31 441.32 C281.64 403.84, 315 366.83, 335.45 344.36 M257.86 440.5 C279.16 418.8, 296.06 391.9, 333.73 355.3 M256.27 441.61 C284.41 409.31, 312.92 376.88, 336.86 352.27 M266.34 445.01 C291.3 413.75, 316.27 377.84, 337.31 362.46 M261.65 442.89 C278.41 421.24, 297.11 402.83, 333.58 359.31 M271.61 440.1 C289.65 413.23, 317.62 386.98, 332.93 367.1 M269.21 441.12 C292.02 415.76, 312.65 393, 336.49 362.77 M273.78 442.2 C293.98 418.41, 318.33 391.36, 335.71 372.97 M273.88 440.08 C293.47 419.75, 314.73 394.96, 336.23 369.04 M280.07 442.02 C300.9 422.96, 314.06 396.24, 335.3 376.75 M277.45 440.89 C292.09 422.87, 309.21 403.57, 336.61 378.66 M286.62 441.58 C303.68 421.38, 323.67 392.42, 333.07 381.25 M284.75 441.58 C298.55 424.86, 311.07 407.87, 336.04 384.18 M290.29 443.7 C300.17 431.83, 310.54 416.32, 335.25 388.51 M287.74 443.43 C301.94 426.3, 320.06 409.59, 335.01 389.91 M297.72 445.19 C306.53 424.61, 325.9 411.56, 332.66 397.41 M292.87 442.72 C303.35 428.49, 315.7 417.7, 336.14 394.28 M298.59 442 C311.23 429.74, 320.79 417.57, 338.56 400.6 M298.66 440.64 C304.68 434.8, 313.31 422.7, 336.34 401.38 M305.25 438.75 C318.35 429.34, 320.08 418.01, 336.41 406.03 M305.66 443.5 C311.56 434.57, 319.77 427.59, 334.87 407.28 M306.65 441.73 C317.16 431.41, 324.1 423.2, 336.97 414.17 M310.67 440.35 C319.96 432.53, 323.48 424.38, 336.76 411.84 M316.7 443.66 C319.64 436.55, 327.81 430.94, 335.51 423.09 M317.41 442.55 C322.62 432.49, 330.2 425.14, 334.36 420.54 M320.12 440.65 C325.79 438.28, 331.69 434.65, 335.51 422.08 M322.72 441.3 C325.75 436.58, 326.92 433.33, 333.27 424.73 M328.02 441.17 C330.99 440.46, 330.02 434.88, 334.68 432.23 M326.96 442.59 C327.56 438.13, 328.86 438.24, 334.75 431.42 M330.56 441.91 C333.34 441.33, 334.69 438.61, 334.02 437.93 M330.98 441.33 C332.43 440.85, 332.56 440.03, 334.3 438.26" stroke="#ffc9c9" stroke-width="0.5" fill="none"></path><path d="M1.63 2.39 C72.02 5.11, 147.35 0.29, 334.44 -2.19 M1.11 1.09 C132.02 -2.47, 262.93 -1.62, 335.23 -0.51 M336.56 1.27 C340.94 109.78, 338.26 221.56, 336.3 440.06 M335.54 0.56 C338.03 107.51, 337.23 216.13, 335.63 441.65 M337.11 441.75 C205.46 441.22, 79.44 438.53, 2.59 443.76 M336.13 442.3 C206.89 441.9, 80.46 441.22, 1.35 441.59 M-0.22 441.14 C3.85 347.31, 4.26 254.46, -0.64 -1.93 M0.51 440.95 C2.47 318.67, 2.47 194.56, 0.07 0.71" stroke="#1e1e1e" stroke-width="1" fill="none"></path></g><g transform="translate(62.1608365247842 779.6907164119875) rotate(0 155.58984374999997 181.1601147378217)"><text x="0" y="0" font-family="Cascadia, Segoe UI Emoji" font-size="12.077340982521445px" fill="#1e1e1e" text-anchor="start" style="white-space: pre;" direction="ltr" dominant-baseline="text-before-edge">import loader from './loader.js'</text><text x="0" y="14.492809179025734" font-family="Cascadia, Segoe UI Emoji" font-size="12.077340982521445px" fill="#1e1e1e" text-anchor="start" style="white-space: pre;" direction="ltr" dominant-baseline="text-before-edge"></text><text x="0" y="28.985618358051468" font-family="Cascadia, Segoe UI Emoji" font-size="12.077340982521445px" fill="#1e1e1e" text-anchor="start" style="white-space: pre;" direction="ltr" dominant-baseline="text-before-edge">class Greeter {</text><text x="0" y="43.4784275370772" font-family="Cascadia, Segoe UI Emoji" font-size="12.077340982521445px" fill="#1e1e1e" text-anchor="start" style="white-space: pre;" direction="ltr" dominant-baseline="text-before-edge">  async sayGreet(ctx) {</text><text x="0" y="57.971236716102936" font-family="Cascadia, Segoe UI Emoji" font-size="12.077340982521445px" fill="#1e1e1e" text-anchor="start" style="white-space: pre;" direction="ltr" dominant-baseline="text-before-edge">    const { message } = ctx.request</text><text x="0" y="72.46404589512866" font-family="Cascadia, Segoe UI Emoji" font-size="12.077340982521445px" fill="#1e1e1e" text-anchor="start" style="white-space: pre;" direction="ltr" dominant-baseline="text-before-edge">    return {</text><text x="0" y="86.9568550741544" font-family="Cascadia, Segoe UI Emoji" font-size="12.077340982521445px" fill="#1e1e1e" text-anchor="start" style="white-space: pre;" direction="ltr" dominant-baseline="text-before-edge">      message: `hello ${message || 'world'}`</text><text x="0" y="101.44966425318015" font-family="Cascadia, Segoe UI Emoji" font-size="12.077340982521445px" fill="#1e1e1e" text-anchor="start" style="white-space: pre;" direction="ltr" dominant-baseline="text-before-edge">    }</text><text x="0" y="115.94247343220587" font-family="Cascadia, Segoe UI Emoji" font-size="12.077340982521445px" fill="#1e1e1e" text-anchor="start" style="white-space: pre;" direction="ltr" dominant-baseline="text-before-edge">  }</text><text x="0" y="130.4352826112316" font-family="Cascadia, Segoe UI Emoji" font-size="12.077340982521445px" fill="#1e1e1e" text-anchor="start" style="white-space: pre;" direction="ltr" dominant-baseline="text-before-edge">}</text><text x="0" y="144.92809179025733" font-family="Cascadia, Segoe UI Emoji" font-size="12.077340982521445px" fill="#1e1e1e" text-anchor="start" style="white-space: pre;" direction="ltr" dominant-baseline="text-before-edge"></text><text x="0" y="159.42090096928308" font-family="Cascadia, Segoe UI Emoji" font-size="12.077340982521445px" fill="#1e1e1e" text-anchor="start" style="white-space: pre;" direction="ltr" dominant-baseline="text-before-edge">const start = async (addr) =&gt; {</text><text x="0" y="173.9137101483088" font-family="Cascadia, Segoe UI Emoji" font-size="12.077340982521445px" fill="#1e1e1e" text-anchor="start" style="white-space: pre;" direction="ltr" dominant-baseline="text-before-edge">  await loader.init()</text><text x="0" y="188.40651932733454" font-family="Cascadia, Segoe UI Emoji" font-size="12.077340982521445px" fill="#1e1e1e" text-anchor="start" style="white-space: pre;" direction="ltr" dominant-baseline="text-before-edge"></text><text x="0" y="202.8993285063603" font-family="Cascadia, Segoe UI Emoji" font-size="12.077340982521445px" fill="#1e1e1e" text-anchor="start" style="white-space: pre;" direction="ltr" dominant-baseline="text-before-edge">  const server = loader.initServer()</text><text x="0" y="217.39213768538602" font-family="Cascadia, Segoe UI Emoji" font-size="12.077340982521445px" fill="#1e1e1e" text-anchor="start" style="white-space: pre;" direction="ltr" dominant-baseline="text-before-edge">  server.addService(</text><text x="0" y="231.88494686441175" font-family="Cascadia, Segoe UI Emoji" font-size="12.077340982521445px" fill="#1e1e1e" text-anchor="start" style="white-space: pre;" direction="ltr" dominant-baseline="text-before-edge">    'helloworld.Greeter',</text><text x="0" y="246.37775604343747" font-family="Cascadia, Segoe UI Emoji" font-size="12.077340982521445px" fill="#1e1e1e" text-anchor="start" style="white-space: pre;" direction="ltr" dominant-baseline="text-before-edge">    new Greeter()</text><text x="0" y="260.8705652224632" font-family="Cascadia, Segoe UI Emoji" font-size="12.077340982521445px" fill="#1e1e1e" text-anchor="start" style="white-space: pre;" direction="ltr" dominant-baseline="text-before-edge">  )</text><text x="0" y="275.36337440148895" font-family="Cascadia, Segoe UI Emoji" font-size="12.077340982521445px" fill="#1e1e1e" text-anchor="start" style="white-space: pre;" direction="ltr" dominant-baseline="text-before-edge"></text><text x="0" y="289.85618358051465" font-family="Cascadia, Segoe UI Emoji" font-size="12.077340982521445px" fill="#1e1e1e" text-anchor="start" style="white-space: pre;" direction="ltr" dominant-baseline="text-before-edge">  await server.listen(addr)</text><text x="0" y="304.3489927595404" font-family="Cascadia, Segoe UI Emoji" font-size="12.077340982521445px" fill="#1e1e1e" text-anchor="start" style="white-space: pre;" direction="ltr" dominant-baseline="text-before-edge">  console.log('Server is started: ', addr)</text><text x="0" y="318.84180193856616" font-family="Cascadia, Segoe UI Emoji" font-size="12.077340982521445px" fill="#1e1e1e" text-anchor="start" style="white-space: pre;" direction="ltr" dominant-baseline="text-before-edge">}</text><text x="0" y="333.33461111759186" font-family="Cascadia, Segoe UI Emoji" font-size="12.077340982521445px" fill="#1e1e1e" text-anchor="start" style="white-space: pre;" direction="ltr" dominant-baseline="text-before-edge"></text><text x="0" y="347.8274202966176" font-family="Cascadia, Segoe UI Emoji" font-size="12.077340982521445px" fill="#1e1e1e" text-anchor="start" style="white-space: pre;" direction="ltr" dominant-baseline="text-before-edge">start('127.0.0.1:9099')</text></g><g stroke-linecap="round" transform="translate(444.5281837317009 728.7717607978499) rotate(0 167.0996000560849 189.50026160448735)"><path d="M0 0 C0 0, 0 0, 0 0 M0 0 C0 0, 0 0, 0 0 M-1.74 6.87 C1.46 3.72, 3.41 2.57, 6.5 0.82 M0.35 5.91 C1.19 4.24, 2.08 3.04, 5.22 0.02 M-2.91 11.83 C2.6 6.32, 8.52 5.3, 9.84 -1.59 M0.17 11.57 C4.64 8.49, 6.57 5.37, 10.63 0.97 M-1.08 18.9 C1.84 11.54, 11.39 3.04, 16.47 4.21 M1.01 17.23 C6.96 10.56, 11.62 3.73, 16.8 0.61 M3.34 27.82 C8.88 16.8, 12.01 12.03, 18.25 -0.22 M-0.7 24.18 C5.17 20.63, 8.46 11.88, 20.08 1.18 M-2.59 31.28 C8.14 25.17, 14.31 9.84, 24.45 0.18 M-1.05 30.54 C10.25 18.08, 18.34 10.99, 27.8 -0.85 M-2.95 33.5 C15.22 22.68, 23.18 8.95, 29.36 -2.57 M-1.71 35.51 C10.79 28.22, 20.19 16.39, 31.28 0.9 M3.34 39.3 C8.91 31.06, 19.58 19.94, 33.96 -2.92 M-0.54 40.95 C11.17 30.25, 24.25 16.19, 37.99 -1.35 M3.76 47.23 C19.05 26.34, 37.03 7.3, 42.34 -1.02 M-0.02 47.33 C14.74 31.48, 32.4 12.08, 44.31 -0.05 M-0.15 55.19 C19.92 30.56, 34.54 12.61, 43.54 2.25 M0.73 55.92 C17.14 32.63, 38.97 12.34, 47.62 -0.71 M-2.89 57.34 C11.2 43.94, 23.91 31.52, 55.92 2.1 M-1.89 60.45 C10.84 46.04, 23.02 34.59, 55.08 -0.39 M0.74 65.66 C20.39 41.05, 46.42 19.25, 61.05 2.73 M0.14 69.35 C12.85 53.44, 21.63 37.95, 59.77 -0.09 M0.72 71.13 C20.13 50.06, 36.52 33.5, 64.09 -1.82 M1.89 73.59 C16.39 55.81, 32.26 36.56, 65.38 0.78 M1.08 80.82 C21.36 59.39, 42.39 31.81, 67.66 1.23 M-1.08 80.52 C24.85 50.12, 47.71 27.42, 70.39 0 M3.51 87.55 C14.21 66.88, 30.57 53.74, 76.2 0.27 M1.37 86.12 C25.5 54.24, 47.76 28.3, 72.8 -1.96 M1.31 94.73 C30.27 58.81, 53.1 26.19, 77.86 -3.84 M0.12 92.62 C18.25 66.79, 39.09 42.63, 78.26 1.7 M3.06 94.01 C33.03 61.19, 62.69 25.6, 88.88 -0.87 M0.81 96.8 C18.87 71.47, 39.41 47.76, 84.8 1.61 M-2.19 102.39 C37.23 66.91, 64.97 30.13, 87.44 1.62 M1.33 103.76 C21.91 80.84, 39.47 54.4, 90.99 -0.17 M-3.78 107.36 C37.82 67.07, 71.47 29.59, 98.08 -0.82 M-0.73 110.81 C26.44 79.33, 55.16 47.76, 96.67 -0.61 M2.28 112.49 C27.96 77.24, 58.02 47.29, 101.53 3.37 M-0.03 113.7 C23.79 89.51, 43.59 67.54, 99.07 -0.15 M3.2 118.37 C27.89 88.33, 58.1 55.31, 103.08 -1.43 M0.69 122.25 C39.27 80.58, 74.79 37.34, 105.55 -1.1 M-2.91 128.16 C28.92 93.77, 64.44 54.31, 114.53 2.9 M-1.34 126.61 C28.4 94.75, 56.6 64.27, 109.79 -0.13 M2.17 132.76 C41.7 82.55, 87.72 32.22, 117.8 1.84 M-1.49 133.1 C34.47 91.36, 69.42 51.39, 115.78 2.09 M-2.12 139.95 C43.54 89.61, 91.53 29.63, 122.18 -2.66 M1.8 142.04 C30.94 104.93, 63.51 67.69, 121.32 0.67 M-3.37 143.95 C52.55 90.03, 102.93 31.33, 129.44 -3.01 M1 144.02 C30.91 111.69, 60.94 79.97, 127.49 0.32 M-2.12 150.57 C44.77 107.16, 83.5 61.85, 133.44 -0.4 M1.53 153.37 C43.37 101.14, 90.75 48.04, 132.65 -0.3 M2.36 161.42 C42.88 104.41, 88.89 55.01, 138.43 3.54 M0.53 157.26 C42.96 102.74, 89.03 48.97, 138.56 0.78 M-2.32 166.52 C50.89 112.16, 97.07 52.79, 142.99 1.79 M-0.72 163.47 C34.45 126.81, 68.87 87.29, 141.84 0.83 M-0.17 173.11 C56.58 107.98, 110.84 41.84, 149.43 3.15 M-1.13 170.7 C41.98 124.29, 84.05 76.1, 149.66 1.6 M1.03 174.8 C50.26 110, 106.79 48.86, 150.7 -2.46 M0.72 177.42 C49.24 117.89, 98.7 62.71, 154.79 1.08 M2.28 184.09 C33.53 147.29, 63.61 107.67, 158.59 -1.15 M-0.55 182.35 C40.21 140.41, 80.66 94.06, 157.72 -0.72 M-3.2 188.96 C35.23 141.91, 70.2 104.25, 164.08 -2.84 M0.34 188.84 C63.23 115.74, 128.27 39.13, 165.84 0.03 M-3.01 194.56 C50.95 133.68, 104.69 74.68, 171.82 0.84 M-1.41 195.01 C45.1 150.19, 85.78 103.87, 168.01 0.12 M-1.28 201.09 C67.65 122.27, 136.22 45.51, 174.93 -3.18 M-0.18 202.35 C60.29 133.16, 119.35 63.6, 173.9 1.01 M1.84 204.46 C40.13 158.63, 87.75 105.58, 181.32 -2.39 M-0.08 205.41 C38.37 161.81, 79.74 118.02, 178.81 1.59 M-1.87 210.69 C64.09 140.33, 121.8 65.12, 183.21 2.06 M-1.28 213.08 C72.84 132.15, 146.02 48.42, 186.29 -0.21 M2.67 217.25 C74.05 133.25, 152.66 44.43, 188.77 -1.6 M-0.92 219.49 C65.69 140.69, 134.03 63.44, 189.98 1.22 M2.29 223.81 C55.96 164.45, 105.86 99.68, 198.66 -0.22 M1.52 224.74 C58.85 162.64, 111.79 97.89, 195.27 -0.93 M-1.26 233.53 C76.61 140.12, 154.97 54.17, 200.97 -2.04 M0.56 231.99 C74.41 147.11, 151.23 61.05, 201.29 0.96 M-0.08 238.36 C61.27 174.91, 116.27 107.64, 207.96 -1.7 M0.62 236.07 C69.17 159.67, 138.06 78.06, 207.5 0.24 M-0.3 241.71 C63.38 176.24, 121.28 105.31, 209.33 -1.49 M0.05 245.06 C43.25 193.21, 88.66 142.35, 211.04 -0.52 M-0.63 248.96 C76.71 161.04, 148.9 75.42, 219.62 -0.84 M1.02 249.19 C76.37 161.94, 157.63 71.36, 218.37 -0.54 M1.87 257.78 C49 197.4, 97.47 137.91, 222.12 0.41 M0.38 255.01 C80.36 165.61, 158.78 73.48, 223.02 -0.57 M-1.32 263.09 C76.01 171.55, 149.95 86.7, 226.1 0.79 M0.89 262.25 C75.36 176.97, 151.18 90.98, 228.42 0.44 M-2.2 266.9 C79.25 181.27, 152.38 92.87, 233.05 -0.13 M0.62 268.1 C74.97 183.35, 145.04 101.77, 233.94 0.29 M1.56 275.13 C49.03 216.98, 97.55 156.63, 238.75 2.43 M0.58 275.46 C77.39 189.53, 152.3 101.78, 237.98 -0.04 M-1.38 281.69 C50.92 215.73, 107.67 153.3, 246.23 2.13 M-0.15 280.95 C76.86 189.8, 155.33 100.33, 243.37 0.13 M1.6 287.91 C53.62 224.59, 112.16 163.82, 250.56 -1.34 M0.86 286.96 C89.03 181.97, 178.54 77.19, 248.53 -0.42 M2.13 293.96 C88.72 192.66, 171.29 90.74, 252.93 -1.53 M0.86 292.47 C67.87 216.11, 136.44 138.73, 254.41 -0.48 M-0.07 300.18 C87.37 199.39, 175.37 97.6, 261.48 0.68 M1.13 297.31 C54.75 240.04, 107.72 178.46, 260.02 0.7 M-1.25 303.18 C93.59 190.77, 190.81 83.33, 263.5 -1.69 M0.16 304.17 C100.42 192.14, 195.41 80.95, 265.06 -0.16 M0.92 310.4 C99.2 192.68, 204.41 73.99, 268.4 1.57 M0.13 310.86 C96 203.11, 190.87 94.34, 270.1 0.91 M-1.06 318.89 C108.57 192.98, 217.4 71.46, 275.45 1.81 M1.24 315.92 C68.19 235.05, 137.57 154.69, 276.78 -0.08 M-0.83 324.43 C85.69 227.84, 166.81 131.57, 279.94 -0.36 M-0.33 322.6 C62.32 257.98, 120.15 190, 281.47 0.64 M1.79 328.34 C63.08 255.38, 127.01 180.93, 286.33 -0.3 M1.29 327.99 C87.9 225.91, 175.38 124.62, 286.61 -0.35 M0.11 335.97 C84.21 238.53, 169.79 144.5, 291.85 -0.66 M-0.58 335.19 C100.8 220.55, 200.95 102.53, 291.81 -0.4 M-1.21 343.01 C74.69 252.77, 152.6 164.89, 295.77 0.73 M0.64 342.58 C99.69 228.74, 199.7 114.86, 296.92 0.68 M-1.02 347.6 C89.69 244.02, 182.12 137.89, 303.14 0.35 M0.49 348.14 C71.28 262.77, 144.85 178.01, 301.5 -0.23 M-1.68 355.31 C104.77 229.36, 213.64 107.67, 306.8 -0.03 M0 354.19 C90.22 254.31, 176.47 153.26, 307.7 -0.36 M-1.26 360.4 C99.62 240.88, 201.38 122.73, 313.62 0.49 M0.16 360 C97.57 244.8, 198.8 128.85, 312.12 0.32 M-0.95 366.14 C115.46 231.73, 234.38 97.87, 319.8 1.07 M-0.55 364.98 C105.18 249.09, 207.15 131.06, 318.05 0.55 M-0.89 373.3 C89.02 270.97, 178.5 169.48, 322.05 1.23 M-0.28 371.95 C105.61 248, 213.15 125.38, 323.61 0.87 M-0.65 378.75 C95.66 268.93, 186.05 163.09, 328.37 -0.46 M-0.1 377.95 C121.43 243.43, 240.28 106.51, 328.77 -0.78 M6.04 380.39 C112.52 254.64, 222.14 127.95, 334.23 -1.1 M4.99 378.13 C127.85 235.86, 251.52 94.39, 333.87 0.62 M10.71 380.55 C85.19 285.95, 166.08 198.35, 336.35 3.74 M9.3 379.86 C121.1 250.3, 231.16 122.55, 335.12 5.08 M15.44 379.12 C141.04 231.44, 268.47 88.79, 335.07 10.68 M15.79 378.43 C92.01 289.53, 170.35 199.9, 334.7 12 M20.09 378.38 C109 276.75, 199 170.66, 333.96 17.16 M20.64 379.14 C127.39 258.38, 232.68 138.49, 335.65 16.17 M25.21 380.77 C89.67 303.74, 160.26 222.27, 335.66 23.85 M24.46 380.36 C122.62 264.39, 220.58 149.14, 334.75 23.18 M31.25 379.91 C112.28 289.25, 190.54 196.05, 336.09 29.92 M31.31 379.43 C103.66 291.51, 177.18 207.45, 334.42 29.54 M36.16 378 C127.83 271.4, 221.39 161.9, 333.86 34.9 M35.62 380.28 C113.5 288.52, 191.35 199.3, 334.43 36.01 M41.44 381.07 C125.39 280.88, 209.03 183.21, 336.27 42.35 M41.97 379.82 C130.57 273.09, 223.03 168.64, 335.09 42.48 M46.62 379.23 C159.09 248.48, 273.72 118.32, 334.85 46.29 M46.61 379.12 C136.62 275.03, 226.01 173.08, 334.9 47.04 M52.03 378.63 C129.3 285.86, 215.13 192.46, 334.1 54.23 M52.91 378.45 C112.44 313.67, 172.5 244.65, 334.7 54.03 M57.12 377.87 C156.96 269.1, 254.41 152.88, 334.56 61.66 M58.03 379.07 C165.78 254.22, 274.84 128.72, 335.24 59.45 M63.26 377.21 C137.75 288.53, 213.27 202.03, 333.9 67.48 M62.76 379.96 C155.49 271.18, 249.48 163.48, 334.65 65.18 M67.92 377.94 C149.97 282.42, 237.8 181.6, 335.19 71.71 M68.31 379.27 C123.47 311.21, 183.55 243.18, 333.56 71.76 M71.58 380 C141.98 299.49, 210.61 220.32, 333.75 76.25 M73.73 380.08 C164.51 274.85, 255.08 170.48, 335.43 76.97 M76.61 380.58 C162.32 279.16, 250.49 179.84, 335.67 86.2 M78.95 378.49 C179.2 267.31, 274.45 155.53, 335.16 85.11 M85.46 381.04 C168.41 278.23, 254.94 179.71, 334.98 92 M84.25 378.8 C181.29 264.8, 279.03 154.43, 334.5 90 M89.62 380.88 C167.66 281.68, 252.5 189.22, 336.24 98.73 M89.23 378.67 C146.86 310.7, 206.6 241.73, 334.3 96.69 M95.87 380.47 C139.12 322.12, 191.18 263.65, 333.36 102.11 M94.2 377.83 C158.58 301.35, 225.67 225.6, 334.53 102.35 M101.46 379.12 C185.09 285.37, 262.27 190.99, 335.53 106.53 M99.47 379.39 C165.27 302.8, 229.93 231.47, 334.85 108.66 M105.92 378.29 C159.77 316.74, 212.76 257.95, 336.83 113.47 M103.99 379.61 C180.55 290.18, 258.75 201.48, 333.81 115.36 M110.42 379.46 C169.58 309.88, 224.51 240.71, 332.12 120.18 M109.95 378.56 C178.63 301.74, 243.75 225.07, 334.66 120.81 M114.81 377.03 C203.97 281.19, 284.16 184.13, 336.06 129.03 M116.04 377.94 C194.26 293.92, 272.46 204.96, 335.05 126.76 M122.36 376.92 C189.61 296.9, 255.17 222.8, 335.64 132.98 M119.51 379.03 C171.94 317.75, 227.23 255.45, 333.87 133.73 M125.33 379.43 C198.24 294.37, 269.87 207.09, 336.55 139.32 M125.31 380.14 C167.86 330.05, 212.34 280.49, 335.67 137.9 M132.14 381.25 C211.31 287.51, 287.83 195.86, 333.12 147.92 M132.42 379.57 C177.73 325.66, 226.49 268.43, 335.36 143.87 M135.85 379.67 C209.05 293.13, 282.42 206.41, 334.8 152.86 M136.79 379.11 C184.57 322.75, 234.76 264.41, 333.34 150.85 M142.22 381.14 C202.15 315.17, 255.85 245.92, 332.06 155.44 M143.08 378.51 C186.21 326.96, 232.48 272.32, 334.95 158.69 M147.84 377.53 C187.04 332.51, 228.31 285.47, 334.37 163.26 M147.13 379.98 C212.66 302.31, 278.19 228.78, 333.41 163.87 M154.92 380.27 C205.77 314.09, 261.97 255.37, 335.99 172.08 M154.15 378.26 C195.08 328.31, 236.29 280.16, 336.13 170.29 M159.78 379.63 C197 331.49, 234.76 293.57, 333.52 173.29 M156.78 379.02 C224.19 300.56, 293.06 219.8, 335.04 177.13 M162.75 377.87 C227.28 297.52, 295.11 220.34, 333.38 179.02 M163.8 378.15 C207.75 328.11, 253.84 275.15, 333.41 183.65 M165.61 376.29 C199.28 339.3, 237.42 299.66, 336.93 189.84 M168.04 378.16 C203.76 341.49, 239.73 303.78, 334.63 188.08 M176.41 377.75 C211.54 340.44, 249.87 302.46, 333.96 195.02 M173.1 378.78 C235.42 310.27, 295.68 239.64, 334.77 194.39 M180.38 378.8 C208.12 340.41, 241.72 305.18, 332.6 202.07 M179.95 381.01 C220.51 330.09, 263.25 280.51, 336.32 200.23 M183.61 378.87 C237.52 313, 296.87 249.33, 337.6 209.57 M184.86 380.52 C228.1 327.34, 271.83 278.04, 334.28 207.39 M191.22 378.97 C239.46 322.65, 291.05 257.44, 333.32 210.24 M188.67 378.36 C242.92 315.21, 301.77 249.68, 333.67 212.84 M197.95 378.01 C232.62 331.82, 273.67 290.42, 331.94 220.11 M195.08 378.21 C240.45 332.75, 281.36 283.89, 335.46 219.11 M198.93 377.93 C242.05 329.37, 294.64 269.4, 337.2 228.09 M199.56 380 C251.73 318.82, 303.35 261.37, 333.76 225.97 M209.14 380.41 C247.04 334.99, 284.43 290.33, 337.04 230.81 M204.39 380.32 C253.49 322.97, 307.51 260.94, 335.88 229.69 M209.23 376.45 C231.82 350.21, 261.06 320.07, 331.66 234.48 M212.18 379.2 C238.12 347.67, 264.05 319.61, 334.99 236.27 M218.67 382.04 C246.38 336.71, 280.65 307.23, 338.22 242.9 M217.75 378.8 C256.13 333.42, 298.16 289.35, 334.48 242.77 M222.82 379.89 C258.19 340.01, 286.8 296.5, 338 244.81 M220.66 378.48 C255.32 344.41, 286.75 307.71, 334.13 250.41 M225.09 380.01 C264.24 343.29, 293.81 302.94, 333.92 255.46 M225.84 380.48 C268.17 330.4, 311.19 282.54, 333.4 256.63 M228.86 376.68 C270.44 341.09, 303.29 300.33, 338.22 258.18 M231.79 377.46 C262.68 343.36, 296.12 310.47, 335.51 261.3 M233.84 377.25 C265.26 351.35, 290.28 319.25, 338.35 265.28 M239.23 378.02 C273.08 337.57, 309.39 294.04, 335.58 266.37 M241.95 383.09 C279.16 341.4, 317.71 293.04, 332.69 275.7 M243.3 378.35 C267.3 351.5, 290.19 322.56, 332.72 274.11 M245.69 378.39 C270.67 355.13, 289.41 337.46, 331.68 276.08 M250.28 379.7 C267.95 359.99, 284.62 337.18, 333.45 278.98 M250.01 383.09 C273.07 359.59, 293.62 332.74, 331.04 285.93 M253.75 380.02 C273.4 358.24, 294.13 337.14, 333.19 285.41 M260.06 378.48 C285.57 342.6, 314.03 313.3, 335.4 295.25 M258.59 380.22 C271.09 360.21, 287.75 344.07, 334.29 292.1 M266.29 380.33 C279.85 363.98, 298.37 338.72, 336.26 297.39 M264.53 380 C290.01 351.47, 316.64 319.43, 336.21 297.66 M265.65 380.03 C287.98 360.96, 306.12 339.29, 335.64 306.66 M267.54 379.68 C290.25 354.06, 310.19 330.07, 333.57 304.81 M277.32 378.16 C289.12 360.44, 305.5 338.5, 335.3 307.5 M273.91 380.46 C293.97 357.15, 313.88 338.12, 333.59 310.26 M280.52 377.47 C290.99 364.59, 308.65 347.02, 337.83 319.57 M278.4 378.07 C297.29 358.15, 314.08 338.29, 335.57 316.54 M286.96 375.61 C300.01 358.58, 319.66 339.34, 334.43 323.38 M286.97 378.24 C302.83 359.61, 321.5 338.6, 334.95 322.25 M286.68 382.17 C300.66 370.19, 310.81 350.68, 334.74 329.2 M290.93 378.33 C304.23 364.09, 316.67 348.57, 335.45 329.67 M296.4 379.4 C301.37 365.16, 310.85 356.21, 330.58 334.61 M297.65 378.84 C306.4 366.25, 321.5 351.87, 333.13 335.07 M297.46 379.2 C304.97 373.41, 319.23 362.99, 337.1 341.7 M300.74 381.02 C309.61 369.91, 316.31 360.96, 335.86 340.48 M308.12 375.93 C309.63 369.4, 319.09 363.83, 333.95 346.17 M306.74 378.4 C313.48 368.79, 322.56 359.38, 332.77 347.57 M313.49 379.31 C324.55 370.82, 333.42 355.94, 336.96 354.93 M313.29 378.37 C317.34 373.27, 322.4 365.36, 336.31 353.9 M313.9 375.29 C323.72 371.59, 325.12 369.31, 336.08 355.01 M315.85 377.73 C319.36 375.55, 324.44 371.21, 336.39 358.51 M318.92 382.75 C328.21 374.04, 332.59 368.37, 335 363.26 M321.87 380.21 C325.55 376.7, 327.85 372.48, 334.48 366.2 M329.47 376.94 C330.52 377.75, 330.1 376.7, 333.61 368.66 M328.69 379.7 C330.44 375.96, 333.21 371.84, 333.88 370.07 M332.7 378.88 C333.4 378.88, 333.96 377.64, 334.2 376.64 M332.87 379.48 C333.51 378.62, 333.76 378.08, 334.73 376.97" stroke="#b2f2bb" stroke-width="0.5" fill="none"></path><path d="M1.11 -1.64 C117.13 -1.04, 230.8 1.92, 334.33 2.55 M1.07 1.06 C110.5 3.17, 224.56 2.69, 335.16 0.64 M336.42 1.74 C332.55 84.9, 332.88 171.97, 332.3 379.07 M333.03 0.41 C336.69 108.09, 334.65 214.85, 333.04 379.8 M336.59 378.43 C259.41 379.14, 188.71 380.94, -2.67 380.02 M332.93 380.17 C213.13 380.39, 89.1 381.22, -1.22 378.01 M-1.01 379.4 C-5.49 297.67, -6.49 214.36, -1.9 -0.56 M0.76 378.76 C-1.3 228.87, -1.59 79.57, 0.4 -0.48" stroke="#1e1e1e" stroke-width="1" fill="none"></path></g><g transform="translate(64.72747325195581 734.9777591282059) rotate(0 31.8251953125 7.246404589512849)"><text x="31.8251953125" y="0" font-family="Cascadia, Segoe UI Emoji" font-size="12.077340982521443px" fill="#1e1e1e" text-anchor="middle" style="white-space: pre;" direction="ltr" dominant-baseline="text-before-edge">server.js</text></g><g stroke-linecap="round"><g transform="translate(64.20277244406861 763.6986922146989) rotate(0 27.64670057016869 0.6471294929941109)"><path d="M-1.6 2.36 C19.81 -1.88, 40.35 -2.78, 58.36 5.03 M-0.57 -1.5 C21.9 -1.71, 43.11 -0.68, 54.32 1.39" stroke="#2f9e44" stroke-width="1" fill="none"></path></g></g><mask></mask><g transform="translate(457.385067796552 794.0064124376116) rotate(0 152.0537109375 144.9280917902573)"><text x="0" y="0" font-family="Cascadia, Segoe UI Emoji" font-size="12.077340982521443px" fill="#1e1e1e" text-anchor="start" style="white-space: pre;" direction="ltr" dominant-baseline="text-before-edge">import loader from "./loader.js"</text><text x="0" y="14.49280917902573" font-family="Cascadia, Segoe UI Emoji" font-size="12.077340982521443px" fill="#1e1e1e" text-anchor="start" style="white-space: pre;" direction="ltr" dominant-baseline="text-before-edge"></text><text x="0" y="28.98561835805146" font-family="Cascadia, Segoe UI Emoji" font-size="12.077340982521443px" fill="#1e1e1e" text-anchor="start" style="white-space: pre;" direction="ltr" dominant-baseline="text-before-edge">const start = async (addr) =&gt; {</text><text x="0" y="43.478427537077195" font-family="Cascadia, Segoe UI Emoji" font-size="12.077340982521443px" fill="#1e1e1e" text-anchor="start" style="white-space: pre;" direction="ltr" dominant-baseline="text-before-edge">  await loader.init()</text><text x="0" y="57.97123671610292" font-family="Cascadia, Segoe UI Emoji" font-size="12.077340982521443px" fill="#1e1e1e" text-anchor="start" style="white-space: pre;" direction="ltr" dominant-baseline="text-before-edge"></text><text x="0" y="72.46404589512865" font-family="Cascadia, Segoe UI Emoji" font-size="12.077340982521443px" fill="#1e1e1e" text-anchor="start" style="white-space: pre;" direction="ltr" dominant-baseline="text-before-edge">  const serviceName = 'helloworld.Greeter'</text><text x="0" y="86.95685507415439" font-family="Cascadia, Segoe UI Emoji" font-size="12.077340982521443px" fill="#1e1e1e" text-anchor="start" style="white-space: pre;" direction="ltr" dominant-baseline="text-before-edge">  await loader.initClients({</text><text x="0" y="101.44966425318012" font-family="Cascadia, Segoe UI Emoji" font-size="12.077340982521443px" fill="#1e1e1e" text-anchor="start" style="white-space: pre;" direction="ltr" dominant-baseline="text-before-edge">    services: {</text><text x="0" y="115.94247343220584" font-family="Cascadia, Segoe UI Emoji" font-size="12.077340982521443px" fill="#1e1e1e" text-anchor="start" style="white-space: pre;" direction="ltr" dominant-baseline="text-before-edge">      [serviceName]: addr</text><text x="0" y="130.43528261123157" font-family="Cascadia, Segoe UI Emoji" font-size="12.077340982521443px" fill="#1e1e1e" text-anchor="start" style="white-space: pre;" direction="ltr" dominant-baseline="text-before-edge">    }</text><text x="0" y="144.9280917902573" font-family="Cascadia, Segoe UI Emoji" font-size="12.077340982521443px" fill="#1e1e1e" text-anchor="start" style="white-space: pre;" direction="ltr" dominant-baseline="text-before-edge">  })</text><text x="0" y="159.42090096928303" font-family="Cascadia, Segoe UI Emoji" font-size="12.077340982521443px" fill="#1e1e1e" text-anchor="start" style="white-space: pre;" direction="ltr" dominant-baseline="text-before-edge"></text><text x="0" y="173.91371014830878" font-family="Cascadia, Segoe UI Emoji" font-size="12.077340982521443px" fill="#1e1e1e" text-anchor="start" style="white-space: pre;" direction="ltr" dominant-baseline="text-before-edge">  const client = loader.client(serviceName)</text><text x="0" y="188.4065193273345" font-family="Cascadia, Segoe UI Emoji" font-size="12.077340982521443px" fill="#1e1e1e" text-anchor="start" style="white-space: pre;" direction="ltr" dominant-baseline="text-before-edge">  const result = await client.sayGreet({ </text><text x="0" y="202.89932850636023" font-family="Cascadia, Segoe UI Emoji" font-size="12.077340982521443px" fill="#1e1e1e" text-anchor="start" style="white-space: pre;" direction="ltr" dominant-baseline="text-before-edge">    message: 'greeter' </text><text x="0" y="217.39213768538596" font-family="Cascadia, Segoe UI Emoji" font-size="12.077340982521443px" fill="#1e1e1e" text-anchor="start" style="white-space: pre;" direction="ltr" dominant-baseline="text-before-edge">  })</text><text x="0" y="231.8849468644117" font-family="Cascadia, Segoe UI Emoji" font-size="12.077340982521443px" fill="#1e1e1e" text-anchor="start" style="white-space: pre;" direction="ltr" dominant-baseline="text-before-edge">  console.log('sayGreet', result.response)</text><text x="0" y="246.37775604343742" font-family="Cascadia, Segoe UI Emoji" font-size="12.077340982521443px" fill="#1e1e1e" text-anchor="start" style="white-space: pre;" direction="ltr" dominant-baseline="text-before-edge">}</text><text x="0" y="260.87056522246314" font-family="Cascadia, Segoe UI Emoji" font-size="12.077340982521443px" fill="#1e1e1e" text-anchor="start" style="white-space: pre;" direction="ltr" dominant-baseline="text-before-edge"></text><text x="0" y="275.3633744014889" font-family="Cascadia, Segoe UI Emoji" font-size="12.077340982521443px" fill="#1e1e1e" text-anchor="start" style="white-space: pre;" direction="ltr" dominant-baseline="text-before-edge">start('127.0.0.1:9099')</text></g><g transform="translate(460.9682478441796 745.52544361095) rotate(0 31.8251953125 7.246404589512849)"><text x="31.8251953125" y="0" font-family="Cascadia, Segoe UI Emoji" font-size="12.077340982521443px" fill="#1e1e1e" text-anchor="middle" style="white-space: pre;" direction="ltr" dominant-baseline="text-before-edge">client.js</text></g><g stroke-linecap="round"><g transform="translate(460.44354703629256 774.2463766974431) rotate(0 27.64670057016866 0.6471294929941109)"><path d="M-3.44 -1.93 C17.73 -0.59, 26.26 -1.28, 59.05 2.62 M1.68 -1.02 C11.69 2.86, 23.08 0.66, 54.75 1.7" stroke="#2f9e44" stroke-width="1" fill="none"></path></g></g><mask></mask><g stroke-linecap="round"><g transform="translate(420.6538678934778 279.3453433432478) rotate(0 -0.44883856658299237 21.876209529720768)"><path d="M0.6 0.26 C-2.18 15.82, -0.1 31.83, -1.88 44.34 M0.44 -0.57 C0.06 10.45, -0.32 21.1, -1.13 43.47" stroke="#1e1e1e" stroke-width="1" fill="none"></path></g><g transform="translate(420.6538678934778 279.3453433432478) rotate(0 -0.44883856658299237 21.876209529720768)"><path d="M-7.26 22.91 C-7.23 30.18, -2.38 37.87, -2.12 44.06 M-7.43 22.08 C-6.08 27.44, -4.59 32.48, -1.37 43.19" stroke="#1e1e1e" stroke-width="1" fill="none"></path></g><g transform="translate(420.6538678934778 279.3453433432478) rotate(0 -0.44883856658299237 21.876209529720768)"><path d="M7.69 23.45 C2.3 30.46, 1.72 37.96, -2.12 44.06 M7.53 22.62 C5.22 27.96, 3.05 32.86, -1.37 43.19" stroke="#1e1e1e" stroke-width="1" fill="none"></path></g></g><mask></mask><g transform="translate(302.1227791176302 584.2282299484938) rotate(0 109.6201171875 36.2320229475643)"><text x="109.6201171875" y="0" font-family="Cascadia, Segoe UI Emoji" font-size="12.077340982521443px" fill="#1e1e1e" text-anchor="middle" style="white-space: pre;" direction="ltr" dominant-baseline="text-before-edge">serviceName: helloworld.Greeter</text><text x="109.6201171875" y="14.49280917902573" font-family="Cascadia, Segoe UI Emoji" font-size="12.077340982521443px" fill="#1e1e1e" text-anchor="middle" style="white-space: pre;" direction="ltr" dominant-baseline="text-before-edge"></text><text x="109.6201171875" y="28.98561835805146" font-family="Cascadia, Segoe UI Emoji" font-size="12.077340982521443px" fill="#1e1e1e" text-anchor="middle" style="white-space: pre;" direction="ltr" dominant-baseline="text-before-edge">rpcMethod: sayGreet</text><text x="109.6201171875" y="43.478427537077195" font-family="Cascadia, Segoe UI Emoji" font-size="12.077340982521443px" fill="#1e1e1e" text-anchor="middle" style="white-space: pre;" direction="ltr" dominant-baseline="text-before-edge"></text><text x="109.6201171875" y="57.97123671610292" font-family="Cascadia, Segoe UI Emoji" font-size="12.077340982521443px" fill="#1e1e1e" text-anchor="middle" style="white-space: pre;" direction="ltr" dominant-baseline="text-before-edge">rpcMethodMessage: message</text></g><g stroke-linecap="round"><g transform="translate(415.35557030702967 524.4337819772269) rotate(0 -0.8165349372302444 17.977765532012995)"><path d="M-1.71 -1.9 C-0.57 8.14, -1.08 13.65, 0.27 36.99 M-0.04 -0.19 C-1.09 9.02, -0.66 19.05, -1.53 35.91" stroke="#1e1e1e" stroke-width="1" fill="none"></path></g><g transform="translate(415.35557030702967 524.4337819772269) rotate(0 -0.8165349372302444 17.977765532012995)"><path d="M-8.58 17.07 C-6.12 22.98, -5.17 24.86, 0.18 36.84 M-7.08 18.61 C-6.27 23, -4.07 28.07, -1.44 35.86" stroke="#1e1e1e" stroke-width="1" fill="none"></path></g><g transform="translate(415.35557030702967 524.4337819772269) rotate(0 -0.8165349372302444 17.977765532012995)"><path d="M3.72 17.53 C3.7 23.43, 2.16 25.21, 0.18 36.84 M5.23 19.07 C2.83 23.23, 1.84 28.18, -1.44 35.86" stroke="#1e1e1e" stroke-width="1" fill="none"></path></g></g><mask></mask><g stroke-linecap="round"><g transform="translate(311.0254095817918 672.4048305566757) rotate(0 -16.048657322551776 23.047802763942627)"><path d="M-0.39 -1.59 C-6.94 10.31, -15.44 21.84, -31.87 45.14 M-0.91 -0.22 C-9.46 14.79, -20.27 28.17, -31.65 46.21" stroke="#1e1e1e" stroke-width="1" fill="none"></path></g><g transform="translate(311.0254095817918 672.4048305566757) rotate(0 -16.048657322551776 23.047802763942627)"><path d="M-25.47 17.32 C-25.57 24.66, -27.56 31.39, -31.43 45.26 M-25.99 18.69 C-26.5 27.79, -29.33 35.29, -31.21 46.33" stroke="#1e1e1e" stroke-width="1" fill="none"></path></g><g transform="translate(311.0254095817918 672.4048305566757) rotate(0 -16.048657322551776 23.047802763942627)"><path d="M-9.46 27.94 C-13.68 32.41, -19.76 36.44, -31.43 45.26 M-9.97 29.31 C-15.46 35.11, -23.3 39.29, -31.21 46.33" stroke="#1e1e1e" stroke-width="1" fill="none"></path></g></g><mask></mask><g stroke-linecap="round"><g transform="translate(508.0935312421657 673.9800271848521) rotate(0 15.898281161938371 24.82472174116492)"><path d="M-1.1 -0.38 C12.73 16.91, 25.22 36.82, 30.99 50.67 M0.8 0.51 C6.48 10.78, 14.05 21.87, 31.91 50.21" stroke="#1e1e1e" stroke-width="1" fill="none"></path></g><g transform="translate(508.0935312421657 673.9800271848521) rotate(0 15.898281161938371 24.82472174116492)"><path d="M7.45 31.85 C18.06 37.47, 27.44 45.67, 31.11 51.24 M9.35 32.74 C13.25 36.07, 18.98 40.23, 32.03 50.77" stroke="#1e1e1e" stroke-width="1" fill="none"></path></g><g transform="translate(508.0935312421657 673.9800271848521) rotate(0 15.898281161938371 24.82472174116492)"><path d="M24.48 21.04 C28.83 30.72, 31.91 42.93, 31.11 51.24 M26.37 21.93 C26.52 27.63, 28.52 34.16, 32.03 50.77" stroke="#1e1e1e" stroke-width="1" fill="none"></path></g></g><mask></mask></svg>