<svg version="1.1" xmlns="http://www.w3.org/2000/svg" viewBox="0 0 478.75268486465984 431.9368322875697" width="478.75268486465984" height="431.9368322875697">
  <!-- svg-source:excalidraw -->
  
  <defs>
    <style class="style-fonts">
      @font-face {
        font-family: "Virgil";
        src: url("https://excalidraw.com/Virgil.woff2");
      }
      @font-face {
        font-family: "Cascadia";
        src: url("https://excalidraw.com/Cascadia.woff2");
      }
    </style>
    
  </defs>
  <rect x="0" y="0" width="478.75268486465984" height="431.9368322875697" fill="#ffffff"></rect><g stroke-linecap="round" transform="translate(24.665989179286896 367.2136625934326) rotate(0 216.9181294329493 17.33362934434362)"><path d="M0 0 C0 0, 0 0, 0 0 M0 0 C0 0, 0 0, 0 0 M0.05 6.17 C1.8 3.87, 3.61 1.72, 5.18 0.66 M-0.08 6.59 C1.04 4.71, 2.69 2.99, 5.11 0.46 M0.1 11.37 C3.59 9.54, 5.16 5.45, 10.42 0.7 M0.24 11.99 C2.91 9.06, 5.21 5.87, 10.55 -0.45 M-1.05 17.49 C5.93 12.49, 12.88 5.2, 15.95 1.17 M-0.65 18.68 C5.55 11.76, 11.25 4.7, 15.33 -0.18 M-0.11 23.4 C7.13 15.04, 15.76 6.29, 21.55 1.01 M-0.27 24 C7.67 15.98, 14.05 8.2, 21.53 0 M0.05 29.82 C8.7 22.41, 14.81 11.45, 25.27 0.07 M-0.14 30.27 C7.5 22.07, 14.72 13.7, 25.8 0.16 M1.67 35.57 C10.74 22.75, 20.11 13.63, 32.28 -0.75 M2.05 34.11 C9.51 26.61, 16.42 17.12, 32.2 0.15 M7.52 34.15 C17.88 24.31, 27.04 11.37, 37.83 0.83 M6.51 35.01 C14.1 26.32, 22.02 16.93, 36.62 0.78 M13.4 33.57 C23 22.03, 33.03 11.27, 42.31 0.04 M12.07 34.8 C18.77 27.49, 25.48 19.64, 42.72 -0.7 M16.42 34.32 C24.66 28.38, 31.28 20.4, 47.87 1.09 M17.32 35.4 C24.5 27.11, 30.2 19.59, 47.52 -0.25 M22.64 35.57 C33.12 23.91, 41.95 11.5, 53.11 -0.38 M23.06 34.8 C33.31 23.19, 43.32 10.95, 52.82 -0.6 M29.04 34.26 C33.76 26.86, 40.81 20.1, 58.72 1.02 M27.42 34.64 C34.33 27.2, 41.08 19.26, 58.67 0.22 M32.89 33.6 C41.1 25.84, 47.15 19.94, 64.47 0.67 M33.38 33.96 C43.83 22.81, 54.63 11.16, 63.5 -0.15 M38.58 35.34 C47.93 25.09, 55.36 16.08, 68.06 -0.08 M38.27 34.5 C49.8 22.08, 62.19 7.75, 68.94 -0.31 M44.33 34.69 C49.84 26.12, 57.98 20.02, 73.38 -0.05 M44.63 34.43 C51.56 25.72, 59.47 16.52, 74.22 -0.77 M49.04 35.23 C60.06 22.31, 70.18 11.63, 80.37 -0.37 M49.77 34.79 C60.64 22.78, 71.35 9.88, 79.89 -0.36 M54.2 35.54 C62.18 26.61, 70.51 17.77, 84.18 0.69 M53.65 35.14 C64.01 23.71, 73.03 12.73, 84.53 -0.78 M60.44 35.81 C71.15 20.7, 83.53 8.74, 89.97 1.1 M59.69 35.05 C68.04 25.47, 75.1 16.3, 89.54 0.41 M65.14 34.26 C74.02 25.02, 82.5 15.37, 96.16 0.18 M64.75 35.04 C71.84 27, 78.22 19.41, 95.84 -0.45 M70.03 35.28 C81.77 21.9, 94.13 8.05, 100.24 1.05 M71.02 35.1 C81.28 22.78, 91.83 10.83, 100.82 -0.46 M75.56 36.03 C85.9 23.07, 97.81 10.17, 106.92 -0.09 M75.02 34.8 C85.26 24.29, 94.51 12.55, 106.29 -0.34 M80.12 33.81 C92.66 21.74, 104.77 9.24, 111.21 -0.18 M81.23 34.48 C91.22 22.89, 101.81 10.46, 110.9 0.23 M85.69 35.33 C96.14 22.24, 109.43 8.85, 117.37 0.71 M86.59 35.43 C92.44 27.27, 98.91 19.37, 116.33 0.03 M92.53 34.65 C102.62 21.32, 114.93 7.39, 122.9 0.33 M91.88 34.19 C101.36 24.12, 111.17 12.1, 121.85 -0.54 M95.78 35.98 C106.17 23.5, 117.38 10.62, 126.45 0.85 M96.36 35.18 C107.65 21.72, 119.84 8.67, 127.36 0.9 M102.81 33.95 C111 24.22, 122.54 11.85, 131.97 0.06 M102.4 34.91 C113.83 21.74, 125.29 8.67, 132.22 -0.13 M107.2 34.13 C116.2 23.27, 126.72 13.01, 137.41 -0.58 M107.85 34.53 C116.12 23.63, 125.82 13.42, 137.28 0.49 M112.81 35.52 C119.39 26.79, 125.62 19.24, 144.13 -0.96 M112.91 34.24 C119.54 27.57, 126.29 20.4, 143.23 0.17 M116.85 35.26 C126.74 26.07, 133.33 17.84, 147.89 1.24 M118.21 34.54 C128.13 23.03, 139.58 10.02, 148.13 0.56 M122.67 33.77 C131.4 27.39, 137.21 19.46, 152.69 0.96 M123.69 34.03 C132.95 23.63, 143.52 12.39, 153.68 0.19 M129.56 34.92 C140.05 23.05, 150.08 10.87, 159.55 0.66 M128.98 35.17 C139.21 22.55, 149.84 10.16, 159.31 -0.25 M134.24 35.29 C142.7 24.9, 150.45 15.84, 164.53 0.72 M134.56 34.16 C140.34 27.4, 145.66 20.19, 163.93 0.35 M138.83 35.71 C148.64 23.13, 158.37 12.75, 170.09 0.77 M138.7 34.67 C148.95 23.69, 159.13 11.43, 169.16 -0.19 M145.45 35.03 C153.25 23.17, 164.43 12.49, 174.11 -0.86 M144.34 34.24 C156.08 22.35, 166.05 9.68, 175.32 -0.06 M150.66 34.86 C158.1 25.29, 164.87 17.79, 178.94 0.97 M150.31 34.69 C157.33 26.97, 164.28 18.15, 180.15 0.54 M155.93 35.59 C166.01 23.46, 175.37 12.38, 184.97 -0.43 M155.96 34.15 C164.47 25.1, 172.04 14.9, 186.2 -0.05 M159.74 34.36 C168.79 26.85, 177.22 17.35, 190.62 0.37 M160.35 35.21 C166.46 27.38, 172.92 20.63, 190.37 0.32 M165.23 35.46 C174.23 24.38, 185.17 13.6, 197.25 -0.02 M165.03 35.42 C174.38 24.64, 184.01 14.4, 195.9 0.26 M170.97 35.38 C182.86 21.62, 195.91 8.08, 202.33 1.15 M170.88 35.07 C179.56 25.17, 187.66 16.52, 200.82 0.09 M176.6 36.26 C186.4 24.71, 195.45 12.12, 206.61 -1.42 M176.61 35.3 C184.89 25.57, 193.06 14.96, 206.45 0.18 M182.46 34.77 C189.29 25.7, 197.86 16.96, 211.84 0.68 M182.12 34.84 C190.8 24.59, 199.75 14.03, 211.55 0.52 M187.37 34.76 C198.18 20.84, 210.87 7.8, 216.62 -0.47 M187.15 35.33 C197.65 22.44, 209.29 9.15, 217.45 0.17 M193.48 35.35 C202.59 23.59, 209.79 13.62, 223.18 -0.58 M191.87 35.07 C198.74 27.39, 204.82 20.71, 222.15 0.29 M197.24 34.6 C203.14 26.53, 211.01 20.21, 228.64 0.44 M197.83 35.43 C204.51 26.57, 211.4 18.77, 227.77 0.13 M203.32 35.66 C209.8 25.15, 219.05 17.12, 234.14 -0.2 M202.87 34.64 C214 22.16, 224.07 9.97, 233.49 0.09 M208.77 34.6 C217.26 26.73, 224.11 16.7, 237.68 1.1 M207.71 35.27 C215.01 27.15, 221.6 19.14, 237.78 0.73 M214.69 35.64 C222.35 24.1, 231.44 13.98, 244.25 0.54 M213.18 34.69 C225.27 21.41, 238.23 7.61, 243.73 -0.23 M219.43 34.41 C227 24.43, 236.88 14.24, 249.85 -0.74 M218.82 34.79 C225.07 27.58, 232.06 19.41, 249.05 -0.2 M223.5 35.48 C234.01 22.73, 244.33 11.69, 253.64 0.07 M224.67 34.69 C236.27 21.45, 247.56 7.88, 254.56 0.02 M229.54 35.63 C237.25 26.24, 243.77 17.96, 259.08 0.91 M228.77 34.8 C239.77 21.94, 251.54 9.69, 259.95 -0.27 M235.89 34.54 C241.42 26.94, 249.03 16.61, 264.11 -0.08 M234.55 34.09 C242.71 26.09, 249.54 17.93, 264.99 -0.43 M238.87 33.92 C247.69 26.79, 254.68 17.71, 269.05 0.19 M240.42 35.27 C250.18 22.95, 260.59 11.59, 269.87 0.46 M244.43 34.67 C256.03 22.89, 265.4 11.47, 275.82 -0.97 M246.08 34.08 C255.79 22.28, 267.26 10.43, 275.27 0.27 M250.05 35.95 C260.41 22.9, 273 10.49, 280.05 -0.55 M249.98 34.75 C258.77 24.46, 267.36 15.31, 280.36 0.78 M256.42 34.62 C262.73 25.39, 271.02 16.93, 286.1 -0.54 M256.74 34.7 C267.35 21.52, 278.01 9.95, 286.36 -0.26 M260.62 35.63 C272.19 22.86, 282.62 10.93, 292.4 1.3 M261.1 34.36 C270.1 25.15, 279.73 13.83, 291.1 0.1 M267.84 33.37 C278.52 21.16, 287.79 10.03, 297.4 0.7 M266.65 34.32 C275.98 23.68, 285.03 12.97, 297.09 -0.16 M270.97 35.63 C279.22 25.91, 288.11 15.66, 303.02 0.69 M271.97 34.95 C281.62 23.53, 292.04 11.65, 301.62 0.06 M278.13 33.61 C287.5 22.77, 296.57 12.17, 307.07 0.81 M276.95 34.7 C288.93 21.36, 300.16 8.24, 308.13 -0.66 M283.22 34.94 C289.35 27.06, 295.28 20.87, 313.41 -0.38 M282.55 35.37 C290.22 26.2, 298.04 17.09, 312.99 0.65 M288.3 34.47 C294.4 26.42, 300.65 19.66, 317.61 -0.2 M287.38 35.53 C297.07 24.12, 306.19 13.71, 317.99 0.12 M293.25 34.48 C301.17 27.59, 306.82 17.94, 323.93 -0.75 M292.98 34.24 C300.07 26.13, 307.71 18.12, 322.75 -0.42 M297.99 34.26 C305.07 25.64, 313.19 17.28, 328.68 0.79 M298.39 35.41 C309.2 22.51, 320.96 8.97, 329.3 -0.17 M303.23 33.76 C311.68 27.33, 318.75 18.86, 334.95 0.97 M304.07 34.96 C315.5 21.83, 326.67 8.47, 333.38 -0.34 M309.4 36.04 C318.46 25.18, 327.44 13.03, 340.52 -0.21 M308.85 34.61 C315.55 27.41, 321.82 19.67, 339.17 -0.75 M313.6 34.26 C324.89 20.53, 337.23 7.51, 343.5 0.81 M314.51 35.02 C321.31 26.5, 328.1 18.73, 344.94 0.33 M319.75 34.5 C326.99 25.47, 336.66 15.27, 349.94 1.21 M319.29 34.93 C326.24 27.57, 332.09 20.05, 349.24 0.19 M324.28 33.73 C330.78 27.85, 337.16 18.73, 355.64 -0.45 M324.81 34.45 C333.41 25.16, 341.93 15.74, 355.64 0.47 M330.81 35.87 C335.84 27.78, 341.66 21.96, 360.77 0.09 M329.52 35.35 C339.35 23.55, 350.21 11.92, 359.9 0.79 M335.78 34.2 C345.52 23.32, 356.03 10.87, 365.02 -0.58 M335.63 34.15 C343.32 25.05, 352.49 15.39, 365.81 0.08 M340.95 34.23 C349.82 22.44, 359.75 11.35, 369.85 1.36 M340.32 34.86 C347.33 26.99, 355.47 18.58, 370.24 0.64 M345.78 33.94 C354.71 24.43, 364.63 12.87, 376.62 0.6 M346.04 34.17 C357.01 22.31, 367.23 11.1, 376.2 -0.25 M350.85 35.24 C360.04 26.52, 366.94 16.81, 382.03 -0.16 M350.63 35.29 C357.03 28.63, 363.49 21.12, 381.29 0.53 M357.08 35.51 C363.31 26.85, 369.16 20.52, 387.53 0.18 M356.41 34.3 C363.26 26.78, 370.66 18.41, 387.39 0.09 M362.32 34.61 C373.7 22.88, 384.18 9.46, 392.54 0.23 M361.5 35.08 C373.36 20.99, 385.31 7.8, 392.5 0.44 M367.39 35.46 C375.9 25.11, 382.34 16.18, 397.09 0.03 M367.78 34.6 C374.35 25.66, 382.1 17.6, 398.13 0.01 M372.67 35.14 C383.73 21, 397.11 6.56, 401.76 0.15 M372.15 34.38 C383.82 22.3, 394.47 9.71, 402.33 0.05 M377.3 34.59 C388.9 23.53, 398.28 10.75, 408.08 -1.13 M377.93 34.88 C389.14 22.48, 399.45 10.27, 408.16 -0.45 M382.61 34.22 C391.26 25.44, 401.28 15.56, 414 0.3 M382.75 34.48 C389.07 27.01, 395.38 19.81, 413.33 0.48 M389.08 34.53 C397.98 21.93, 409.01 9.82, 418.76 0.24 M388.75 34.08 C395.64 25.94, 403.7 17.23, 418.73 -0.66 M392.89 34.03 C403.08 24.56, 413.85 12.48, 422.89 1.09 M393.9 34.97 C400.28 27.47, 405.94 20.59, 423.66 0.32 M398.15 35.11 C404.06 27.28, 411.34 19.48, 428.54 0 M398.19 35.06 C408.78 23.89, 418.37 12.99, 429.85 0.02 M405.4 35.9 C416.09 20.35, 427.91 7.42, 435.04 -0.76 M403.8 34.34 C413.49 24.09, 423.55 13.81, 434.44 -0.45 M410.42 34.69 C416.05 28.47, 421.1 19.77, 433.22 5.63 M409.14 35.27 C415.47 28.15, 422.08 20.76, 433.75 6.19 M415.24 34.61 C420.86 28.8, 426.17 20.33, 432.95 13.04 M414.45 35.02 C420.83 28.18, 426.91 21.58, 433.5 13.01 M419.07 35.9 C425.01 30.89, 428.32 26.43, 434.67 17.66 M420.4 35.3 C423.75 31.28, 426.77 27.49, 434.26 18.69 M425.51 35.17 C427.86 31.97, 431.79 28.89, 434.75 24.25 M425.48 34.88 C427.95 31.67, 430.71 29.2, 434.43 24.88 M430.71 34.96 C431.48 33.73, 432.65 32.9, 434.24 30.66 M430.71 35.16 C432.12 33.41, 433.48 31.61, 434.49 30.59" stroke="#a5d8ff" stroke-width="0.5" fill="none"></path><path d="M-0.54 -0.5 C106.33 1.23, 212.64 0.98, 433.85 -0.27 M434.95 1.12 C434.39 13.24, 434.22 26.04, 433.51 34.48 M434.2 34.77 C326.05 36.36, 218.54 36.11, -0.22 34.13 M-0.81 34.45 C0.31 23.27, 0.18 11.75, -0.75 0.24" stroke="#1e1e1e" stroke-width="1.5" fill="none" stroke-dasharray="8 9"></path></g><g transform="translate(215.74427486223613 376.9818304903799) rotate(0 25.83984375 7.565461447396331)"><text x="25.83984375" y="0" font-family="Cascadia, Segoe UI Emoji" font-size="12.609102412327239px" fill="#1e1e1e" text-anchor="middle" style="white-space: pre;" direction="ltr" dominant-baseline="text-before-edge">gRPCity</text></g><g stroke-linecap="round" transform="translate(24.3516274173316 236.17671727932637) rotate(0 19.15619259708248 53.30803190630827)"><path d="M0 0 C0 0, 0 0, 0 0 M0 0 C0 0, 0 0, 0 0 M-0.34 5.9 C1.53 4.58, 3.2 2.24, 5.01 0.4 M-0.17 6.64 C0.69 4.8, 2.12 3.78, 5.2 0.15 M0.07 11.61 C4.91 6.66, 8.22 3.78, 10.93 -0.63 M0.43 11.54 C2.42 8.93, 4.59 6.1, 10.87 -0.35 M1.06 18.7 C6.31 10.35, 11.8 4.27, 14.77 0.04 M0.06 19.06 C4.21 13.91, 7.62 8.91, 15.93 0.33 M0.14 23.48 C6.99 17.85, 12.07 11, 21.24 1.11 M-0.2 24.01 C8.03 14.24, 17.62 5.24, 20.88 -0.34 M0.8 31.63 C6.1 22.89, 13.98 12.55, 26.88 0.75 M-0.08 30.3 C9.77 18.75, 19.96 6.83, 26.39 0.41 M0.5 35.96 C10.57 24.28, 20.65 13.32, 32.35 1.07 M0.27 37.07 C10.95 23.99, 22.19 11.78, 31.43 -0.5 M1.11 43.29 C9.63 31.42, 19.97 19.23, 35.78 -0.35 M0.03 41.98 C14.63 26.07, 28.72 9.33, 36.68 0.82 M0.4 49.8 C9.02 39.7, 16.99 29.36, 38.91 5.29 M-0.65 49.06 C10.54 37.47, 20.1 26.03, 38.69 4.82 M1.52 55.55 C14.74 37.61, 29.55 19.84, 38.31 10.08 M0.54 54.53 C12.32 41.36, 23.48 27.56, 38.7 10.5 M1.2 61.18 C13.95 46.17, 29.33 28.62, 37.02 17.96 M0.08 60.88 C8.17 50.6, 17.28 40.94, 38.48 16.65 M-0.74 67.3 C7.07 57.02, 15.65 47.89, 38.59 22.61 M-0.01 67.74 C15.22 49.57, 30.72 32.45, 38.21 23.31 M0.17 72.49 C11.61 59.73, 25.95 45.43, 38.69 30.44 M0.51 73.43 C14.67 56.55, 29.54 39.35, 38.71 28.69 M0.82 80.21 C9.89 69.46, 19.02 58.61, 38.27 36 M-0.13 79.6 C11.64 65.81, 24.15 51.56, 38.26 34.49 M1.19 84.24 C8.22 73.72, 16.82 64.37, 38.21 40.16 M-0.07 85.25 C14.9 69.04, 28.11 52.81, 37.85 41.76 M-1.03 91.94 C13 75.03, 27.12 60.84, 37.31 48.17 M0.03 91.43 C14.3 75.55, 28.69 58.43, 38.01 47.4 M0.2 97.1 C9.26 85, 21.65 72.79, 37.78 53.88 M0.16 97.68 C9.73 86.45, 20.16 75.11, 38.49 53.88 M-0.53 104.46 C16.04 86.31, 29.47 69.06, 39.2 60.44 M0.64 103.02 C10.96 90.45, 21.58 79.05, 38.62 59.47 M1.82 107.09 C15.64 90.84, 30.16 75.44, 37.98 64.53 M2.57 106.91 C11.16 95.68, 20.86 86.09, 38.5 65.41 M9.28 106.9 C16.96 94.23, 26.79 82.73, 38.19 70.76 M7.58 106.19 C19.98 92.2, 32.31 79.44, 38.64 71.19 M14.14 106.35 C21.32 95.33, 32.06 85.45, 38.42 78.41 M13.62 106.64 C21.57 96.96, 30.79 86.43, 38.58 77.93 M19.38 106.05 C24.49 101.44, 30.23 94.27, 38.32 84.52 M18.32 105.8 C24.42 100.27, 29.86 94.71, 38.57 83.69 M24.25 107.06 C29.9 101.03, 33.56 94.64, 39.06 90.76 M23.52 106.32 C28.24 100.81, 33.43 95.86, 37.94 90.6 M29.37 106.78 C32.21 103.35, 36.21 99.22, 38.78 96.25 M29.49 106.15 C32.21 103.08, 34.46 100.14, 38.37 96.22 M34.58 106.73 C36.04 105.46, 36.88 103.53, 38.11 102.04 M34.51 106.86 C35.68 105.16, 36.82 103.84, 38.4 102.39" stroke="#b2f2bb" stroke-width="0.5" fill="none"></path><path d="M1.2 0.3 C12.8 0.96, 23.72 0.31, 37.7 -0.41 M39.03 -1.13 C38.29 36.85, 37.91 76.51, 38.26 107.72 M38.56 107.7 C30.49 105.91, 23.89 106.06, -0.85 105.52 M-0.1 105.79 C-0.79 75.66, 0.35 42.14, 0.79 -0.24" stroke="#1e1e1e" stroke-width="1.5" fill="none" stroke-dasharray="8 9"></path></g><g transform="translate(39.81641376441405 281.91928773823827) rotate(0 3.69140625 7.565461447396345)"><text x="3.69140625" y="0" font-family="Cascadia, Segoe UI Emoji" font-size="12.609102412327239px" fill="#1e1e1e" text-anchor="middle" style="white-space: pre;" direction="ltr" dominant-baseline="text-before-edge">A</text></g><g stroke-linecap="round" transform="translate(89.43330480534809 217.73403872484818) rotate(0 25.130643751231474 63.38692521212869)"><path d="M0 0 C0 0, 0 0, 0 0 M0 0 C0 0, 0 0, 0 0 M0.1 7.86 C1.35 3.65, 5.03 1.99, 3.61 0.28 M0.13 6.21 C1.21 4.27, 2.35 2.32, 5.7 0.64 M-2.94 10.42 C2.83 7.33, 5.3 5.37, 8.25 0.7 M0.79 10.66 C3.22 7.77, 6.44 6.94, 10.27 0.07 M-2.54 18.03 C5.29 12.28, 8.18 13.69, 12.25 -1.8 M1 18.35 C3.41 12.88, 8.53 6.94, 14.02 1.78 M-2.11 27.14 C4.29 14.16, 16.46 6.72, 20.13 -0.81 M1.08 24.1 C9.96 15.56, 17.49 8.4, 19.32 0.32 M-0.63 29.34 C4.3 25.85, 14.81 14.35, 27.71 4.26 M-1.93 31.6 C10.92 20.11, 19.54 8.99, 26.97 -0.32 M-1.14 37.7 C7.91 26.11, 12.79 17.13, 30.93 0.48 M-2.24 36.84 C10.63 25.71, 19.79 15.02, 32.63 0.89 M-2.75 39.93 C10.41 26.15, 25.3 13.88, 34.59 3.01 M-1.36 43.41 C9.53 34.87, 14.08 26.27, 37.19 -0.63 M-4.07 52.11 C13.88 31.92, 33.43 14.68, 44.26 0.4 M1.53 48.02 C17.31 32.78, 31.57 12.15, 41.69 0.21 M4.06 56.68 C17.6 35.02, 35.72 15.11, 43.62 4.05 M-0.08 56.54 C12.95 42.03, 22.51 30.3, 45.76 -0.49 M-0.07 59.96 C14.76 43.22, 35.73 21.94, 47.75 4.52 M-1.6 61.4 C13.94 45.56, 28.43 32.08, 51.94 2.69 M2.16 70.15 C14.08 51.29, 31.02 33.29, 53.72 6.96 M-1.07 65.53 C16.65 47.63, 34.25 30.92, 49.34 7.82 M2.39 71.04 C15.4 49.97, 32.77 33.16, 47.82 17.14 M-1.46 72.04 C16.97 53.03, 36.97 32.41, 51.97 17.59 M-2.07 79.59 C21.85 54.99, 35.27 34.49, 52.99 21.18 M1.11 79.69 C16.47 62.47, 31.44 43.01, 51.17 22.99 M2.94 88.08 C18.26 64.26, 35.42 41.37, 52.06 24.14 M1.59 85.02 C14.8 68.35, 27.3 52.32, 49.97 27.81 M-2.15 93.45 C14.33 81.45, 26.5 65.6, 46.98 32.11 M-1.56 89.62 C14.68 72.65, 32.49 57, 51.35 34.72 M-3.44 95.48 C15.2 75.63, 31.68 61.72, 48.24 41.64 M-2.04 98.22 C15.05 81.2, 29.53 62.03, 50.73 40.6 M-0.88 106.35 C15.35 90.44, 20.97 80.51, 46.01 45.83 M1.98 102.21 C17.34 82.54, 33.18 64.53, 48.17 46.56 M-3.67 108.33 C18.16 85.95, 33.39 69.01, 50.88 51.96 M1.55 109.27 C20.14 89.83, 37.32 70.57, 52.17 53.51 M1.01 111.85 C13.55 97.59, 27.56 81.03, 50.44 55.13 M-0.72 115.37 C18.14 100.33, 31.11 79.88, 49.34 59.78 M1.36 124.92 C14.26 99, 33.37 75.41, 48.56 64.36 M-0.27 122.11 C12.46 108.46, 20.79 95.13, 50.69 65.11 M0.83 130.47 C16.75 103.63, 32.64 86.57, 50.72 71.99 M0.37 128.04 C13.37 115.26, 22.46 101.37, 50.07 71.99 M9.42 128.94 C16.63 118.65, 26.9 101.56, 47.26 79.78 M7.91 127.15 C20.02 110.98, 32.82 95.21, 50.48 77.75 M8.49 129.56 C24.57 118.59, 33.7 101.29, 50.02 80.56 M10.22 126.12 C20.65 117.97, 30.18 107.19, 49.73 84.05 M15.12 125.3 C27.8 116.77, 36 102.05, 53 91.84 M17.73 127.15 C27.85 111.91, 39.34 99.89, 48.2 88.55 M18.92 127.58 C30.84 118.29, 44.91 98.61, 51.57 97.94 M23.29 128.69 C32.03 118.05, 40.76 105.37, 49.12 94.85 M25.85 123.62 C32.53 118.26, 40.03 107.24, 47.87 103.36 M27.06 126.65 C32.43 121.26, 38.09 115.02, 50.99 99.93 M31.64 129.84 C41.55 117.75, 41.99 107.86, 54 106.91 M33 125.79 C36.61 122.09, 39.14 117.28, 51.87 108.08 M41.46 125.29 C39.78 122.67, 45.45 123.68, 52.59 111.41 M37.8 128.87 C40.71 123.73, 47.37 117.65, 49.17 114.49 M43.65 128.07 C46.53 126.53, 47.44 121.48, 50.07 120.13 M43.11 128.01 C46.31 125.1, 49.03 121.95, 49.54 119.16 M48.28 126.61 C48.83 126.66, 50.45 125.87, 50.52 125.21 M48.69 127.09 C49.25 126.32, 49.94 125.2, 50.36 124.98" stroke="#b2f2bb" stroke-width="0.5" fill="none"></path><path d="M-1.13 3.94 C14.12 -0.47, 19.05 2.27, 47.33 -2.19 M46.35 -2.22 C49.66 41.91, 53.21 81.49, 46.73 124.96 M47.08 123.25 C37.38 124.14, 28.84 126.02, 3.89 129.38 M1.8 125.39 C1.64 97.1, -2.51 66.09, 1.04 -2.59" stroke="#1e1e1e" stroke-width="1.5" fill="none" stroke-dasharray="8 9"></path></g><g transform="translate(110.87254230657953 273.5555024895805) rotate(0 3.6914062500000284 7.565461447396345)"><text x="3.69140625" y="0" font-family="Cascadia, Segoe UI Emoji" font-size="12.609102412327239px" fill="#1e1e1e" text-anchor="middle" style="white-space: pre;" direction="ltr" dominant-baseline="text-before-edge">B</text></g><g stroke-linecap="round" transform="translate(159.20087527887836 264.93965448044924) rotate(0 21.180198266595426 39.14116585748495)"><path d="M0 0 C0 0, 0 0, 0 0 M0 0 C0 0, 0 0, 0 0 M-0.23 6.81 C1.12 4.04, 3.05 2.94, 4.97 0.46 M-0.22 6.39 C1.15 4.73, 2.29 3.51, 5.23 0.51 M1.01 11.94 C2.37 9.02, 3.99 7.01, 9.6 -0.36 M0.13 12.22 C2.79 8.6, 5.51 5.39, 10.67 -0.43 M0.6 19.21 C5.06 14.77, 8.26 7.85, 15.18 0.5 M-0.78 17.79 C3.26 14.25, 7.95 10.11, 16.12 0.5 M-0.59 23.87 C6.01 16.03, 14.75 7.48, 21.95 -0.05 M0.4 24.13 C6.83 16.65, 12.61 9.7, 21.58 -0.53 M1.04 31.42 C6.06 22.37, 13.34 15.34, 26.14 0.92 M-0.45 30.65 C8.34 19.94, 17.7 9.5, 26.4 0.73 M-0.82 36.69 C6.75 26.52, 16.29 18.65, 31.96 0.61 M-0.48 37.44 C6.54 29.33, 13.65 21.82, 32.52 -0.35 M-1.19 42.91 C13.67 26.52, 27.64 9.35, 35.78 0.27 M0.08 43.15 C8.36 33.9, 14.72 25.08, 37.46 0.82 M0.96 47.57 C16.41 28.05, 32.71 9.23, 42.72 -1.3 M-0.05 49.26 C11.01 35.21, 22.19 22.82, 42.99 0.32 M1.32 54.02 C12.72 37.57, 27.66 23.46, 42.91 5.22 M0.44 54.75 C9.24 43.94, 17.63 34.52, 42.91 5.66 M0.65 61.05 C10.31 50.19, 17.54 37.97, 43.8 12.17 M0.01 61.23 C16.12 41.93, 32.39 23.7, 43.07 11.49 M0.48 68.74 C12.74 54.65, 22.75 39.17, 41.78 17.12 M-0.76 67.62 C11.23 54.98, 22.29 41.05, 43.05 18.61 M-0.52 72.96 C15.3 55.69, 28.84 41.74, 43.29 25.47 M0.15 72.95 C15.07 54.79, 31.2 36.37, 42.1 25.39 M0.57 77.97 C17.01 61.82, 29.7 44.6, 43.85 30.59 M0.97 79.28 C17.06 60.27, 32.46 40.67, 42.73 30.67 M4.27 78.21 C20.19 61.33, 34.12 44.59, 43.23 35.77 M5.36 78.9 C16.35 66.73, 27.02 54.67, 41.99 37.34 M12.03 79.51 C20.14 66.1, 29.08 57.78, 42.6 41.26 M10.56 78.79 C21.45 66.06, 31.91 54.92, 43.02 41.91 M15.48 78.46 C21.53 72.69, 28.98 66.33, 41.9 49.77 M16.84 78.29 C25.2 69.6, 33.15 59.52, 43.07 49.08 M22.23 79.33 C29.41 70.99, 34.27 63.93, 42.8 56.37 M22.19 79.05 C29.69 70.5, 37.09 61.15, 42.16 55.51 M25.78 77.85 C31.93 75.38, 36.07 69.34, 43.6 61.84 M26.93 78.73 C30.78 74.32, 33.81 69.89, 43.06 60.67 M33.42 78.04 C34.5 76.27, 37.58 72.99, 41.6 67.19 M32.29 78 C35.1 75.37, 38.24 71.64, 41.93 66.89 M37.55 78.57 C39.34 76.36, 41.15 75.16, 42.46 73.17 M37.47 78.97 C39.15 76.74, 41.49 74.07, 42.78 73.1" stroke="#b2f2bb" stroke-width="0.5" fill="none"></path><path d="M-0.36 -0.75 C14.59 0.66, 27.61 -1, 42.97 -0.58 M42.68 -0.04 C41.47 18.6, 42.63 36.3, 42.25 78.22 M43.37 78.25 C28.08 79.16, 13.22 79.72, -0.83 78.54 M-1.32 78.43 C-0.87 60.46, 0.4 39.44, -1.03 0.67" stroke="#1e1e1e" stroke-width="1.5" fill="none" stroke-dasharray="8 9"></path></g><g transform="translate(176.68966729547378 296.51535889053787) rotate(0 3.69140625 7.565461447396331)"><text x="3.69140625" y="0" font-family="Cascadia, Segoe UI Emoji" font-size="12.609102412327239px" fill="#1e1e1e" text-anchor="middle" style="white-space: pre;" direction="ltr" dominant-baseline="text-before-edge">C</text></g><g stroke-linecap="round" transform="translate(228.4513909760583 235.07190086113928) rotate(0 13.575660453538319 52.9059840111679)"><path d="M0 0 C0 0, 0 0, 0 0 M0 0 C0 0, 0 0, 0 0 M-0.57 6.21 C0.89 5.39, 2.33 3.66, 4.63 0.21 M-0.34 6.46 C1.86 3.9, 3.65 1.6, 4.84 0.27 M0.26 11.93 C3.55 8.62, 6.58 3.8, 10.23 0.02 M0.08 12.08 C4.2 7.48, 7.46 2.86, 10.68 0.01 M0.28 18.42 C5.58 12.5, 11.35 5.19, 15.81 0.23 M0.19 18.83 C6.28 11.47, 12.56 4.5, 15.26 0 M0.54 24.95 C8.21 15.19, 16.27 5.46, 21.51 0.15 M0.54 23.78 C8.07 15.91, 15.63 7.23, 20.82 -0.11 M0.36 30.09 C6.23 23.07, 13.95 15.72, 26.12 -0.02 M-0.19 30.3 C9.97 18.64, 20.73 6.47, 26.37 0.62 M0.04 37.37 C10.14 24.68, 19.95 12.48, 27.39 4.27 M-0.24 36.56 C7.75 27.23, 16.33 18.18, 27 5.3 M0.46 43.27 C11.45 30.83, 22.28 18.22, 27.3 10.16 M0.34 42.35 C8.71 31.73, 18.22 21.27, 27.53 10.54 M-0.13 48.8 C9.88 37.16, 20.35 25.67, 27.55 17.55 M0.02 48.84 C7.26 40.89, 13.99 31.84, 26.98 17.69 M0 54.89 C7.76 45.38, 16.25 35.34, 27.26 23.73 M0.29 54.99 C9.8 43.41, 19.53 32.65, 28.24 23.13 M-0.4 60.89 C8.11 51.65, 15.44 44.25, 28.08 28.65 M-0.12 61.11 C10.91 48.74, 21.99 35.96, 27.5 29.24 M0.54 67.51 C9.65 56.93, 19.51 45.94, 28.15 35.14 M0.21 67.13 C7.71 57.44, 16.75 48.55, 27.65 35.64 M0.89 73.34 C10.53 60.97, 21.15 48.99, 27.31 40.72 M0.08 73.32 C10.89 61.03, 20.6 49.64, 27.85 41.3 M0.05 79.79 C6.23 70.91, 12.73 64.53, 27.63 47.19 M0.16 79.6 C6.63 71.54, 13.18 63.92, 27.54 48.07 M0.27 85.62 C7.67 76.78, 14.03 68.58, 28.27 52.44 M0.52 85.21 C10.03 74.57, 19.01 63.06, 28.15 53.34 M-0.82 91.95 C8.65 82.1, 17.24 71.97, 28.41 60.03 M-0.03 91.79 C8.42 82.18, 16.59 71.78, 27.35 60.13 M0.62 98.63 C8.25 89.13, 15.24 80.49, 27.72 65.36 M0.11 97.49 C10.78 85.67, 21.17 73.72, 27.26 66.06 M-0.73 103.65 C9.75 92.63, 20.55 79.48, 26.9 70.92 M0.48 103.73 C7.59 95.88, 13.85 87.61, 27.31 71.48 M3.11 106.99 C8.58 98.94, 15.91 92.97, 27.23 78.04 M3.1 106.51 C8.96 99.04, 15.17 91.84, 27.76 77.9 M8.63 106.66 C14.91 100.17, 20.51 92.61, 28.34 83.42 M8.4 106.41 C14.75 98.67, 22.05 90.61, 28.2 83.88 M14.59 105.63 C19.33 100, 24.14 95.75, 28.24 89.64 M13.93 105.67 C16.48 102.24, 19.88 99.06, 27.78 90.04 M18.72 106.28 C20.97 103.08, 23.93 99.94, 26.88 96.22 M18.66 106.39 C20.97 104.16, 22.62 101.71, 27.41 96.76 M24.43 106.26 C25.26 105.31, 26.21 104.17, 27.84 102.1 M24.52 105.99 C25.27 105, 26.1 104.23, 27.75 102.19" stroke="#b2f2bb" stroke-width="0.5" fill="none"></path><path d="M-0.66 -0.83 C9.62 0.05, 18.96 -0.29, 26.45 0.21 M26.48 -0.24 C27.51 37, 26.79 71.95, 27.95 104.88 M27.36 106.67 C18.61 106.07, 10.78 105.47, 0.31 104.95 M-0.08 104.98 C-0.66 71.65, -1.01 36.9, 0.22 0.11" stroke="#1e1e1e" stroke-width="1.5" fill="none" stroke-dasharray="8 9"></path></g><g transform="translate(238.33564517959655 280.41242342491086) rotate(0 3.69140625 7.565461447396331)"><text x="3.69140625" y="0" font-family="Cascadia, Segoe UI Emoji" font-size="12.609102412327239px" fill="#1e1e1e" text-anchor="middle" style="white-space: pre;" direction="ltr" dominant-baseline="text-before-edge">D</text></g><g stroke-linecap="round" transform="translate(280.230076671809 219.26123967948698) rotate(0 24.197505526442228 61.84431304680827)"><path d="M0 0 C0 0, 0 0, 0 0 M0 0 C0 0, 0 0, 0 0 M-0.85 6.72 C1.98 3.48, 3.84 2.61, 5.6 0.75 M-0.24 6.22 C1.7 4.32, 3.19 2, 4.66 0.03 M1.39 10.73 C5.15 8.22, 7.6 4.91, 11.09 -0.16 M0.04 11.53 C3.69 8.04, 7.84 2.39, 10.45 0.66 M-0.48 19.48 C6.66 9.88, 13.51 4.48, 15.77 1.75 M0.05 19.29 C3.22 14.14, 7.45 9.75, 16.45 -0.54 M1.01 22.25 C5.46 14.52, 12.92 8.96, 20.07 1.26 M-0.47 24.63 C6.71 14.76, 14.43 6.11, 20.36 -0.12 M1.34 31.53 C10.14 18.38, 20.01 6.23, 24.42 0.01 M-0.38 29.71 C10.99 18.33, 20.57 6.73, 26.9 0.76 M0.32 36.94 C10.83 23.97, 21.02 11.87, 32.44 0.88 M0.13 36.63 C9.93 26.29, 18.93 15.96, 31.41 0.69 M1.64 43.95 C10.44 30.89, 17 23.11, 37.69 0.78 M0.08 42.79 C8.73 33.26, 16.36 24.72, 36.56 0.16 M-0.86 48.02 C10.7 34.32, 22.55 20.49, 41.3 -0.88 M-0.61 48.36 C12.23 35.21, 23.83 20.83, 41.81 -0.13 M1.16 55.01 C20.06 31.31, 36.81 11.96, 46.03 1.72 M0.46 55.32 C12.75 40.33, 23.76 27.01, 47.17 0.88 M-1.29 59.11 C8.54 49.65, 20.36 34.74, 47.08 4.94 M-0.86 60.25 C14.22 45.74, 25.43 30.37, 49.17 4.44 M0.92 66.93 C17.11 46.9, 30.99 28.78, 47.38 9.66 M-0.67 68.11 C16.18 49.95, 31.7 31.8, 49.18 11.16 M-0.89 71.68 C10.17 61.25, 18.65 49.58, 48.93 17.48 M-0.22 73.87 C11.81 59.99, 23.37 45.35, 48.11 16.25 M-0.68 81.06 C15.35 61.1, 33.64 40.72, 48.72 24.09 M0.26 80.17 C16.62 60.19, 32.58 41.27, 48.28 23.18 M0.43 83.93 C10.26 74.34, 21.93 59.11, 50.42 30.79 M0.52 84.31 C10.66 72.79, 20.4 61.87, 48.07 28.41 M1.15 93.08 C20.79 69.69, 39.92 46, 46.92 37.26 M-0.53 92.32 C17.15 73.12, 34.76 52.62, 49.01 36.27 M0.32 97.08 C14.16 84.12, 25.64 67.22, 48.37 39.66 M-0.32 98.53 C16.13 80.67, 30.29 62.19, 48.21 41.31 M-0.16 102.99 C11.09 93.38, 18.12 79.25, 50.39 49.34 M0.58 103.27 C13.17 88, 26.62 73.09, 47.77 47.03 M-1.61 110.54 C14.16 96.56, 25.31 79.8, 47.26 53.96 M0.08 109.24 C13.33 94.36, 24.96 80.37, 49.07 53.77 M0.91 114 C19.18 92.62, 37.22 74.13, 47.87 58.32 M-0.03 114.98 C15.66 97.26, 32.37 79.09, 48.77 58.78 M1.6 120.86 C18.41 99.9, 39.59 75.93, 48.97 67.84 M0.47 122.49 C12.83 107.83, 26.04 92.62, 48.76 66.54 M4.16 123.98 C16.38 109.47, 32.19 90.33, 50.34 70.03 M3.38 125.01 C15.66 110.15, 28.7 94.81, 49.49 72.04 M7.58 125.56 C20.25 109.28, 33.82 96.69, 46.95 77.24 M9.47 123.62 C23.53 107.75, 36.77 92.21, 49.2 78.5 M13.01 123.54 C19.82 116.06, 29.18 106.6, 47.79 85.93 M13.83 123.74 C24.52 111.55, 37.14 98.07, 48.37 84.4 M19.28 123.29 C29.55 112.43, 38.81 101.5, 49.2 89.77 M18.5 124.62 C25.75 114.84, 34.56 106.56, 48.53 90.07 M24.25 123.48 C34.56 116.06, 42.54 103.69, 47.03 98.25 M24.2 124.56 C29.43 117.76, 36 111.84, 48.33 95.85 M29.46 122.67 C35.12 118.23, 37.79 115.63, 49.9 101.5 M29.83 123.84 C35.53 117.46, 40.13 112.45, 48.85 103.09 M36.08 125.06 C39.76 118.47, 46.99 110.39, 47.37 107.48 M35.46 123.92 C38.38 120.63, 41.73 117.14, 48.25 108.64 M41.51 124.58 C42.63 121.09, 46.44 117.5, 48.82 114.55 M40.24 124.5 C42.75 121.23, 44.74 119.13, 48.78 115.05 M45.63 124.17 C46.43 123.21, 47.09 122.87, 48.82 120.77 M45.68 124.38 C46.19 123.29, 47.38 122.36, 48.71 120.85" stroke="#b2f2bb" stroke-width="0.5" fill="none"></path><path d="M1.65 1.15 C16.97 -1.32, 30.66 0.57, 47.74 1.82 M49.8 1.51 C48.98 31, 48.97 63.45, 47.21 125.17 M49.39 122.91 C31.34 122.4, 17.16 123.18, -1.06 123.43 M-0.56 124.6 C-0.44 78.06, -2.18 32.36, -0.17 0.33" stroke="#1e1e1e" stroke-width="1.5" fill="none" stroke-dasharray="8 9"></path></g><g transform="translate(300.73617594825123 273.5400912788989) rotate(0 3.69140625 7.565461447396331)"><text x="3.69140625" y="0" font-family="Cascadia, Segoe UI Emoji" font-size="12.609102412327239px" fill="#1e1e1e" text-anchor="middle" style="white-space: pre;" direction="ltr" dominant-baseline="text-before-edge">E</text></g><g stroke-linecap="round" transform="translate(354.62589730051343 240.84236030336402) rotate(0 17.047685008326766 50.33422620370369)"><path d="M0 0 C0 0, 0 0, 0 0 M0 0 C0 0, 0 0, 0 0 M-0.09 6.14 C0.52 5.11, 1.93 3.97, 4.62 0.56 M-0.48 6.55 C1.75 3.89, 3.68 1.69, 4.91 0.21 M0.99 12.19 C3.55 6.98, 9.16 1.81, 10.93 0.46 M0.44 11.76 C3.94 7.17, 8.02 2.23, 10.71 -0.39 M0.33 19.31 C5.44 13.04, 10.62 6.87, 14.55 -0.02 M-0.14 18.21 C2.68 14.5, 6.41 11.22, 15.27 0.28 M0.37 24.72 C7.99 14.28, 14.69 5.54, 21.79 0.27 M-0.11 24.43 C6.85 16.56, 13.39 9.19, 21.51 0.09 M0.17 30.06 C4.59 24.09, 10.67 17.36, 25.34 0.92 M-0.1 30.93 C8.12 21.01, 16.3 12.85, 25.77 0.71 M0.14 36.35 C7.46 28.34, 15.22 17.17, 32.96 -0.07 M0.22 37.04 C11.13 23.68, 21.24 11.78, 32.14 -0.59 M0.11 43.58 C11.55 30.11, 21.22 19.67, 33.87 3.57 M0.58 43 C12.4 28.3, 24.62 13.68, 34.34 3 M0.56 49.36 C6.39 39.89, 14 31.6, 32.95 10.27 M0.23 49.39 C10.51 35.84, 22.73 23.82, 33.82 9.73 M0.29 54.29 C12.56 40.77, 22.9 26.45, 34.1 15.83 M0.63 55.08 C8.26 45.26, 16.32 35.81, 34.16 15.36 M1.08 59.91 C11.31 47.47, 23.59 34.48, 35.07 21.32 M0.02 60.41 C6.89 53.26, 13.91 44.3, 34.28 21.37 M-1.26 67.41 C10.41 55.45, 20.98 41.98, 35.61 27.77 M-0.48 67.36 C8.69 56.83, 17.27 47.77, 34.32 27.13 M-0.13 74.01 C11.68 60.17, 23.17 47.1, 34.32 32.87 M-0.18 73.4 C12.66 58.25, 25.3 43.93, 34.13 33.65 M-0.33 79.23 C7.32 69.84, 15.07 62.85, 34.13 39.83 M-0.43 79.25 C10.48 67.62, 20.38 54.95, 34.29 39.84 M0.88 84.87 C10.17 73.71, 21.71 61.42, 33.5 45.86 M-0.16 85.13 C10.37 73.59, 20.04 62.69, 34.54 45.81 M-0.59 91.67 C12.05 78.51, 22.19 65.82, 34.3 51.88 M0.27 91.2 C12.87 76.7, 25.35 62.39, 33.83 52.3 M-1.2 97.06 C14.4 81.47, 26.73 66.41, 35.09 56.81 M0.21 98.26 C10.86 85.16, 20.9 73.6, 34.18 57.48 M1.11 101.42 C14.71 87.75, 27.13 71.28, 33.49 64.4 M2.36 101.02 C14.4 87.52, 27.44 72.4, 34.11 64.62 M7.77 100.71 C14.39 93.49, 21.58 85.9, 35.06 70.81 M6.93 101.65 C14.53 92.79, 20.95 84.67, 33.59 71.12 M13.32 101 C21.45 92.05, 27.99 83.06, 34.44 76.58 M12.59 101.11 C21.45 91.12, 29.35 81.88, 34.14 75.73 M17.93 100.5 C22.76 95.31, 28.05 90.55, 33.28 81.78 M17.87 101.09 C21.5 97.44, 25.18 93.14, 33.87 82.91 M22.63 100.46 C27.46 96.69, 29.52 94.34, 34.59 88.19 M23.43 101.56 C27.02 96.29, 31.31 92.4, 34.15 88.07 M28.55 101.9 C30.41 98.8, 32.2 96.45, 34.67 94.26 M28.61 101.27 C30.64 99.03, 33 96.49, 34.35 94.59" stroke="#b2f2bb" stroke-width="0.5" fill="none"></path><path d="M0.86 0.15 C11.39 0.58, 21.11 1, 33.57 0.9 M34.9 -0.69 C33.71 25.12, 35.04 48.44, 33.15 99.86 M34.6 100.25 C25.81 100.95, 16.78 100.61, -0.26 99.75 M-0.8 99.93 C-0.53 73.86, -0.52 48.4, -0.13 0.61" stroke="#1e1e1e" stroke-width="1.5" fill="none" stroke-dasharray="8 9"></path></g><g transform="translate(367.9821760588402 283.6111250596714) rotate(0 3.69140625 7.565461447396345)"><text x="3.69140625" y="0" font-family="Cascadia, Segoe UI Emoji" font-size="12.609102412327239px" fill="#1e1e1e" text-anchor="middle" style="white-space: pre;" direction="ltr" dominant-baseline="text-before-edge">F</text></g><g stroke-linecap="round" transform="translate(412.6727321916793 227.61247085202777) rotate(0 22.385774373096297 55.76524459168421)"><path d="M0 0 C0 0, 0 0, 0 0 M0 0 C0 0, 0 0, 0 0 M-0.76 6.5 C1.37 4.54, 2.59 3.39, 5.16 0.38 M-0.43 6.46 C1.71 4.39, 3.14 2.45, 5.03 0.27 M0.72 11.49 C4.57 6.91, 8.15 2.89, 9.96 0.2 M-0.41 11.6 C4.82 6.91, 8.2 2.51, 10.95 -0.62 M1.17 19.63 C5.61 11.86, 8.34 8.71, 14.65 -0.7 M-0.84 18.58 C6.03 12.08, 12.06 3.59, 15.07 0.44 M0.98 23.53 C7.71 16.35, 17.44 4.84, 20.82 1.02 M0.74 23.47 C5.96 17.76, 11.58 11.79, 22.01 0.06 M-0.5 30.69 C7.89 21, 12.72 13.35, 25.07 1.69 M0.41 30.35 C10.09 19.48, 18.71 8.52, 26.28 0.51 M-0.7 36.69 C13.34 21.24, 24.58 7.88, 31.16 -1.66 M-0.12 36.14 C9.44 25.4, 19.19 15.12, 31.28 -0.74 M0.53 41.24 C8.59 33.47, 16.8 23.85, 36.11 0.92 M-0.49 41.94 C11.65 29.34, 21.62 17.89, 36.93 0.15 M0.06 50.31 C13.98 30.54, 30.13 15.43, 41.26 -0.97 M0.18 49.55 C14.4 31.21, 28.75 14.24, 43.15 -0.85 M1.82 53.05 C17.53 35.69, 35.27 16.38, 45.41 2.47 M-0.17 54.23 C12.03 42.17, 22.24 29.31, 44.32 3.43 M-0.04 59.38 C14.6 43.65, 28.83 26.64, 44.63 9.02 M-0.02 60.88 C15.89 41.16, 33.08 21.74, 45.26 10.29 M-1.28 67.44 C15.72 48.39, 30.75 31.71, 44.02 16 M-0.89 67.28 C16.75 48.05, 34.37 28.78, 45.73 14.65 M-1.2 71.98 C17.97 53.67, 36.08 32.98, 43.58 20.38 M0.86 73.3 C12.88 59.16, 24.92 43.98, 44.11 21.91 M1.25 80.65 C14.1 64.63, 26.22 51.9, 46.47 26.12 M-0.75 79.68 C10.13 66.99, 21.42 55.64, 45.37 27.4 M0.35 86.25 C10.68 72.12, 21.03 61.09, 43.73 32.47 M-0.19 84.85 C18.64 64.52, 35.64 43.37, 44.54 33.31 M0.05 89.98 C15.42 74.18, 26.09 59.77, 45.28 41.14 M-0.07 90.72 C12.21 76.17, 24.85 61.45, 44.68 40.71 M0.6 99.08 C15.15 77.84, 31.41 60.2, 45.65 47.24 M0.48 97.9 C10.81 85.15, 21.49 73.07, 45.26 45.26 M-0.86 105.04 C16.27 86.94, 28.34 69.95, 45.3 50.79 M0.52 102.92 C17.78 83.19, 36.06 63.35, 44.07 52.59 M-1.65 111.02 C14.12 93.27, 29.25 78.69, 45.13 59.12 M-0.81 110.57 C16.29 91.53, 31.64 73.35, 44.79 58.55 M4.23 111.41 C15.68 99.24, 25.89 87.77, 45.45 64.11 M3.45 111.85 C16.43 96.75, 29.5 81.09, 44.55 63.68 M7.7 113.06 C15.6 103.31, 25.36 93.85, 43.69 69.98 M9.29 112.28 C16.19 103.14, 24.44 93.8, 44.71 70.78 M15.4 110.15 C23.38 98.74, 35.1 88.91, 46.13 76.27 M13.96 111.55 C21.43 104.06, 29.12 95.34, 44.81 76.67 M19.61 112.38 C26.17 104.63, 33.7 95.73, 43.25 81.41 M18.78 111.83 C25.21 104.91, 31.1 99.09, 45.22 82.05 M25.67 111.53 C33.38 101.66, 39.62 93.26, 43.81 86.77 M23.7 112.85 C32.04 103.23, 40.61 93.76, 44.5 88.33 M28.87 112.04 C33.3 107.09, 40.11 102.41, 43.79 94.44 M29.17 111.56 C34.05 107.65, 38.23 103.74, 45.11 93.92 M34.29 112.42 C36.82 109.4, 40.08 107.47, 44.63 101.61 M34.26 112.12 C37 109.55, 39.76 105.78, 44.46 100.67 M40.08 112.15 C41.59 110.27, 43.54 108.17, 44.81 107.22 M40.62 112.26 C41.76 110.78, 43.14 109.35, 45.09 106.91" stroke="#b2f2bb" stroke-width="0.5" fill="none"></path><path d="M-0.64 0 C12.27 -1.28, 22.99 1.72, 44.2 -0.63 M44.38 1.43 C45.47 38.1, 45.53 75.7, 44.86 110.27 M43.84 112.68 C29.04 110.01, 13.3 109.98, -0.37 111.24 M-0.3 111.29 C-0.04 86.12, 0.57 64.23, 0.19 -0.46" stroke="#1e1e1e" stroke-width="1.5" fill="none" stroke-dasharray="8 9"></path></g><g transform="translate(431.3671003147756 275.81225399631563) rotate(0 3.69140625 7.565461447396331)"><text x="3.69140625" y="0" font-family="Cascadia, Segoe UI Emoji" font-size="12.609102412327239px" fill="#1e1e1e" text-anchor="middle" style="white-space: pre;" direction="ltr" dominant-baseline="text-before-edge">G</text></g><g transform="translate(22.103437694308468 183.26729893469195) rotate(0 40.63480269597645 7.565461447396345)"><text x="40.634802695976454" y="0" font-family="Cascadia, Segoe UI Emoji" font-size="12.609102412327239px" fill="#1e1e1e" text-anchor="middle" style="white-space: pre;" direction="ltr" dominant-baseline="text-before-edge">Mult-server</text></g><g stroke-linecap="round" transform="translate(10 163.08948352115414) rotate(0 229.37634243232992 129.42367438320778)"><path d="M1.86 -0.1 C157.46 4.99, 312.66 4.18, 457.48 -1.56 M461.73 -1.32 C457.24 78.51, 456.9 158.96, 460.34 258.35 M459.21 260.15 C296.75 258, 137.31 257.56, 0.71 259.56 M-1.34 260.6 C5.11 153.17, 0.95 54.33, 0.71 2.84" stroke="#1e1e1e" stroke-width="1.5" fill="none" stroke-dasharray="8 9"></path></g><g stroke-linecap="round" transform="translate(24.706518162184125 80.62809707645651) rotate(0 216.91812943294929 17.333629344343613)"><path d="M0 0 C0 0, 0 0, 0 0 M0 0 C0 0, 0 0, 0 0 M-0.58 6.51 C0.87 4.75, 2.1 3.95, 4.72 0.17 M-0.2 6.42 C1.13 4.91, 2.47 2.88, 5.07 0.3 M0.79 11.73 C4.66 7.51, 7.85 3.84, 11.23 0.85 M-0.03 12.23 C3.66 7.66, 7.72 3.11, 10.34 -0.26 M-0.35 18.4 C3.71 12.81, 8.45 7.46, 15.51 -0.79 M-0.02 18.9 C4.13 13.98, 8.11 9.79, 15.42 -0.06 M0.17 24.86 C6.75 17.71, 11.89 11.28, 22.16 -0.2 M-0.27 23.87 C5.14 17.92, 9.94 12.82, 21.66 -0.33 M-0.32 30.09 C6.58 24.3, 11.92 15.09, 27.29 1.41 M-0.25 30.86 C9.69 19.77, 18.65 9.09, 26.23 0.6 M1.7 34.25 C8.96 25.75, 18.03 16.59, 31.41 0.59 M2.17 34.67 C9.38 25.61, 17.51 15.71, 31.71 0.31 M6.15 35.18 C14.41 24.8, 23.38 16.82, 37.6 0.89 M6.96 35.12 C15.09 25.49, 23 16.12, 37.09 -0.2 M12.25 34.44 C21.2 24.62, 28.74 14.42, 42.99 -0.31 M12.45 34.85 C21.77 23.4, 31.51 12.46, 42.35 -0.34 M16.72 35.4 C26.11 23.22, 36.4 14.09, 48.04 -0.57 M17.62 35.47 C26.11 26.01, 33.91 16.14, 47.47 -0.2 M22.91 33.44 C30.34 27.38, 36.1 20.36, 52.56 -0.98 M23.19 34.3 C32.98 22.44, 43.02 11.01, 53.55 0.12 M28.54 35.15 C36.37 24.56, 47.15 13.58, 58.21 0.52 M27.87 34.79 C36.93 24.43, 45.43 14.38, 58.53 0.2 M34.19 34.96 C45.61 21.17, 57.37 8.25, 64.52 0.52 M33.43 34.2 C43.69 23.26, 52.54 12.92, 63.88 0 M37.87 34.32 C47.54 25.19, 55.33 14.82, 69.11 -0.84 M38.65 35.22 C46.29 26.61, 53.72 18.2, 69.2 0.7 M43.49 34.22 C51.4 26.63, 57.61 18.87, 75.05 0.49 M44.44 34.72 C55.7 21.42, 66.28 8.48, 74.44 -0.29 M48.62 33.95 C58.43 23.44, 66.78 14.18, 79.74 1.15 M48.91 35.39 C58.76 24.27, 67.55 13.92, 78.97 0.59 M54.6 35.71 C64.27 24.65, 73.39 11.41, 84.56 -0.23 M54.05 35.23 C60.85 27.34, 67.86 19.46, 84.95 0.09 M59.84 35.1 C69.04 24.26, 77.08 15.24, 90.51 -0.73 M59.6 34.31 C67.37 26.23, 74.45 17.74, 89.61 0.4 M65.62 35.46 C75.26 23.05, 83.27 12.92, 96.55 0.36 M64.29 35.22 C75.88 23.49, 85.82 10.69, 95.41 -0.45 M71.43 35.43 C81.57 21.43, 92.94 9.62, 99.81 -0.65 M70.82 34.27 C79.6 24.99, 88.11 14.55, 101.2 0.25 M75.22 35.72 C84.89 21.99, 96.97 12.21, 105.18 -0.26 M75.84 34.88 C81.37 28.4, 88.59 20.55, 106.68 -0.81 M80.73 34.92 C92.23 21.38, 104.31 9.12, 111.97 0.99 M81.28 34.56 C88.75 25.59, 96.03 16.85, 111.55 0.39 M86.38 34.06 C94.16 26.79, 101.38 16.39, 116.07 -0.43 M86.62 34.91 C91.86 27.68, 98.46 20.17, 115.86 0.72 M92.67 34.67 C103.94 21.59, 116.83 6.81, 122.52 1.02 M92.24 34.31 C103.37 21.41, 116.06 7.1, 122.46 -0.52 M97.82 34.28 C103.51 26.51, 112.11 17.52, 127.49 -0.77 M96.27 35.59 C108.8 21.48, 119.79 8.54, 127.4 0.58 M102.87 33.54 C113.23 22.36, 122.79 10.41, 132.92 -0.94 M102.42 34.23 C113.29 21.81, 124.81 7.99, 132.33 -0.25 M107.39 33.98 C117.9 22.62, 127.31 10.65, 136.54 -0.7 M107.81 35.06 C116.21 24.7, 124.55 15.45, 137.29 0.74 M112.27 33.81 C123.4 22.5, 134.68 9.57, 142.63 1.02 M113.09 34.84 C122.83 23.8, 132.98 11.48, 143.54 -0.44 M117.73 34.74 C128.03 24.03, 137.02 14.07, 147.5 -0.41 M118.09 35.55 C126.56 25.16, 135.62 15.14, 148.68 0.58 M123.8 35.52 C134.74 23.06, 144.51 12.8, 154.78 -0.21 M124.11 34.84 C134.56 22.94, 143.94 11.53, 153.95 -0.31 M128.36 34.19 C136.27 26.71, 140.51 20.35, 158.67 1.07 M128.45 34.89 C137.15 24.97, 146.01 15.24, 158.24 0.42 M134.41 35.3 C141.4 26.26, 149.31 15.38, 163.7 -0.96 M134.53 35.04 C146.29 21.69, 157.85 8.03, 164.26 -0.65 M139.05 33.95 C146.62 26.58, 152.15 19.66, 170.31 0.19 M139.7 35.02 C145.27 28.2, 151.41 20.27, 169.14 -0.09 M145.3 34.36 C155.39 22.68, 165.35 12.69, 174.18 0.75 M145.35 34.4 C151.84 27.31, 158.1 19.47, 175.16 0.14 M151 33.95 C160.1 22.75, 171.1 8.76, 178.98 -0.91 M150.38 34.61 C158.35 25.09, 167.16 15.66, 180.32 -0.34 M156.2 35.05 C163.28 25.19, 171.97 15.35, 186.73 -0.45 M155.63 33.97 C163.26 25.75, 169.75 17.67, 185.68 -0.16 M161.1 35.83 C168.85 26.39, 176.18 17.16, 190.03 -0.08 M160.75 35.29 C172.81 21.74, 183.66 8.11, 190.45 0.68 M165.92 35.95 C176.22 21.31, 186.79 10.71, 196.48 -0.25 M165.75 34.88 C173.45 26.05, 181.94 17.11, 195.96 -0.24 M172.2 35.04 C181.57 23.28, 192.07 10.91, 200.54 -0.8 M171.08 34.3 C180.92 24.34, 190.21 13.01, 200.75 0.46 M176.06 34.56 C183.81 26.1, 189.89 18.95, 207.89 0.54 M176.07 34.68 C186.72 23.21, 197.09 11.84, 206.75 -0.37 M182.88 35.53 C192.45 21.82, 204.64 8.57, 211.85 0.23 M182.19 35.24 C189.57 24.84, 198.73 14.84, 212.17 0.3 M185.95 35.14 C195.09 25.92, 203.42 16.81, 217.74 -0.55 M187.01 34.75 C196.51 24.13, 205.6 13.25, 217.66 -0.67 M193.1 35.03 C201.66 24.98, 208.62 15.21, 221.58 0.71 M192.67 35.03 C198.51 27.12, 205.34 18.76, 222.56 0.19 M196.38 35.59 C209.01 21.36, 220.82 6.82, 227.61 0.26 M197.63 35.56 C206.1 24.99, 214.61 15.09, 227.72 -0.57 M203.12 35.26 C212.57 23.11, 225.19 9.3, 233.85 0.58 M202.82 34.71 C211.92 24.39, 221.61 14.05, 232.87 -0.56 M207.89 36.09 C217.41 25.47, 226.35 16.4, 237.58 1.28 M207.89 34.59 C219.46 22.26, 229.44 9.49, 238.74 0.26 M214.57 34 C222.93 22.82, 232.78 12.05, 244.57 0.96 M214.06 34.31 C225.65 21.06, 237.58 7.67, 244.36 -0.55 M219.55 35.69 C224.01 27.65, 231.36 19.99, 249.93 0.27 M219.15 34.85 C228.01 24.66, 236.7 15.19, 248.28 0.56 M224.81 35.27 C235.52 23, 244.92 11.61, 253.86 0.72 M223.86 34.57 C231 27.4, 237.69 18.86, 254.64 -0.22 M230.15 35.73 C240.42 24, 249.56 11.57, 259.6 0.13 M229.09 35.22 C235.24 27.95, 242.06 20.3, 259.84 0.38 M234.9 34.61 C245.18 23.51, 253.47 12, 264.94 -0.15 M235.38 34.07 C241.46 26.76, 247.86 19.64, 264.96 -0.17 M239.29 34.17 C245.56 26.22, 253.8 20.66, 269.23 0.17 M240.24 34.43 C249.88 23.62, 259.73 12.95, 270.26 0.81 M246.12 33.82 C257.12 22.86, 268.79 8.83, 276.19 0.67 M245.54 34.39 C252.03 26.31, 258.95 19.35, 275.19 -0.57 M250.81 35.78 C259.55 23.47, 270.06 11.04, 280.59 0.27 M250.3 35.04 C257.01 27.8, 263.32 21.17, 280.88 -0.31 M256.64 35.27 C263.73 26.48, 270.95 17.38, 286.85 -0.19 M255.8 34.95 C262.9 26.11, 270.45 18.47, 286.64 -0.61 M260.32 35.17 C271.13 21.98, 280.71 11.1, 291.21 -0.21 M260.67 34.92 C270.93 24.31, 280.61 12.87, 291.38 0.08 M267.18 33.98 C274.9 26.15, 282.28 16.08, 298.1 0.75 M267.08 34.74 C273.9 26.15, 280.8 18.04, 296.93 -0.21 M272.21 35.99 C277.35 26.61, 283.85 20.96, 302.26 0.94 M271.35 34.6 C280.83 25.19, 289.04 15.46, 301.45 0.66 M277.56 34.64 C288.8 22.25, 300.43 9.24, 307.42 -0.97 M276.9 34.04 C288.53 21.9, 298.93 9.44, 307.36 -0.56 M282.6 34.03 C292.57 23.39, 300.79 14.23, 312.93 0.82 M282.62 34.5 C288.1 27.44, 294.51 20.61, 312.46 -0.34 M287.21 35.33 C295.43 24.64, 304.31 14.99, 318.81 -0.72 M287.23 35.68 C298.59 22.47, 310.68 8.46, 317.83 -0.17 M294.15 34.12 C302.14 22.66, 312.34 12.46, 323.77 -0.59 M293.36 34.29 C303.68 23.05, 314.04 10.36, 323.54 -0.02 M298.96 34.73 C309.2 21.82, 318.51 11.06, 328 0.5 M298.61 34.72 C308.29 24.01, 318.49 12.45, 328.55 0.03 M303.51 35.47 C312.83 23.38, 322.12 13.62, 333.38 0.65 M303.87 34.63 C311.15 25.84, 319.62 16.4, 334.4 -0.46 M309.38 35.47 C317.84 24.31, 327.64 12.84, 339.52 -0.59 M309.06 34.84 C318.79 23.35, 328.64 12.26, 339.44 -0.48 M313.87 35.02 C323.16 25.06, 329.9 16.8, 343.99 0.02 M314.18 34.35 C322.55 25.17, 331.32 15.94, 344.76 -0.17 M319.35 35.53 C327.33 25.53, 336.43 15.18, 349 1.47 M319.54 34.57 C330.62 22.12, 342.52 8.26, 348.93 0.66 M324.69 35.4 C335.74 23.11, 346.14 9.44, 355.84 -0.75 M324.61 34.36 C336.45 21.76, 347.89 8.06, 354.91 -0.4 M330.05 34.55 C337.85 27.24, 344.97 16.23, 360.52 0.8 M330.45 35.4 C340.33 22.51, 351.46 10.42, 360.52 0.57 M335.14 34.74 C343.76 25.79, 352.94 15.33, 366.05 0.62 M335.21 34.89 C346.3 22.92, 355.85 11.13, 366.26 0.01 M339.49 35.06 C351.26 23.5, 359.58 12.61, 370.25 -0.52 M341.06 35.55 C352.12 21.67, 364.42 7.79, 370.4 0.73 M345.22 34.57 C354.31 24.28, 362.71 15.24, 376.5 -0.89 M346.31 34.86 C357.76 21.28, 370.2 8.11, 376.31 -0.46 M350.5 34.5 C359.23 26.95, 366.62 17.19, 381.49 1.11 M351.21 35.08 C359.81 24.65, 368.54 14.96, 381.93 0.02 M356.9 34.17 C367.76 21.22, 379.51 8.9, 385.97 -0.68 M356.85 34.76 C367.21 23.11, 377.82 10.74, 387.07 0.17 M362.78 35.42 C372.26 21.17, 383.97 7.71, 391.59 -0.88 M361.9 35.32 C372.65 21.86, 384.16 9.47, 391.95 0.59 M368.43 33.98 C377.97 22.81, 386.4 12.73, 398.04 0.77 M367.17 34.9 C376.48 23.53, 385.81 12.63, 397.72 0.08 M371.75 35.29 C380.34 26.63, 389.25 17.37, 402.13 0.55 M372.41 34.89 C383.21 21.94, 393.87 9.66, 402.71 0.44 M377.8 34.47 C384.49 27.78, 390.87 20.12, 408.59 -0.96 M378.51 34.91 C388.29 22.63, 397.69 11.33, 408.61 -0.18 M383.28 34.43 C389.59 25.85, 397.2 19.35, 413.26 0 M383.2 34.81 C392.36 23.15, 402.56 12.52, 413.34 -0.28 M388.32 34.95 C398.11 23.33, 409.23 12.13, 418.35 0.5 M388.95 34.23 C399.44 22.92, 409.21 11.44, 418.37 -0.48 M394.49 34.89 C401.81 26.31, 410.55 16.47, 424.8 1.14 M394.14 34.54 C403.55 23.32, 414.75 10.71, 423.83 0.1 M397.84 35.56 C407.75 25.32, 415.59 15.2, 429.39 0.75 M399.09 35.77 C406.06 26.06, 414.54 16.66, 429.05 -0.55 M403.84 34.75 C412.38 25.65, 420.17 16.44, 435.17 -0.26 M403.99 34.8 C410.77 26.36, 417.97 18.51, 434.47 -0.28 M409.27 35.29 C415.27 27.63, 422.67 21.53, 433.65 6.18 M409.49 35.48 C415.33 27.82, 421.5 21.19, 433.98 6.22 M414.63 33.82 C421.06 28.5, 425 23.7, 433.59 13.48 M415.48 34.75 C418.81 30.74, 423.04 26.14, 434.12 13.35 M420.96 35.42 C425.31 29.37, 429.03 23.13, 433.94 17.74 M419.6 35.39 C423.48 30.47, 428.43 26.18, 434.85 18.29 M425.04 34.76 C428.56 31.97, 431.94 27.28, 433.44 25.43 M425.66 34.78 C427.41 32.45, 429.85 30.01, 433.88 24.77 M430.57 35.18 C431.22 34.19, 432.32 33.3, 434.47 30.33 M430.71 35.22 C432.19 33.4, 433.63 31.75, 434.64 30.71" stroke="#ffc9c9" stroke-width="0.5" fill="none"></path><path d="M-0.5 -0.51 C105.39 -1.59, 209.82 -0.91, 434.01 0.57 M432.79 0.72 C434.06 7.39, 434.13 15.21, 434.32 34.1 M434.08 35.05 C276.01 33.76, 117.16 33.51, -0.3 34.19 M0.22 34.26 C-0.81 27.63, 0.9 20.38, 0.15 -0.94" stroke="#1e1e1e" stroke-width="1.5" fill="none" stroke-dasharray="8 9"></path></g><g transform="translate(215.7848038451334 90.39626497340379) rotate(0 25.83984375 7.565461447396345)"><text x="25.83984375" y="0" font-family="Cascadia, Segoe UI Emoji" font-size="12.609102412327239px" fill="#1e1e1e" text-anchor="middle" style="white-space: pre;" direction="ltr" dominant-baseline="text-before-edge">gRPCity</text></g><g stroke-linecap="round" transform="translate(23.642856025704816 10) rotate(0 216.91812943294926 17.333629344343617)"><path d="M0 0 C0 0, 0 0, 0 0 M0 0 C0 0, 0 0, 0 0 M0.16 5.95 C0.87 4.72, 1.58 3.61, 5.29 0.16 M-0.38 6.55 C0.64 5.28, 1.96 3.82, 4.91 0.4 M0.78 12.58 C3.76 8.34, 5.36 5.57, 10.91 -0.31 M-0.16 12.25 C3.51 8.45, 6.53 5.14, 10.75 -0.45 M-0.23 18.23 C3.84 11.86, 9.87 7.72, 16.67 -0.04 M-0.53 18.02 C3.7 15.01, 6.28 10.48, 16.08 0.31 M-0.22 24.68 C7.72 17.6, 13.97 9.57, 22.27 -0.84 M0.26 24.62 C5.23 17.21, 10.96 11.31, 21.81 -0.46 M-0.63 31.06 C5.25 24.09, 12 16.43, 25.33 1.36 M0.44 30.98 C9.43 20.28, 18.54 9.71, 26.5 -0.27 M1.34 34.98 C11.46 23.38, 23.3 9.95, 31.99 -0.97 M1.36 34.39 C7.93 27.49, 15.21 19.4, 31.91 -0.62 M6.06 33.98 C15.86 23.37, 26.35 11.44, 37.79 0.33 M7.16 34.73 C16.39 24.99, 25.06 13.73, 36.51 -0.15 M13 34.03 C20.18 27.14, 26.44 18.35, 42.69 0.29 M11.89 34.94 C20.97 24, 30.96 13.98, 42.39 -0.26 M17.71 34.28 C28.48 21.15, 39.95 7.61, 47.71 1.34 M17.67 35.45 C24.57 27.06, 30.93 18.58, 47.59 0.68 M23.97 35.52 C34.77 21.22, 45.86 6.85, 54.12 0.33 M23.46 34.69 C34.65 20.46, 46.21 7.11, 53.02 -0.55 M28.06 34.78 C40.82 21.29, 51.01 7.53, 57.8 0.06 M28.23 34.35 C35.53 26.26, 42.8 17.47, 58.21 0.56 M32.64 33.77 C39.55 27.71, 47.02 18.54, 64.32 0.76 M33.86 34.33 C43.74 21.47, 54.71 9.89, 63.68 -0.69 M37.67 35.75 C50.67 20.03, 63.09 7.56, 69.67 0.35 M38.07 34.58 C47.08 24.8, 55.73 14.77, 68.97 0.07 M45.35 33.58 C55.32 21.82, 63.68 12.2, 75.34 -0.5 M44.16 34.57 C55.43 22.18, 66.37 8.7, 74.97 -0.71 M48.77 33.76 C54.68 27.13, 62.08 19.2, 80.4 -0.43 M49.38 35.1 C57.56 24.47, 66.42 14.68, 79.74 0.4 M54.24 36.22 C61.28 26.12, 68.71 18.16, 85.26 -1.32 M54.02 35.17 C66.27 21.4, 78.38 7.79, 85.34 0.21 M59.68 34.14 C70.82 22.8, 81.78 8.4, 90.52 0.97 M59.92 34.57 C72.22 21.51, 84.07 7.99, 90.24 0.46 M65.85 35.31 C73.93 24.54, 82.53 14.2, 96.17 -0.98 M64.96 34.8 C73.85 24.95, 83.21 14.6, 96.2 -0.2 M70.4 33.99 C79.23 23.7, 88.89 11.46, 100.54 -0.98 M70.46 34.2 C80.24 23.47, 89.7 13.21, 100.63 -0.26 M75.75 36.05 C87.48 22.87, 97.79 9.76, 106.2 -1.34 M75.79 34.92 C86.49 22.77, 97.45 9.83, 106.86 0.03 M81.56 34.63 C87.78 26.99, 95.32 20.15, 112.13 0.92 M80.74 34.96 C87.92 26.9, 94.23 19.61, 110.88 0.01 M85.82 35.24 C96.27 23.09, 106.98 10.75, 116.78 -0.41 M85.82 35.16 C96.8 22.31, 107.56 9.68, 116.63 0.51 M90.93 33.7 C103.96 20.65, 114.97 9.32, 122.47 0.54 M91.2 34.68 C98.24 27.92, 104.08 19.73, 121.42 0.22 M95.71 34.45 C105.32 25.84, 112.73 17.05, 127.41 1.24 M97.05 34.56 C105.04 25.65, 113.74 15.48, 126.95 0.61 M101.43 35.31 C108.93 27.49, 113.74 21.37, 132.13 -0.06 M102.43 34.32 C109.88 25.1, 118.29 15.65, 132.49 0.46 M108.46 34.41 C119.14 23.03, 129.35 9, 137.3 -0.66 M106.8 35.57 C119.37 21.51, 131.63 7.62, 137.99 -0.03 M113.15 35.36 C121.65 27.09, 127.84 17.57, 143.97 -0.82 M113.45 35.16 C121.58 23.63, 131.42 14.11, 143.63 0.24 M118.09 36.1 C124.06 27.85, 129.98 21.05, 149.17 -0.11 M118.48 34.44 C129.96 21.73, 141.34 7.55, 148.43 0.59 M124.49 33.99 C135.47 21.01, 145.46 9.25, 152.95 -0.27 M123.39 34.76 C131.88 24.99, 140.76 14.9, 154.25 0.24 M128.82 35.1 C139.83 20.73, 151.49 8.57, 158.43 0.66 M128.53 35.34 C135.65 26.89, 142.14 19.22, 158.78 0.24 M133.33 34.4 C145.31 20.93, 157.17 10.26, 165.36 -1.23 M134.36 34.42 C144.36 22.5, 154.66 10.93, 164.13 -0.56 M140.38 34.06 C145.58 27.93, 151.05 19.96, 170.09 -0.87 M139.48 35.09 C149.58 24.12, 158.9 12.14, 169.71 -0.17 M144.9 34.99 C155.61 21.92, 164.02 11.2, 175.04 -0.56 M145.23 33.99 C151.38 27.04, 158.87 18.79, 175.2 0.23 M149.08 34.76 C156.45 26.4, 162.7 19.14, 179.58 0.39 M150.33 35.05 C159.5 22.82, 170.27 11.1, 180.29 0.53 M154.83 34.99 C165.56 22.06, 176.25 11.66, 184.95 0.59 M155.52 34.78 C163.57 24.95, 172.1 15.67, 185.28 -0.09 M160.34 34.72 C168.47 25.8, 178.15 15.52, 189.7 0.17 M160.46 34.89 C171.26 21.9, 182.04 9.39, 190.87 -0.13 M165.48 36.32 C175.48 24.04, 182.95 13.82, 196.88 0.21 M165.39 35.15 C173.88 25.25, 182.63 16.55, 196.53 0.3 M171.66 35.11 C179.76 25.84, 186.79 17.36, 200.43 -0.43 M171.38 34.29 C183.49 21.41, 194.61 7.95, 201.38 0.18 M176.1 34.98 C185.62 23.91, 197.63 10.67, 205.89 -1.16 M176.54 34.91 C185.88 23.77, 196.43 12.47, 207.05 -0.7 M182.82 35.1 C193.81 20.77, 203.91 9.97, 212.34 -0.6 M181.64 34.63 C187.96 27.18, 194.66 20.12, 211.85 0.14 M186.82 35.7 C193.33 28.09, 200.5 19.22, 217.22 0.64 M186.54 34.73 C193.79 27.03, 201.31 18.8, 218.13 -0.67 M192.49 35.29 C199.66 26.33, 207.85 16.23, 223.18 -0.99 M191.88 35.05 C202.03 23.72, 211.42 12.16, 223.04 -0.19 M197.86 34.23 C208.42 24.03, 217.03 11.19, 229.35 -1.24 M197.74 34.79 C207.12 24.23, 216.39 12.86, 228.13 -0.01 M203.89 34.23 C211.63 25.3, 218.98 17.39, 233.58 -0.27 M203.16 35.25 C208.71 27.51, 215.55 20.07, 233.56 0.17 M207.77 35.09 C215.68 26.26, 224.48 16.44, 238.97 -0.21 M208.09 35.01 C218.3 23.04, 229.13 10.94, 237.97 0.5 M214.57 34.18 C224.75 21.86, 235.47 9.3, 243.57 -0.8 M214.12 34.95 C221.51 25.31, 230.06 16.27, 243.86 0.18 M219.1 34.56 C226.84 27.76, 233.43 18.4, 249.31 -0.72 M218.49 34.49 C226.78 26.21, 233.97 16.86, 248.7 0.68 M224.41 35.36 C231.4 26.43, 239.45 15.59, 253.8 -0.73 M223.83 34.43 C232.71 24.24, 242.37 14.03, 254.52 -0.32 M228.17 35.41 C239.49 24.21, 248.76 11.19, 260.5 0.97 M228.85 35.41 C237.54 25.71, 244.95 16.47, 259.24 0.33 M234.39 34.9 C244.27 24.8, 251.57 14.14, 264.36 0.36 M234.6 35.12 C246.68 21.35, 257.92 8.09, 264.56 -0.09 M239.81 34.48 C250.64 22.82, 263.09 8.69, 271.08 1.31 M239.77 34.63 C248.31 25.47, 256.15 16.85, 269.59 0.22 M245.55 34.69 C253.43 25.7, 261.73 13.86, 275.93 0.34 M245.76 34.5 C252.59 25.67, 259.8 17.57, 275.38 -0.38 M250.37 35.05 C260.83 23.81, 269.67 13.51, 280.76 0.41 M250.86 35.49 C258.51 25.94, 267.48 16.13, 280.74 0.01 M255.52 33.5 C265.44 23.81, 275.67 11.46, 286.38 0.16 M256.48 34.6 C264.48 25.58, 272.85 16.29, 286.83 0.06 M260.2 34.49 C267.22 27.6, 274.38 18.48, 291.49 0.92 M261.29 34.85 C268.04 27.6, 273.59 20.67, 291.83 -0.1 M266.49 34.9 C279.74 20.96, 291.45 7.23, 296.4 0.48 M266.36 34.58 C275.23 25.04, 283 16.43, 296.63 -0.02 M272.49 34.37 C281.03 24.99, 289.72 13.89, 301.89 0.1 M271.51 34.94 C280.74 24.6, 288.87 15.79, 301.83 0.12 M277.27 34.79 C286.22 23.65, 296.16 12.83, 308.44 0.52 M277.11 34.8 C287.82 22.4, 297.91 11.53, 307.72 -0.47 M283.08 34.83 C290.11 26.21, 298.22 18.05, 312.83 -0.03 M282.65 34.91 C288.84 27.28, 296.09 19.45, 312.4 0.35 M288.3 34.63 C295.48 27.05, 302.46 17.74, 318.7 -0.79 M287.92 34.65 C299.12 21.15, 311.43 7.71, 318.63 -0.26 M292.94 35.7 C303.55 24.1, 312.79 11.47, 324.08 -0.53 M292.58 34.73 C299.85 26.68, 307.17 18.86, 322.81 0.26 M298.6 35.01 C308.96 23.27, 318.09 13.16, 329.66 0.82 M297.56 34.67 C304.81 26.87, 312.65 18.47, 328.62 -0.35 M304.73 35.41 C311.57 24.51, 320.88 16.64, 333.15 0.03 M303.28 34.71 C310.83 26.05, 318.66 17.27, 333.83 0.11 M309.77 34.51 C316.28 25.41, 324.28 16.73, 339.82 0.27 M308.89 34.85 C316.6 25.68, 325.12 16.51, 339.33 -0.83 M314.92 34.32 C326.81 20.06, 336.96 6.55, 345.51 -0.04 M314.57 34.84 C322.73 25.59, 330.54 16.2, 344.99 0.15 M318.44 34.63 C329.04 22.87, 340.21 10.44, 348.77 0.88 M319.61 35.54 C325.25 28.16, 332.06 20.52, 349.05 0.38 M323.96 33.64 C334.67 23.32, 342.44 14.6, 355.3 0.1 M324.73 34.31 C332.15 25.47, 339.58 17.37, 355.09 0.1 M330.28 34.87 C336.23 27.69, 344.03 18.06, 360.89 1.11 M330.13 35.44 C341.4 22.38, 352.34 9.24, 360.42 0.56 M335.14 34.26 C344.54 23.53, 355.63 12.19, 364.64 0.43 M335.56 34.26 C346.73 21.06, 359.14 7.61, 366.17 -0.33 M340.83 36.12 C351.92 22.18, 362.8 8.41, 371.28 0.27 M340.67 35.48 C351.71 22.48, 361.77 9.8, 370.3 0.68 M346.68 35.67 C354.78 23.16, 365.87 12.9, 375.64 -1.08 M346.16 35.03 C353.13 27.04, 360.11 18.63, 376.15 0.28 M350.14 35.02 C362.83 22.03, 373.92 9.96, 380.79 1.14 M350.76 34.95 C362.95 20.78, 374.85 7.27, 380.86 0.68 M357.37 34.75 C365.07 25.47, 372.26 15.53, 387.04 -0.52 M356.91 34.38 C368.72 21.11, 380.58 7.3, 387.35 -0.03 M361.7 34.11 C373.71 22.1, 384.26 9.27, 391.98 0.53 M362.04 35.37 C368.26 28.33, 374.34 21.35, 391.59 0.79 M367.75 33.79 C375.8 24.18, 383.79 15.21, 397.59 -0.53 M367.72 34.93 C373.62 26.68, 380.63 20.33, 397.97 -0.4 M372.21 33.95 C383.65 22.65, 395.19 8.49, 403.48 -0.51 M372.03 35.46 C381.09 25.12, 390.02 14.83, 402.07 -0.16 M378.9 34.74 C388.65 21.99, 399.58 9.7, 407.2 -0.06 M377.55 34.48 C387.71 24.26, 397.03 13.3, 408.3 0.06 M384.05 34.25 C392.06 25.51, 401.72 15.59, 413.36 -0.1 M382.64 35.07 C391.47 24.79, 400.28 15.06, 413.76 0.33 M389.11 33.61 C398.12 24.38, 408.7 12.49, 418.07 -0.08 M388.28 34.5 C396.35 26.17, 402.9 17.64, 419.09 -0.59 M392.83 34.95 C401.02 28.21, 406.99 19.21, 424.82 1.06 M393.91 34.63 C405.56 21.73, 416.97 7.82, 423.7 -0.01 M398.87 35.91 C410.45 21.6, 421.37 10.23, 428.99 -0.16 M399.03 34.71 C405.56 27.71, 411.02 20.15, 429.77 0.25 M404.37 35.15 C410.94 26.69, 417.11 19.76, 433.69 0.85 M404.61 34.59 C414.77 22.39, 425.82 10.26, 434.14 0.21 M410.07 34.4 C417.61 26.68, 426.46 14.97, 435.15 7.2 M409.31 35.1 C418.74 24.12, 427.78 13.06, 434.3 6.87 M415.44 34.19 C420.97 27.07, 427.74 19.85, 434.31 11.96 M415.08 34.83 C420.84 29.15, 426.43 22.64, 434.09 12.68 M420.97 35.13 C425.45 29.15, 428.59 25.28, 433.33 18.05 M420.19 35.4 C425.3 29.06, 430.07 22.3, 434.83 18.7 M426.01 34.98 C427.45 32.11, 430.05 29.46, 434.3 25.61 M425.52 35.06 C427.31 32.35, 429.06 30.33, 433.99 25.13 M430.39 35.12 C431.33 34.03, 432.63 32.83, 434.63 30.25 M430.62 35.03 C432.03 33.71, 433.31 32.13, 434.65 30.64" stroke="#ffec99" stroke-width="0.5" fill="none"></path><path d="M-0.23 0.25 C167.42 -1.05, 335.68 -0.76, 433.58 -0.5 M434.39 -0.83 C434.5 10.5, 433.89 20.55, 434.62 34.97 M433.88 35.12 C276.32 33.84, 118.04 33.21, -0.55 34.72 M-0.42 34.15 C-0.41 22.31, -0.69 8.54, 0.96 0.67" stroke="#1e1e1e" stroke-width="1.5" fill="none" stroke-dasharray="8 9"></path></g><g transform="translate(211.02973545865416 19.768167896947276) rotate(0 29.53125 7.565461447396343)"><text x="29.53125" y="0" font-family="Cascadia, Segoe UI Emoji" font-size="12.609102412327239px" fill="#1e1e1e" text-anchor="middle" style="white-space: pre;" direction="ltr" dominant-baseline="text-before-edge">Business</text></g><g stroke-linecap="round"><g transform="translate(69.37801948696853 119.26390605533706) rotate(0 -5.841602515659957 21.552265308418086)"><path d="M0.23 0.06 C-3.74 13.86, -8.17 28.21, -11.97 43.19 M0.28 -0.09 C-4.12 15.57, -8.26 30.19, -11.68 42.61" stroke="#1e1e1e" stroke-width="1" fill="none"></path></g><g transform="translate(69.37801948696853 119.26390605533706) rotate(0 -5.841602515659957 21.552265308418086)"><path d="M-13.18 20.59 C-12.8 27.64, -12.83 35.29, -11.84 43.1 M-13.12 20.44 C-12.67 28.75, -11.98 36.01, -11.56 42.52" stroke="#1e1e1e" stroke-width="1" fill="none"></path></g><g transform="translate(69.37801948696853 119.26390605533706) rotate(0 -5.841602515659957 21.552265308418086)"><path d="M1.42 24.64 C-2.96 30.42, -7.74 36.75, -11.84 43.1 M1.48 24.5 C-3.28 31.35, -7.8 37.17, -11.56 42.52" stroke="#1e1e1e" stroke-width="1" fill="none"></path></g></g><mask></mask><g stroke-linecap="round"><g transform="translate(236.24768845894744 75.45139252466701) rotate(0 0.8771413113445874 -14.725176163015032)"><path d="M-0.12 0.22 C1.1 -9.02, 0.9 -17.71, 1.73 -29.67 M-0.14 -0.11 C0.66 -9.83, 1.01 -19.46, 1.89 -29.58" stroke="#1e1e1e" stroke-width="1" fill="none"></path></g><g transform="translate(236.24768845894744 75.45139252466701) rotate(0 0.8771413113445874 -14.725176163015032)"><path d="M5.81 -15.16 C5.13 -19.76, 3.42 -23.95, 1.82 -29.66 M5.79 -15.41 C4.64 -20.11, 3.15 -24.74, 1.95 -29.6" stroke="#1e1e1e" stroke-width="1" fill="none"></path></g><g transform="translate(236.24768845894744 75.45139252466701) rotate(0 0.8771413113445874 -14.725176163015032)"><path d="M-4.3 -15.92 C-1.99 -20.29, -0.74 -24.25, 1.82 -29.66 M-4.31 -16.17 C-2.15 -20.61, -0.34 -24.99, 1.95 -29.6" stroke="#1e1e1e" stroke-width="1" fill="none"></path></g></g><mask></mask><g stroke-linecap="round"><g transform="translate(134.84679278099804 120.43612006530631) rotate(0 -7.472937870016494 22.05729111517742)"><path d="M0.16 -0.46 C-3.58 11.12, -7.1 21.85, -15.19 44.57 M0.25 0.23 C-4.29 12.78, -8.36 25.51, -14.38 44.04" stroke="#1e1e1e" stroke-width="1" fill="none"></path></g><g transform="translate(134.84679278099804 120.43612006530631) rotate(0 -7.472937870016494 22.05729111517742)"><path d="M-15.03 20.4 C-14.9 26.78, -14.57 32.31, -14.9 44.6 M-14.95 21.09 C-15 27.63, -14.64 34.39, -14.08 44.07" stroke="#1e1e1e" stroke-width="1" fill="none"></path></g><g transform="translate(134.84679278099804 120.43612006530631) rotate(0 -7.472937870016494 22.05729111517742)"><path d="M0.06 25.3 C-3.58 30.45, -7.01 34.77, -14.9 44.6 M0.14 25.99 C-4.23 31.17, -8.19 36.52, -14.08 44.07" stroke="#1e1e1e" stroke-width="1" fill="none"></path></g></g><mask></mask><g stroke-linecap="round"><g transform="translate(187.89962796210648 116.13341009082146) rotate(0 -3.37656655553576 20.67061011242904)"><path d="M-0.4 -0.13 C-2.62 16.13, -4.73 31.96, -6.66 41.51 M-0.09 -0.17 C-2.23 16.44, -4.72 32.44, -6.19 41.28" stroke="#1e1e1e" stroke-width="1" fill="none"></path></g><g transform="translate(187.89962796210648 116.13341009082146) rotate(0 -3.37656655553576 20.67061011242904)"><path d="M-10.53 20.59 C-8.89 28.84, -7.15 36.69, -6.74 41.36 M-10.23 20.55 C-8.34 28.93, -6.86 36.7, -6.27 41.13" stroke="#1e1e1e" stroke-width="1" fill="none"></path></g><g transform="translate(187.89962796210648 116.13341009082146) rotate(0 -3.37656655553576 20.67061011242904)"><path d="M3.6 22.86 C-0.16 30.28, -3.83 37.26, -6.74 41.36 M3.91 22.82 C0.23 30.29, -3.88 37.16, -6.27 41.13" stroke="#1e1e1e" stroke-width="1" fill="none"></path></g></g><mask></mask><g stroke-linecap="round"><g transform="translate(243.30114104575682 121.4934522538278) rotate(0 -2.2202360641533687 19.782795882873394)"><path d="M-0.58 0.09 C-2.1 13.56, -2.87 27.39, -4.68 39.49 M0.24 0.07 C-1.11 11.65, -2.3 23.14, -4.07 39.3" stroke="#1e1e1e" stroke-width="1" fill="none"></path></g><g transform="translate(243.30114104575682 121.4934522538278) rotate(0 -2.2202360641533687 19.782795882873394)"><path d="M-9.37 20.13 C-7.74 26.55, -5.38 33.33, -4.52 39.37 M-8.56 20.12 C-7.32 25.81, -5.89 31.39, -3.92 39.18" stroke="#1e1e1e" stroke-width="1" fill="none"></path></g><g transform="translate(243.30114104575682 121.4934522538278) rotate(0 -2.2202360641533687 19.782795882873394)"><path d="M4.1 21.6 C1.02 27.49, -1.33 33.75, -4.52 39.37 M4.92 21.58 C2.2 26.81, -0.31 31.97, -3.92 39.18" stroke="#1e1e1e" stroke-width="1" fill="none"></path></g></g><mask></mask><g stroke-linecap="round"><g transform="translate(304.52651409004227 120.17153208866091) rotate(0 0.8251747186796479 20.601444596913552)"><path d="M-0.5 0.58 C1.25 13.19, 1.33 27.15, 2.15 40.71 M0.13 0.11 C0.25 10.18, 0.52 20.52, 1.93 41.09" stroke="#1e1e1e" stroke-width="1" fill="none"></path></g><g transform="translate(304.52651409004227 120.17153208866091) rotate(0 0.8251747186796479 20.601444596913552)"><path d="M-6.78 22.81 C-2.92 27.97, -0.68 34.5, 2.33 40.69 M-6.15 22.34 C-4.38 26.89, -2.51 31.69, 2.11 41.07" stroke="#1e1e1e" stroke-width="1" fill="none"></path></g><g transform="translate(304.52651409004227 120.17153208866091) rotate(0 0.8251747186796479 20.601444596913552)"><path d="M7.26 21.94 C6.44 27.42, 3.98 34.24, 2.33 40.69 M7.9 21.47 C6.17 26.22, 4.55 31.24, 2.11 41.07" stroke="#1e1e1e" stroke-width="1" fill="none"></path></g></g><mask></mask><g stroke-linecap="round"><g transform="translate(368.40053745551086 118.59931923965314) rotate(0 0.9828978872359926 20.274037830444442)"><path d="M-0.03 -0.13 C0.26 10.3, 0.49 20.48, 1.86 40.57 M0.28 -0.1 C0.29 10.87, 1.21 22.06, 2 40.68" stroke="#1e1e1e" stroke-width="1" fill="none"></path></g><g transform="translate(368.40053745551086 118.59931923965314) rotate(0 0.9828978872359926 20.274037830444442)"><path d="M-5.85 21.9 C-4.07 26.92, -2.41 31.72, 1.83 40.86 M-5.54 21.94 C-3.98 27.02, -1.49 32.33, 1.96 40.97" stroke="#1e1e1e" stroke-width="1" fill="none"></path></g><g transform="translate(368.40053745551086 118.59931923965314) rotate(0 0.9828978872359926 20.274037830444442)"><path d="M7.96 21.24 C6.31 26.46, 4.55 31.42, 1.83 40.86 M8.27 21.27 C6.1 26.52, 4.85 32.01, 1.96 40.97" stroke="#1e1e1e" stroke-width="1" fill="none"></path></g></g><mask></mask><g stroke-linecap="round"><g transform="translate(424.15648914487406 117.71239540694523) rotate(0 5.1762311460610135 21.075839394471274)"><path d="M-0.33 0.3 C3.91 14.07, 7.75 29.54, 10.68 41.52 M-0.08 0.05 C2.47 10.37, 5.28 20.16, 9.98 42.1" stroke="#1e1e1e" stroke-width="1" fill="none"></path></g><g transform="translate(424.15648914487406 117.71239540694523) rotate(0 5.1762311460610135 21.075839394471274)"><path d="M-2.01 24.19 C2.7 29.68, 7.04 36.86, 10.43 41.6 M-1.76 23.94 C1.07 28.53, 4.22 32.59, 9.73 42.18" stroke="#1e1e1e" stroke-width="1" fill="none"></path></g><g transform="translate(424.15648914487406 117.71239540694523) rotate(0 5.1762311460610135 21.075839394471274)"><path d="M12.43 20.95 C12.12 27.55, 11.44 35.85, 10.43 41.6 M12.67 20.7 C12.04 26.11, 11.72 30.95, 9.73 42.18" stroke="#1e1e1e" stroke-width="1" fill="none"></path></g></g><mask></mask></svg>